<svg id="visual" viewBox="0 0 1600 900" width="1600" height="900" xmlns="http://www.w3.org/2000/svg" xmlns:xlink="http://www.w3.org/1999/xlink" version="1.1"><path d="M0 127L24.2 133C48.3 139 96.7 151 145.2 148C193.7 145 242.3 127 290.8 128.5C339.3 130 387.7 151 436.2 167.5C484.7 184 533.3 196 581.8 191.5C630.3 187 678.7 166 727.2 152.5C775.7 139 824.3 133 872.8 148C921.3 163 969.7 199 1018.2 218.5C1066.7 238 1115.3 241 1163.8 221.5C1212.3 202 1260.7 160 1309.2 143.5C1357.7 127 1406.3 136 1454.8 131.5C1503.3 127 1551.7 109 1575.8 100L1600 91L1600 0L1575.8 0C1551.7 0 1503.3 0 1454.8 0C1406.3 0 1357.7 0 1309.2 0C1260.7 0 1212.3 0 1163.8 0C1115.3 0 1066.7 0 1018.2 0C969.7 0 921.3 0 872.8 0C824.3 0 775.7 0 727.2 0C678.7 0 630.3 0 581.8 0C533.3 0 484.7 0 436.2 0C387.7 0 339.3 0 290.8 0C242.3 0 193.7 0 145.2 0C96.7 0 48.3 0 24.2 0L0 0Z" fill="#f0ede9"></path><path d="M0 199L24.2 203.5C48.3 208 96.7 217 145.2 223C193.7 229 242.3 232 290.8 242.5C339.3 253 387.7 271 436.2 286C484.7 301 533.3 313 581.8 313C630.3 313 678.7 301 727.2 292C775.7 283 824.3 277 872.8 278.5C921.3 280 969.7 289 1018.2 295C1066.7 301 1115.3 304 1163.8 286C1212.3 268 1260.7 229 1309.2 220C1357.7 211 1406.3 232 1454.8 232C1503.3 232 1551.7 211 1575.8 200.5L1600 190L1600 89L1575.8 98C1551.7 107 1503.3 125 1454.8 129.5C1406.3 134 1357.7 125 1309.2 141.5C1260.7 158 1212.3 200 1163.8 219.5C1115.3 239 1066.7 236 1018.2 216.5C969.7 197 921.3 161 872.8 146C824.3 131 775.7 137 727.2 150.5C678.7 164 630.3 185 581.8 189.5C533.3 194 484.7 182 436.2 165.5C387.7 149 339.3 128 290.8 126.5C242.3 125 193.7 143 145.2 146C96.7 149 48.3 137 24.2 131L0 125Z" fill="#ece8e3"></path><path d="M0 379L24.2 373C48.3 367 96.7 355 145.2 349C193.7 343 242.3 343 290.8 350.5C339.3 358 387.7 373 436.2 395.5C484.7 418 533.3 448 581.8 446.5C630.3 445 678.7 412 727.2 404.5C775.7 397 824.3 415 872.8 431.5C921.3 448 969.7 463 1018.2 466C1066.7 469 1115.3 460 1163.8 428.5C1212.3 397 1260.7 343 1309.2 325C1357.7 307 1406.3 325 1454.8 325C1503.3 325 1551.7 307 1575.8 298L1600 289L1600 188L1575.8 198.5C1551.7 209 1503.3 230 1454.8 230C1406.3 230 1357.7 209 1309.2 218C1260.7 227 1212.3 266 1163.8 284C1115.3 302 1066.7 299 1018.2 293C969.7 287 921.3 278 872.8 276.5C824.3 275 775.7 281 727.2 290C678.7 299 630.3 311 581.8 311C533.3 311 484.7 299 436.2 284C387.7 269 339.3 251 290.8 240.5C242.3 230 193.7 227 145.2 221C96.7 215 48.3 206 24.2 201.5L0 197Z" fill="#e8e4de"></path><path d="M0 766L24.2 730C48.3 694 96.7 622 145.2 604C193.7 586 242.3 622 290.8 631C339.3 640 387.7 622 436.2 628C484.7 634 533.3 664 581.8 655C630.3 646 678.7 598 727.2 599.5C775.7 601 824.3 652 872.8 668.5C921.3 685 969.7 667 1018.2 679C1066.7 691 1115.3 733 1163.8 716.5C1212.3 700 1260.7 625 1309.2 607C1357.7 589 1406.3 628 1454.8 614.5C1503.3 601 1551.7 535 1575.8 502L1600 469L1600 287L1575.8 296C1551.7 305 1503.3 323 1454.8 323C1406.3 323 1357.7 305 1309.2 323C1260.7 341 1212.3 395 1163.8 426.5C1115.3 458 1066.7 467 1018.2 464C969.7 461 921.3 446 872.8 429.5C824.3 413 775.7 395 727.2 402.5C678.7 410 630.3 443 581.8 444.5C533.3 446 484.7 416 436.2 393.5C387.7 371 339.3 356 290.8 348.5C242.3 341 193.7 341 145.2 347C96.7 353 48.3 365 24.2 371L0 377Z" fill="#e2dcd5"></path><path d="M0 901L24.2 901C48.3 901 96.7 901 145.2 901C193.7 901 242.3 901 290.8 901C339.3 901 387.7 901 436.2 901C484.7 901 533.3 901 581.8 901C630.3 901 678.7 901 727.2 901C775.7 901 824.3 901 872.8 901C921.3 901 969.7 901 1018.2 901C1066.7 901 1115.3 901 1163.8 901C1212.3 901 1260.7 901 1309.2 901C1357.7 901 1406.3 901 1454.8 901C1503.3 901 1551.7 901 1575.8 901L1600 901L1600 467L1575.8 500C1551.7 533 1503.3 599 1454.8 612.5C1406.3 626 1357.7 587 1309.2 605C1260.7 623 1212.3 698 1163.8 714.5C1115.3 731 1066.7 689 1018.2 677C969.7 665 921.3 683 872.8 666.5C824.3 650 775.7 599 727.2 597.5C678.7 596 630.3 644 581.8 653C533.3 662 484.7 632 436.2 626C387.7 620 339.3 638 290.8 629C242.3 620 193.7 584 145.2 602C96.7 620 48.3 692 24.2 728L0 764Z" fill="#dcd5cc"></path></svg>