<svg xmlns="http://www.w3.org/2000/svg" viewBox="0 0 1920 1080">
  <g id="caroline" style="isolation: isolate">
    <g id="Layer_1_Clipping_Path" data-name="Layer 1 Clipping Path">
      <path id="carolinetext" d="M1624,544a193.94,193.94,0,0,1-37,22c-8.19,3.64-21.47,7.81-30,1-2.72-1.35-2.82-3.25-5-5,2.37-6.47,9.5-10.45,14-15,4.89-4.94,7.76-11.36,12-17l13-12c2.86-4.44,1.89-8.28,4-14,1.22-3.32,5.77-5.34,7-8v-9l7-5v-8c1.12-3.68,7.13-8.94,7-13-.16-4.91-1.93-15.09,1-20-.41-6.17-2.52-6.46-4-11-7.72.24-7.58-.17-13-2-22.17,22.57-39.26,57.2-53,88-2.31,5.17-11,29.92-7,36v9h-1c-3,2.88-23.27,16-27,17-3.2.84-5.6-1.15-9,1-6.32,0-7.61-.86-11-3-.14-8.45,6.13-39.62,12-46-.54-3.94-1.55-5.37-3-8a48,48,0,0,0-35,15,14.17,14.17,0,0,1-4-1,26.33,26.33,0,0,1,3-13c8.32-3,19.2-3.45,25-7l5-5c2.55-1.36,4.77-.5,7-2l7-8c4.79-2.86,6.8-2.42,10-7,2.65-3.79,1.91-7.12,4-12,1-2.29,4.09-3.43,5-6v-6c.93-2.18,4.18-5.18,5-8,1.7-5.84-.07-33.12-1-34,.19-10.05-2.4-10.38-7-15-4.57-.05-8.44.1-11,2-4.52,1.12-12.33,7-14,11,.33,1,.67,2,1,3-1.29,2.24-5.52,3.57-7,6l-3,9c-1.2,1.87-4,3.69-5,6v4l-7,4c-3.37,3.93.47,10.69-2,16l-5,4c-.33,2.33-.67,4.67-1,7-1.84,4.44-6.4,8.15-8,12-.33,2.67-.67,5.33-1,8-2.34,6-8.49,10.72-11,16-.33,2.67-.67,5.33-1,8-.92,2.34-4.12,4.77-5,7-1.25,3.17.94,8.33,0,10l-3,1c-1,1.62-1,3.64-2,5-3.65,7-13.61,5.86-21,10-.33,1-.67,2-1,3l-12-1c-1.23.31-3.06,1.64-5,2-2.41-2.54-5.84-4.21-7-8q-.49-6.5-1-13c-1.31-2.07-3.65-1.21-5-4,1.53-1.57,2.25-4.73,4-6,2.64-1.91,5.74-1.89,8-4,1.8-1.38,2.48-12.08,6-16v-7c-1.73-.65-1-.2-2-1-13.94,2.24-15.41,20-22,30-7.33,11.14-27.19,13.37-31,28-7,.07-12.6,1.91-17,5-5.17-.18-5.87-1-7-5-1-1.91.56-2.69,3-4-.78-2.83-1-3.48-3-5,1.34-11,9.22-18.3,13-27,2.13-4.9,2.12-10.83,5-15-.08-4.5-.63-5.46-2-8-12.81.05-4.86,2.94-10,8-8.06,7.93-13.75,16.06-17,29-.59,2.37,1.21,5.13,1,6-.32,1.32-3.5,3.6-2,7h2c-.33,2.67-.67,5.33-1,8,1,4.41,4.06,7.84,5,13,4.09,1.74,7.64,3.56,10,7,7.65-.2,12.1-2.18,16-6,.33-1,.67-2,1-3l7-1a44.72,44.72,0,0,0,21-19c2,.4,1.93.25,3,1,5.42,3,1.81,7.86,5,13l5,3c12.51,11.67,26.16,9.3,37-2h5l-7,13v9c3.74,1,5.62,2.49,10,3,1.67-12,10-18.22,17-25,3.4-3.32,5.14-9.19,8-13,6.3-8.39,17.12-13.12,23-22,4.77.66,4.07,2,7,4-1.27,5.32-4.46,7.9-6,12-1.8,4.79.48,6.33,1,10-2.21,3.48-4.82,11.8-6,16,2.46,2.52,3.33,3.35,4,8,4.06.87,4.17,3,7,4,18.15,6.31,47.79-13,51-25,3.34,2,2.82,6,5,9,2.71,3.78,8.18,5.29,11,9,14.24-1.65,30.22-2.6,42-8,4.58-2.1,8.76-7.37,13-10,3.59-2.22,7.83-2.42,11-5l5-7c2.58-1.9,6.25-2.37,8-5,1.59-2.39.72-5.21,2-8,.51-1.11,7.7-11.39,9-13v-2C1636,526.26,1631.31,538.57,1624,544Zm-146-51c1.6-2.12,4.77-3.29,6-6,5.42-12,7.34-23.42,14-34,2.2-3.5,7-6.46,9-10,2.53-4.52,2.12-8.29,5-12,2.4-3.09,5.45-2.51,7-7h6l1,1c0,29.72-6,58.79-23,71-7,5-16.69,6.1-25,12-2.32-.23-2.82-.2-4-1C1473.17,504,1479.06,500.69,1478,493Zm92,9,3-10c3.45-8,7.75-14.9,12-23,4.06-7.74,12.27-14.14,15-23,8.88,10-1.65,26.51-6,33-2.62,3.9-.71,10.26-3,15-3.31,6.85-11.12,13.5-15,20-2.51,4.21-2.41,9-5,13-4.34,6.7-14,10.56-19,17h-1C1553.64,527,1562.85,514,1570,502Zm-264,42c-3.79-1.42-6.72-3-13-3l-1-1c0-2.73,0-4.58,1-6,.36-3.75.78-3.72,2-6,2.36.88,1.65.38,3,2,6.62-7.19-2.66-16.09,0-28,6.13-27.46,4.33-66.39-14-81-2.07-2.94-2.19-.43-6-2-15.13-6.25-30.44,9.22-37,18-2.89,3.88-2.53,7.1-5,12-3.08,6.11-7.83,15.56-9,24-.54,3.91,3.09,8.21,4,11,1.43,4.41.81,7.58,3,11,8.53,13.3,29.18,24.53,49,26l1,1c-.29,9.76-4,9.85-4,20-27.65,5.62-57,40.47-66,65-4.55,12.45-4.5,26.14-9,39,3.7,3.48,7.06,6.62,11,10,6.15-.68,6.54-4.26,11-6s9.26-.57,13-3c3.32-2.16,2.68-4.89,6-5,.33-1.67.67-3.33,1-5,11.29-.37,10.22-10,14-18,2.18-4.64,6.4-8,9-14,1.78-4.08,1.23-7.73,3-12,2.24-5.39,6.08-11.2,8-17,2.36-7.14,1.71-13.9,5-20,1.58-2.92,5.18-5.08,7-8,8.41.31,15.73,1,19-4h1a10.92,10.92,0,0,0-3-2C1308.12,539.26,1308.29,544.86,1306,544Zm-43,41c-1.57,3.88-1,6.49-1,9l-4,4c-.67,2.09.94,5-1,8l-8,8c-2.7,5.11-2.7,9.59-6,14-4.25,5.67-12.13,6.77-18,11h-2c.12-3.86.52-15.24,2-18l3-1c1.35-3.73-3.31-4.26-2-8,.91-2.59,3.64-.08,2-4,1-4.07,2.63-3.64,5-6,.74-1.75-.09-4.69,0-9,7-6.76,15.81-26.28,26-28v-3a20.41,20.41,0,0,1,9-2c-.6-2.19-1.12-2,0-4a11,11,0,0,1,5-2l1,1C1273.94,565.49,1266.75,575.73,1263,585Zm21-73c-19.73-9.37-28.74-9.1-42-26-.69-1.12.28-8.41,1-11-2.56-3.26-6.44-6.8-2-12,1.65-3,4.24-3.67,6-7h3v-9c5-4.5,7.63-9.81,11-16,2.73,0,4.58,0,6-1h11c2.63,1.41,3.38,8.33,5,11C1295.27,461.22,1289.26,493.21,1284,512Zm-243,57-7-7c-.7-7.19-2.22-16.88,0-25,2.08-7.62,13.07-20.38,7-29v-2c-5.65.66-28.27,12-32,17-5.53,7.46-10.34,15.88-20,19-1.17.81-1.67.8-4,1,.38-5.73,2.33-8.66,6-11,.09-8-1.21-10.6-4-15-14.35,2.92-14.86,29.66-21,42l-12,11-7,1c-1.17.77-1.36,3.55-3,4-2,.54-6.29-2-8-2-3.56.09-9.41,3.88-14,1a18.26,18.26,0,0,1-6-1c-2.56-13.08-1.21-9.29,3-18,1.93-4-1.53-6,1-10,1.6-2.54,6-5,7-8,1.57-4.59-1.38-8.33,0-11v-2c-15,3.16-12.93,13.21-22,20a191.79,191.79,0,0,1-37,22c-8.19,3.64-21.47,7.81-30,1-2.72-1.35-2.82-3.25-5-5,2.37-6.47,9.5-10.45,14-15,4.89-4.94,7.76-11.36,12-17l13-12c2.86-4.44,1.89-8.28,4-14,1.22-3.32,5.77-5.34,7-8v-9l7-5v-8c1.12-3.68,7.13-8.94,7-13-.16-4.91-1.93-15.09,1-20-.41-6.17-2.52-6.46-4-11-7.72.24-7.58-.17-13-2-7.37,7.52-15.39,15.86-21,25l-7,18c-3.67,5.5-9.88,10.86-13,17-.67,3-1.33,6-2,9-4.07,9.46-12.21,18.15-13,31l-7,3c-1.22,1.38-.17.7-2,0-7.55-2.9-20,7.18-29,0-2.06-1.37-4.35-24-7-28-1.22-2.5-2.27-2.28-4-4-10.71,1.11-12,7.95-24,8-.31,4.08-.89,5,0,8l-9,5c-2.51,3.8-1.54,6.43-5,9-1.7,1.27-4.8,1.34-6,3-.67,3-1.33,6-2,9-.44.68-14.79,14.09-16,15-7.46,5.59-20.72,7.19-26,15-7.59-.28-9.17-3-15-4,1.38-21.17,10.79-27.3,21-39a18.26,18.26,0,0,0-1-6c-3.48,0-18.48.77-22,3-6.23-.58-8.58-4.84-11-9-1.43-2.79.51-12.87,2-16-2.39-1.13-5.18-2.26-7-4-10.8,2.28-9.33,18.3-20,22,.23,2.32.2,2.82,1,4,.11,8.25-4.43,10.82-12,11-.26,15.59-9.63,18.11-16,27-2.16,3-2.56,7.32-5,10-2.83,2.24-7.38,2.61-10,5-5.92-5.3-6.74-1.21-13-5-5-2-3.72-6.21-9-8-.48-4.2-2.36-17,0-21,.86-1.47,4.27-2.76,5-5,1.17-3.57-.57-10-1-12q.5-6.5,1-13l-4-3-3-13-5-5c-13.61.85-19.52,12.76-28,19-1.73,1.27-4.76,1.34-6,3-.67,2.33-1.33,4.67-2,7-4.55,3.65-10,4.87-15,8-5.34,3.38-10.58,8.78-16,12-4.53,2.69-9.5,2.34-14,5l-6,7-12,1c-6,2.31-10.85,8.64-17,11l-9,1c-9.73,3-37.35,16.71-51,6-12.8-8.74-11.24-35.53-5-50,4.52-10.49,12.24-19.84,18-29,2.49-4,3.14-8.34,6-12l9-6c4.65-5.86,8.84-13.82,15-18,3.08-2.09,6.93-1.9,10-4l11-13c2.42-1.35,5.95-.64,8-2,6.65-.12,13.05-.1,17,2,.69,23.38-9.65,33.88-19,49-4.06,6.56-4.54,15.54-9,22-.11,7.79,1.25,8.89,4,13,12.88-.7,14.82-14.48,19-24,4.08-9.29,13.46-16.05,17-25,4.6-11.61-6.12-36.86-10-45-50.32-9.95-81.74,41.53-100,69-6.66,10-20.31,26.63-16,46,3.69,16.6,8.78,28.29,18,39,3.12,3.63,9,4,12,8,11.87,0,17.4-4,26-5,5.1-.57,11.89,1.89,18,2,.11-2.53.12-3.71,1-5,1.75-4.13,22.55-12.6,28-15,11.85-5.22,45.16-24.74,52-34h1c-2.47,6.91-10.14,12.71-12,20-1.6,6.28,2.51,6.4-3,12,.3,9.54,6.09,10.32,10,16,5,.45,9.88,3.71,14,1,16.83-.57,21.45-17,32-21,3.63,5,4.89,13.49,10,17,15.17,10.44,36.73,6.11,47-8,2.68-3.68,3.2-8.29,6-12,1.45-1.92,5.6-1.21,7-3,2.28-2.93,2-6.88,4-10,2.43-3.86,12.81-13.22,14-16s-.77-3.22,1-7h2c3.63,5.76,8.29,13.25,14,17-3.46,12.46-9.26,25.72,0,38,5.93,7.86,33.37,10.91,41,2,2-2.37.36-5.22,3-7,4.28-2.89,8.09-1.78,11-6,3,4,3.18,9.93,6,14,1.47,2.51,7.36,4.81,10,6,4.24,2.31,14.34-3.94,18-6,15.9-8.94,21.23-18.72,29-37,4.84-1,11.3.86,16,0,6.39-1.17,13.18-3,21-3,0,12.56.68,25.5,6,33,2.68,3.78,8.11,5.36,11,9,23.54-2.85,52.46-9,64-23,3.81,2.65.49,6.94,2,12,1.4,4.68,9.38,13.31,14,15,8.35,5.74,34.39-3.64,39-9,2.08,1.2,3.87,5,5,7h6c-.33-1.67-.67-3.33-1-5,5.28-3.27,6.12-8.2,10-11,3.45-2.49,6.08-1.91,8-6,1-2.16-.44-3.36-1-7,16.49,0,20.45-13.88,29-22,3.43-3.25,8.6-4.71,12-8h2c.65,1.73.2,1,1,2-1.19,7.7-4.07,5.14-6,9s.4,20.54,0,27l6,8c5.19,3.84,21.42,10.66,29,5,2.16-.92,1.45-.87,3-2C1054.72,566.49,1048.16,572.64,1041,569ZM557,538c.42,18-21.67,32.36-38,33,0-5.83-1.14-9.11-4-12,.23-1.06,12.09-21.35,13-22,2.37-1.69,5.54-1.53,7-4,2.09-3.53,1.22-7.18,3-11,2.3-4.92,14.71-14.37,20-17,.89-.5,3.25-.26,5,1C565.63,510,552,528.67,557,538Zm200,34c-7.86-.36-17.45.15-22,3h-1c1.87-16.6,5.81-35.61,17-43,2.45-2.43,15.35,9.19,21,10C771.51,555,762.26,562.85,757,572Zm17-43-1,1c-7.47.13-10.46-3.72-12-9-.81-1-.37-.25-1-2,6.11-2.31,8.07-4.75,11-10h3c.88,2.36.38,1.65,2,3C775.87,519.31,774.25,522.4,774,529Zm77-27,3-10c3.45-8,7.75-14.9,12-23,4.06-7.74,12.27-14.14,15-23,8.88,10-1.65,26.51-6,33-2.62,3.9-.71,10.26-3,15-3.31,6.85-11.12,13.5-15,20-2.51,4.21-2.41,9-5,13-4.34,6.7-14,10.56-19,17h-1C834.64,527,843.85,514,851,502Zm92-12,3-1V478c.16-.44,3-2,3-2v-3l-5-7h-4c-1.87,3.18-3.92,6-7,8,.4,10.26,6.38,9.85,9,17Zm226,49-3-1-4,4-12,2c-.67,1.33-1.33,2.67-2,4h-6c-6.09,1.86-8.44,4.59-11,10l-10-1c-5.85,1.76-18.79,12.43-26,8-5.66.07-12.89.4-17-1,1.52-8.08,14.76-10.71,21-14,.33-2,.67-4,1-6,10.74.81,4.26-1.1,10-4,2.23-1.13,2.92,2.5,5,0,1.43-1.71.11-4.8,2-6l6-1c7.38-4.89,13-24.36,13-35a25,25,0,0,1-4-5c-9.87-2.34-7.07-1.81-15,1l-6-1-7,7-5-1-7,7c-13.08,9.47-14.53,13.88-19,29h-5c-.1,8.51-2.5,11.08-4,16-3.07,10.08,10.52,23.73,14,29,8,.59,29.16.81,35-3,3.31-1.37,2.93-1.5,3-6,12.51-3,21.74-9.85,32-15,3.38-1.69,5.36,0,8-1,3.13-1.19,7.75-5.33,11-7l5-1c1.69-1.12,2.11-4.92,4-6h4c4.24-2.52,6.87-9.88,11-13v-5c-5.56,1.85-12.22,6.54-17,10Zm-74-14c.33-3.33.67-6.67,1-10,8.25.57,13.12-4.53,18-10,4.16,0,6,.12,8,2,1.25,2-2.66,7.42-4,10a42.32,42.32,0,0,1-14,16c-5.87,4-12.83,4.43-17,10h-2l-1-1C1085.05,534.43,1089.11,527.92,1095,525Z" fill="none" stroke="white" stroke-width="2"/>
    </g>
  </g>
</svg>
