<?xml version="1.0" encoding="UTF-8"?><svg xmlns="http://www.w3.org/2000/svg" xmlns:xlink="http://www.w3.org/1999/xlink" width="1200" zoomAndPan="magnify" viewBox="0 0 1200 299.999988" height="299.999988" preserveAspectRatio="xMidYMid meet" version="1.0"><defs><clipPath id="clip-0"><path d="M 708 0 L 1105 0 L 1105 191 L 708 191 Z M 708 0 " clip-rule="nonzero"/></clipPath><clipPath id="clip-1"><path d="M 745.21875 -223.597656 L 1169.660156 -112.453125 L 1081.691406 223.46875 L 657.253906 112.324219 Z M 745.21875 -223.597656 " clip-rule="nonzero"/></clipPath><clipPath id="clip-2"><path d="M 745.21875 -223.597656 L 1169.660156 -112.453125 L 1081.691406 223.46875 L 657.253906 112.324219 Z M 745.21875 -223.597656 " clip-rule="nonzero"/></clipPath><clipPath id="clip-3"><path d="M 0 134 L 589 134 L 589 300 L 0 300 Z M 0 134 " clip-rule="nonzero"/></clipPath><clipPath id="clip-4"><path d="M -158.027344 476.292969 L 249.378906 -56.238281 L 670.519531 265.949219 L 263.113281 798.480469 Z M -158.027344 476.292969 " clip-rule="nonzero"/></clipPath><clipPath id="clip-5"><path d="M -158.027344 476.292969 L 249.378906 -56.238281 L 670.519531 265.949219 L 263.113281 798.480469 Z M -158.027344 476.292969 " clip-rule="nonzero"/></clipPath><clipPath id="clip-6"><path d="M 177 0 L 832 0 L 832 245 L 177 245 Z M 177 0 " clip-rule="nonzero"/></clipPath><clipPath id="clip-7"><path d="M 861.339844 -324.574219 L 775.324219 321.472656 L 168.675781 240.707031 L 254.691406 -405.34375 Z M 861.339844 -324.574219 " clip-rule="nonzero"/></clipPath><clipPath id="clip-8"><path d="M 861.339844 -324.574219 L 775.324219 321.472656 L 168.675781 240.707031 L 254.691406 -405.34375 Z M 861.339844 -324.574219 " clip-rule="nonzero"/></clipPath><clipPath id="clip-9"><path d="M 806 87 L 1116 87 L 1116 300 L 806 300 Z M 806 87 " clip-rule="nonzero"/></clipPath><clipPath id="clip-10"><path d="M 893.3125 567.679688 L 717.566406 240.667969 L 1024.101562 75.921875 L 1199.847656 402.9375 Z M 893.3125 567.679688 " clip-rule="nonzero"/></clipPath><clipPath id="clip-11"><path d="M 893.3125 567.679688 L 717.566406 240.667969 L 1024.101562 75.921875 L 1199.847656 402.9375 Z M 893.3125 567.679688 " clip-rule="nonzero"/></clipPath></defs><rect x="-120" width="1440" fill="rgb(100%, 100%, 100%)" y="-29.999999" height="359.999986" fill-opacity="1"/><rect x="-120" width="1440" fill="rgb(92.549133%, 92.158508%, 92.549133%)" y="-29.999999" height="359.999986" fill-opacity="1"/><g clip-path="url(#clip-0)"><g clip-path="url(#clip-1)"><g clip-path="url(#clip-2)"><path fill="rgb(57.249451%, 56.469727%, 53.329468%)" d="M 773.804688 -115.90625 C 722.332031 -77.179688 686.359375 3.097656 724.710938 71.566406 C 763.066406 140.035156 856.113281 141.449219 915.269531 167.363281 C 974.429688 193.28125 1050.527344 213.207031 1088.589844 131.375 C 1126.730469 49.566406 1095.25 18.371094 1005.6875 -69.8125 C 916.128906 -157.996094 872.574219 -190.25 773.804688 -115.90625 Z M 773.804688 -115.90625 " fill-opacity="1" fill-rule="nonzero"/></g></g></g><g clip-path="url(#clip-3)"><g clip-path="url(#clip-4)"><g clip-path="url(#clip-5)"><path fill="rgb(57.249451%, 56.469727%, 53.329468%)" d="M 10.542969 499.558594 C 34.664062 594.945312 126.46875 693.015625 245.574219 679.367188 C 364.679688 665.722656 421.667969 535.4375 493.132812 467.363281 C 564.601562 399.289062 637.648438 303.808594 544.886719 201.882812 C 452.203125 99.859375 389.660156 125.816406 212.523438 199.988281 C 35.386719 274.160156 -35.785156 316.503906 10.542969 499.558594 Z M 10.542969 499.558594 " fill-opacity="1" fill-rule="nonzero"/></g></g></g><g clip-path="url(#clip-6)"><g clip-path="url(#clip-7)"><g clip-path="url(#clip-8)"><path fill="rgb(17.649841%, 15.689087%, 12.548828%)" d="M 180.191406 161.726562 C 183.960938 138.421875 188.078125 114.996094 191.523438 91.644531 C 194.667969 69.253906 196.835938 46.734375 199.820312 24.320312 C 201.734375 9.925781 204.960938 -4.296875 205.917969 -18.988281 C 207.429688 -39.097656 210.109375 -59.21875 213.910156 -79.027344 C 216.972656 -95.765625 224.207031 -111.285156 234.941406 -124.34375 C 251.59375 -144.269531 271.050781 -161.492188 292.757812 -175.582031 C 302.828125 -182.398438 312.640625 -189.75 322.023438 -197.660156 C 337.988281 -211.183594 356.085938 -221.925781 375.425781 -229.507812 C 390.902344 -235.605469 406.398438 -241.867188 421.492188 -248.847656 C 430.890625 -253.09375 439.902344 -258.21875 448.515625 -264.066406 C 469.050781 -278.144531 491.535156 -289.304688 515.097656 -297.320312 C 534.449219 -303.738281 553.003906 -312.921875 569.710938 -324.515625 C 587.828125 -337.921875 608.476562 -342.828125 630.261719 -343.757812 C 648.035156 -344.554688 665.660156 -345.539062 683.628906 -345.308594 C 706.59375 -345.082031 729.203125 -340.90625 750.585938 -332.566406 C 766.417969 -326.296875 779.8125 -315.523438 789.246094 -301.28125 C 814.046875 -266.011719 828.164062 -224.339844 829.910156 -181.152344 C 830.933594 -157.539062 831.976562 -134.09375 831.363281 -110.699219 C 830.539062 -94.492188 828.546875 -78.273438 825.429688 -62.375 C 822.03125 -41.847656 817.769531 -21.105469 807.644531 -2.640625 C 796.375 18.167969 784.1875 38.359375 771.675781 58.5 C 767.945312 64 763.273438 69.039062 758.058594 73.171875 C 748.441406 81.546875 738.523438 89.71875 728.320312 97.515625 C 709.953125 111.554688 690.691406 124.804688 668.808594 132.714844 C 649.121094 140.414062 627.058594 139.644531 607.910156 130.765625 C 602.257812 128.183594 596.035156 127.355469 589.902344 128.367188 C 579.402344 129.632812 568.769531 129.382812 558.191406 127.476562 C 548.507812 126.355469 538.792969 126.726562 529.253906 128.285156 C 495.941406 133.175781 462.925781 139.601562 431.230469 152.363281 C 397.257812 165.988281 364.046875 181.378906 331.097656 197.304688 C 312.402344 206.300781 293.464844 214.601562 274.75 223.765625 C 267.445312 227.289062 260.691406 231.71875 253.652344 235.773438 C 244.617188 241.066406 234.410156 243.867188 224.042969 244.152344 C 201.925781 245.039062 182.691406 229.324219 178.90625 207.675781 C 176.957031 192.265625 177.183594 176.8125 180.191406 161.726562 Z M 587.171875 123.84375 C 594.277344 121.792969 601.851562 122.46875 608.445312 125.511719 C 627.671875 135.0625 650.101562 135.550781 669.921875 126.867188 C 683.695312 121.042969 696.824219 113.800781 708.980469 105.097656 C 726.660156 92.464844 743.367188 78.375 760.359375 64.652344 C 762.8125 62.484375 765.148438 59.964844 766.871094 57.03125 C 781.359375 35.816406 794.15625 13.546875 805.242188 -9.621094 C 813.347656 -26.6875 817.28125 -44.976562 820.234375 -63.398438 C 823.304688 -78.972656 825.253906 -94.863281 826.222656 -110.882812 C 826.96875 -132.761719 825.542969 -154.597656 825.144531 -176.625 C 824.117188 -215.222656 813.1875 -253.304688 793.148438 -286.773438 C 782.195312 -305.882812 767.445312 -321.496094 745.808594 -329.207031 C 729.09375 -335.09375 711.585938 -338.757812 693.75 -339.96875 C 669.996094 -341.796875 646.234375 -339.800781 622.351562 -338.152344 C 605.238281 -337.265625 588.492188 -331.671875 574.523438 -321.875 C 556.191406 -309.332031 536.199219 -299.339844 515.101562 -292.328125 C 491.742188 -284.613281 469.753906 -273.390625 449.867188 -259.222656 C 446.945312 -257.28125 444.019531 -255.339844 440.953125 -253.582031 C 422.226562 -243.089844 402.734375 -234.363281 382.453125 -227.242188 C 363.714844 -220.414062 346.101562 -210.769531 330.472656 -198.53125 C 315.238281 -186.742188 299.742188 -175.484375 284.203125 -163.902344 C 266.851562 -151.226562 251.039062 -136.351562 237.324219 -119.695312 C 224 -103.488281 218.789062 -84.371094 216.132812 -64.410156 C 213.648438 -45.761719 211.984375 -27.003906 209.664062 -8.332031 C 206.269531 17.1875 202.402344 42.480469 199.332031 68.042969 C 195.757812 97.371094 191.53125 126.609375 185.648438 155.792969 C 182.367188 171.675781 181.683594 188.066406 183.523438 204.292969 C 186.359375 229.3125 207.851562 239.332031 225.394531 239.003906 C 236.746094 238.851562 246.558594 233.996094 256.433594 228.652344 C 271.167969 220.625 285.855469 212.925781 300.832031 205.59375 C 321.664062 195.546875 342.476562 185.664062 363.574219 176.152344 C 406.488281 156.726562 449.203125 136.273438 496.507812 128.921875 C 515.054688 126.0625 533.390625 123.507812 551.847656 121.304688 C 562.164062 120.179688 572.324219 120.203125 582.59375 119.40625 C 586.121094 119.207031 587.113281 120.503906 587.171875 123.84375 Z M 634.390625 90.835938 C 620.144531 88.941406 607.242188 83.226562 594.042969 78.472656 C 544.582031 60.734375 493.539062 51.105469 440.992188 55.265625 C 422.972656 56.695312 405.277344 60.667969 390.132812 71.804688 C 386.257812 74.617188 382.644531 77.964844 379.363281 81.355469 C 369.902344 91.085938 359.097656 99.636719 347.507812 106.585938 C 337.566406 112.421875 326.148438 115.5625 314.449219 115.835938 C 309.21875 116.304688 303.925781 114.769531 299.6875 111.539062 C 295.101562 108.433594 291.097656 104.734375 287.316406 100.570312 C 261.066406 69.9375 244.027344 32.703125 238.011719 -7.222656 C 236.078125 -21.464844 237.359375 -36.113281 242.015625 -49.8125 C 247.164062 -65.941406 251.207031 -82.550781 260.601562 -96.785156 C 272.964844 -115.785156 286.242188 -134.160156 304.726562 -147.851562 C 327.601562 -164.449219 354.101562 -175.742188 381.945312 -180.855469 C 418.921875 -188.253906 455.828125 -196.328125 492.707031 -204.238281 C 511.65625 -208.875 529.367188 -218.003906 544.078125 -230.863281 C 559.398438 -243.308594 575.246094 -254.683594 590.96875 -266.410156 C 601.707031 -274.46875 612.328125 -282.878906 623.492188 -290.382812 C 630.410156 -294.789062 637.710938 -298.3125 645.273438 -301.300781 C 653.601562 -305.019531 663.183594 -304.410156 670.894531 -299.722656 C 675.847656 -296.898438 680.847656 -294.402344 685.390625 -290.964844 C 699.738281 -281.0625 713.917969 -271.183594 727.851562 -260.671875 C 752.535156 -242.066406 767.792969 -217.726562 772.320312 -186.65625 C 776.269531 -157.492188 779.074219 -128.484375 776.320312 -99.046875 C 773.121094 -67.507812 762.082031 -37.175781 744.257812 -10.914062 C 730.074219 10.507812 715.257812 31.675781 700.601562 52.867188 C 693.96875 62.640625 685.972656 71.398438 676.816406 78.835938 C 674.382812 80.84375 672.820312 83.800781 670.082031 85.601562 C 667.441406 87.914062 664.210938 89.648438 660.785156 90.355469 C 652.152344 91.371094 643.484375 91.382812 634.730469 92.046875 Z M 771.050781 -95.753906 C 774.46875 -126.433594 771.914062 -158.574219 766.554688 -190.917969 C 762.945312 -213.875 751.226562 -234.75 733.398438 -249.777344 C 714.226562 -265.980469 693.691406 -280.703125 672.257812 -293.714844 C 663.066406 -299.765625 651.453125 -300.144531 641.925781 -294.921875 C 630.183594 -289.324219 618.941406 -282.496094 608.695312 -274.371094 C 596.429688 -264.851562 584 -255.351562 571.570312 -245.851562 C 563.960938 -240.035156 555.929688 -234.777344 548.933594 -228.550781 C 532.46875 -213.761719 512.265625 -203.464844 490.632812 -198.6875 C 452.914062 -190.722656 415.050781 -182.941406 377.472656 -174.792969 C 348.472656 -168.5 321.667969 -157.414062 299.625 -137.042969 C 275.976562 -115.882812 258.671875 -88.550781 249.457031 -58.144531 C 243.964844 -39.394531 239.84375 -20.964844 243.746094 -1.464844 C 249.210938 27.566406 260.691406 55.234375 277.609375 79.632812 C 283.789062 88.277344 290.546875 96.339844 297.839844 104.136719 C 301.597656 108.464844 307.089844 111.027344 312.742188 111.113281 C 322.230469 111.210938 331.507812 109.117188 340.039062 105.09375 C 353.269531 98.363281 365.140625 89.289062 375.246094 78.480469 C 385.144531 67.976562 397.660156 60.316406 411.542969 56.171875 C 432.78125 49.34375 455.039062 48.644531 476.890625 49.722656 C 518.796875 51.640625 559.972656 60.285156 599.128906 75.320312 C 613.058594 80.839844 626.988281 86.355469 642.085938 86.867188 C 652.878906 87.140625 664.265625 87.988281 671.09375 76.746094 C 671.511719 76.132812 672.253906 75.566406 672.808594 75.140625 C 681.941406 67.867188 689.734375 59.414062 696.34375 49.804688 C 710.769531 29.082031 725.191406 8.359375 739.167969 -12.753906 C 756.144531 -37.632812 767.085938 -65.980469 771.050781 -95.753906 Z M 568.304688 112.839844 C 568.195312 113.65625 569.234375 114.628906 569.945312 115.554688 C 570.871094 114.847656 572.269531 114.367188 572.703125 113.59375 C 573.164062 112.65625 571.777344 111.804688 570.988281 110.199219 C 569.855469 111.214844 568.414062 112.023438 568.304688 112.839844 Z M 291.441406 -48.058594 C 296.050781 -71.417969 304.167969 -92.316406 322.214844 -107.726562 C 329.125 -113.300781 336.71875 -117.785156 344.839844 -121.199219 C 363.035156 -128.933594 382.046875 -134.058594 401.714844 -136.601562 C 433.160156 -141.238281 464.222656 -149.257812 494.039062 -160.4375 C 500.535156 -162.902344 507.214844 -165.511719 513.949219 -167.277344 C 536.039062 -172.996094 555.226562 -184.425781 573.929688 -197.253906 C 586.765625 -206.03125 600.164062 -214.070312 613.6875 -221.761719 C 624.90625 -228.425781 638.15625 -230.324219 650.753906 -227.316406 C 666.089844 -223.609375 679.496094 -216.664062 688.527344 -203.140625 C 699.953125 -186.300781 709.8125 -169.003906 712.722656 -148.304688 C 714.429688 -133.59375 712.960938 -118.804688 708.589844 -104.734375 C 701.761719 -81.003906 691.421875 -58.40625 677.980469 -37.550781 C 673.125 -29.875 669.046875 -21.757812 663.863281 -14.125 C 657.4375 -4.65625 650.234375 4.375 643.175781 13.589844 C 641.375 15.847656 639.25 18.0625 637.449219 20.320312 C 635.789062 22.761719 635.308594 26.359375 631.03125 23.460938 C 630.703125 23.417969 629.613281 24.105469 629.054688 24.527344 C 620.707031 30.910156 610.316406 33.855469 599.957031 32.808594 C 590.394531 32.035156 580.570312 33.226562 570.921875 33.105469 C 553.511719 32.453125 536.386719 29.671875 519.683594 24.953125 C 507.109375 21.777344 494.992188 17.667969 482.394531 14.660156 C 475.929688 13.132812 469.402344 12.097656 462.953125 11.738281 C 460.003906 11.34375 456.949219 11.769531 454.296875 12.917969 C 434.828125 23.976562 412.984375 26.5625 392.105469 31.941406 C 381.574219 34.699219 370.941406 36.949219 360.09375 38.335938 C 343.109375 40.734375 326.113281 34.476562 314.84375 21.488281 C 296.171875 1.519531 290.238281 -22.746094 291.671875 -48.527344 Z M 553.882812 27.175781 C 557.832031 27.535156 562.722656 28.351562 567.746094 28.1875 C 579.074219 28.199219 590.4375 26.714844 601.757812 28.054688 C 615.839844 29.929688 625.898438 21.945312 634.871094 14.648438 C 644.441406 6.597656 651.269531 -4.644531 658.667969 -15.148438 C 664.222656 -23.066406 668.738281 -31.957031 673.84375 -40.265625 C 687.054688 -60.652344 697.1875 -82.945312 703.972656 -106.347656 C 707.84375 -119.152344 709.277344 -132.449219 708.050781 -145.765625 C 705.492188 -166.582031 695.773438 -183.695312 684.328125 -200.367188 C 675.960938 -212.636719 663.800781 -218.917969 649.9375 -222.429688 C 636.074219 -225.941406 623.957031 -222.558594 612.367188 -215.609375 C 598.988281 -207.734375 586.054688 -199.46875 573.246094 -190.851562 C 555.839844 -179.015625 537.972656 -168.742188 517.5625 -163.132812 C 511.15625 -161.324219 504.683594 -159.023438 498.539062 -156.675781 C 467.304688 -144.851562 434.679688 -136.375 401.695312 -131.445312 C 384.175781 -128.78125 366.929688 -124.417969 350.265625 -118.144531 C 330.171875 -111.164062 313.988281 -96.003906 305.699219 -76.296875 C 292.019531 -46.148438 293.164062 -17.195312 311.960938 10.613281 C 325.609375 30.746094 344.441406 38.25 368.3125 32.933594 C 379.148438 30.382812 390.128906 28.015625 400.988281 25.296875 C 418.726562 21 436.679688 17.5625 453.019531 8.75 C 456.226562 7.179688 459.796875 6.65625 463.234375 7.113281 C 472.121094 7.964844 480.753906 9.445312 489.445312 11.769531 C 510.71875 18.429688 532.355469 23.640625 554.351562 27.402344 Z M 513.746094 -6.804688 C 500.515625 -10.066406 487.121094 -13.347656 473.398438 -16.671875 C 471.128906 -17.140625 468.859375 -17.609375 466.730469 -17.894531 C 466.074219 -17.980469 464.929688 -18.132812 464.742188 -17.992188 C 462.191406 -13.835938 458.75 -16.792969 455.761719 -16.855469 C 449.800781 -17.152344 443.675781 -17.46875 437.652344 -17.269531 C 427.730469 -16.59375 417.71875 -17.761719 408.113281 -20.703125 C 391.75 -26.710938 381.179688 -42.4375 381.664062 -59.855469 C 382.574219 -81.710938 399.476562 -99.773438 421.273438 -102.03125 C 441.390625 -104.179688 460.894531 -109.242188 480.519531 -113.957031 C 493.433594 -117.066406 506.246094 -120.6875 519.136719 -123.632812 C 542.796875 -128.640625 564.667969 -140.214844 582.074219 -157.042969 C 589.941406 -164.820312 599.371094 -170.554688 609.683594 -174.179688 C 623.449219 -178.671875 634.179688 -175.410156 642.792969 -163.777344 C 645.46875 -160.089844 647.589844 -155.976562 648.84375 -151.648438 C 653.511719 -137.875 652.640625 -123.839844 651.257812 -109.703125 C 648.601562 -87.25 641.054688 -65.609375 629 -46.402344 C 623.894531 -38.09375 616.507812 -31.417969 607.765625 -27.085938 C 598.28125 -22.191406 588.960938 -17.269531 579.214844 -12.90625 C 566.609375 -7.09375 552.976562 -6.078125 539.429688 -5.71875 C 531.070312 -5.5 522.675781 -6.285156 513.5625 -6.664062 Z M 514.398438 -11.714844 C 523.351562 -11.355469 531.4375 -10.777344 539.449219 -10.875 C 551.992188 -11.203125 564.621094 -12.1875 576.136719 -17.3125 C 586.417969 -21.9375 596.457031 -27.261719 606.476562 -32.421875 C 614.703125 -36.652344 621.414062 -43.25 625.964844 -51.136719 C 640.410156 -74.519531 647.835938 -101.503906 647.664062 -128.996094 C 648.0625 -138.265625 646.292969 -147.492188 642.261719 -156.023438 C 634.792969 -170.003906 624.378906 -174.386719 610.015625 -169.140625 C 607.054688 -168.203125 604.21875 -166.914062 601.664062 -165.257812 C 595.28125 -161.113281 589.160156 -156.433594 583.34375 -151.546875 C 568.457031 -137.378906 550.289062 -127.308594 530.410156 -121.964844 C 520.925781 -119.566406 511.34375 -117.675781 501.816406 -114.949219 C 473.972656 -107.335938 446.109375 -99.558594 417.214844 -96.578125 C 409.28125 -95.804688 402.054688 -91.605469 397.515625 -85.046875 C 394.472656 -80.957031 391.898438 -76.640625 389.464844 -72.136719 C 381.808594 -57.171875 390.710938 -30.179688 409.726562 -25.316406 C 418.929688 -23.09375 428.285156 -22.015625 437.652344 -22.265625 C 444.167969 -22.398438 450.761719 -21.851562 457.375 -21.472656 C 460.015625 -21.285156 462.769531 -19.421875 464.839844 -22.476562 C 465.070312 -22.945312 466.542969 -22.746094 467.527344 -22.617188 C 469.980469 -22.289062 472.601562 -21.941406 474.992188 -21.125 C 488.550781 -17.820312 501.921875 -14.375 514.519531 -11.363281 Z M 514.398438 -11.714844 " fill-opacity="1" fill-rule="nonzero"/></g></g></g><g clip-path="url(#clip-9)"><g clip-path="url(#clip-10)"><g clip-path="url(#clip-11)"><path fill="rgb(17.649841%, 15.689087%, 12.548828%)" d="M 1045.121094 116.230469 C 1051.15625 128.25 1057.066406 140.441406 1063.265625 152.371094 C 1069.28125 163.761719 1075.792969 174.882812 1081.886719 186.226562 C 1085.804688 193.515625 1089.058594 201.15625 1093.515625 208.261719 C 1099.523438 218.050781 1105 228.238281 1109.851562 238.652344 C 1114.019531 247.402344 1115.859375 256.980469 1115.265625 266.585938 C 1114.234375 281.332031 1111.007812 295.765625 1105.703125 309.503906 C 1103.332031 316.007812 1101.261719 322.671875 1099.574219 329.449219 C 1096.722656 341.011719 1091.964844 352 1085.582031 361.941406 C 1080.480469 369.914062 1075.425781 377.96875 1070.796875 386.21875 C 1067.878906 391.308594 1065.433594 396.675781 1063.414062 402.246094 C 1058.644531 415.589844 1052 428.230469 1043.8125 439.78125 C 1037.03125 449.1875 1031.542969 459.609375 1027.707031 470.527344 C 1023.828125 482.753906 1015.949219 491.898438 1006.214844 499.582031 C 998.292969 505.871094 990.492188 512.195312 982.136719 518.074219 C 971.476562 525.617188 959.664062 531.21875 947.027344 534.488281 C 937.640625 536.867188 927.875 536.351562 918.777344 532.914062 C 895.585938 524.886719 875.1875 510.34375 859.984375 490.980469 C 851.640625 480.414062 843.339844 469.933594 835.824219 458.921875 C 830.800781 451.164062 826.3125 443.011719 822.445312 434.628906 C 817.171875 424.015625 812.21875 413.015625 810.726562 401.117188 C 808.984375 387.753906 807.871094 374.371094 806.921875 360.898438 C 806.808594 357.117188 807.28125 353.234375 808.308594 349.589844 C 809.945312 342.519531 811.792969 335.441406 813.894531 328.441406 C 817.679688 315.839844 822.140625 303.304688 829.589844 292.367188 C 836.097656 282.25 846.523438 275.261719 858.308594 272.984375 C 861.773438 272.292969 864.917969 270.601562 867.40625 268.089844 C 871.824219 264.011719 876.808594 260.585938 882.320312 257.941406 C 887.15625 255.238281 891.511719 251.828125 895.386719 247.929688 C 909.109375 234.578125 922.1875 220.613281 932.539062 204.164062 C 943.65625 186.558594 953.832031 168.386719 963.707031 150.058594 C 969.324219 139.675781 975.285156 129.535156 980.855469 119.070312 C 983.046875 115.011719 984.683594 110.714844 986.574219 106.5 C 988.976562 101.046875 992.746094 96.351562 997.429688 92.765625 C 1007.328125 84.992188 1021.433594 85.84375 1030.394531 94.582031 C 1036.429688 101.050781 1041.480469 108.261719 1045.121094 116.230469 Z M 870.175781 269.273438 C 867.585938 272.585938 863.867188 274.796875 859.8125 275.589844 C 847.769531 277.578125 837.265625 284.824219 831.027344 295.433594 C 826.621094 302.714844 822.984375 310.429688 820.28125 318.5 C 816.34375 330.222656 813.34375 342.292969 810.085938 354.289062 C 809.679688 356.109375 809.441406 358.050781 809.625 359.980469 C 810.019531 374.601562 811.546875 389.152344 814.164062 403.539062 C 816.117188 414.125 820.402344 423.878906 825.183594 433.371094 C 828.960938 441.585938 833.359375 449.574219 838.253906 457.296875 C 845.207031 467.648438 853.140625 477.257812 860.671875 487.300781 C 874.011719 504.785156 891.746094 518.734375 912.140625 527.515625 C 923.5625 532.691406 935.566406 534.992188 948.109375 531.34375 C 957.777344 528.5 967.066406 524.359375 975.691406 518.976562 C 987.25 511.910156 997.535156 503.074219 1007.992188 494.359375 C 1015.585938 488.25 1021.4375 480.089844 1024.609375 470.914062 C 1028.878906 459.015625 1034.761719 447.742188 1042.148438 437.476562 C 1050.339844 426.132812 1056.734375 413.625 1061.175781 400.460938 C 1061.875 398.589844 1062.578125 396.71875 1063.40625 394.886719 C 1068.539062 383.804688 1074.613281 373.28125 1081.582031 363.238281 C 1087.945312 353.84375 1092.847656 343.523438 1095.96875 332.664062 C 1099.0625 322.148438 1102.449219 311.785156 1105.75 301.261719 C 1109.523438 289.628906 1111.851562 277.492188 1112.617188 265.230469 C 1113.355469 253.308594 1109.382812 242.742188 1103.953125 232.640625 C 1098.878906 223.203125 1093.394531 213.984375 1088.238281 204.585938 C 1081.292969 191.667969 1074.644531 178.699219 1067.535156 165.871094 C 1059.40625 151.136719 1051.605469 136.226562 1044.585938 120.785156 C 1040.804688 112.359375 1035.652344 104.5625 1029.394531 97.679688 C 1019.746094 87.070312 1006.5 89.601562 998.523438 95.59375 C 993.34375 99.445312 990.4375 104.957031 987.667969 110.714844 C 983.554688 119.328125 979.351562 127.777344 974.894531 136.148438 C 968.640625 147.726562 962.34375 159.222656 955.789062 170.644531 C 942.488281 193.90625 929.621094 217.582031 910.269531 236.730469 C 902.675781 244.230469 895.074219 251.515625 887.300781 258.679688 C 882.921875 262.636719 878.230469 266.011719 873.761719 269.796875 C 872.203125 271.0625 871.3125 270.796875 870.175781 269.273438 Z M 859.414062 300.242188 C 866.613281 296.375 874.464844 294.714844 882.132812 292.515625 C 910.847656 284.234375 937.582031 271.679688 960.414062 252.257812 C 968.242188 245.597656 975.074219 237.871094 978.339844 227.683594 C 979.1875 225.09375 979.738281 222.34375 980.121094 219.683594 C 981.238281 212.039062 983.367188 204.492188 986.390625 197.421875 C 989.027344 191.414062 993.242188 186.164062 998.542969 182.140625 C 1000.796875 180.179688 1003.75 179.128906 1006.777344 179.207031 C 1009.929688 179.117188 1013.007812 179.488281 1016.136719 180.152344 C 1038.449219 185.558594 1058.71875 197.078125 1074.800781 213.515625 C 1080.441406 219.449219 1084.734375 226.640625 1087.15625 234.519531 C 1090.160156 243.683594 1093.835938 252.703125 1094.25 262.402344 C 1094.886719 275.296875 1094.894531 288.207031 1090.9375 300.683594 C 1085.929688 315.96875 1077.480469 330.007812 1066.355469 341.644531 C 1051.777344 357.378906 1037.460938 373.398438 1023.097656 389.332031 C 1015.910156 397.785156 1010.792969 407.902344 1008.296875 418.738281 C 1005.386719 429.589844 1001.875 440.121094 998.539062 450.773438 C 996.273438 458.074219 994.183594 465.492188 991.542969 472.675781 C 989.820312 477.015625 987.632812 481.074219 985.140625 484.976562 C 982.542969 489.464844 977.921875 492.375 972.808594 492.777344 C 969.582031 493.125 966.445312 493.636719 963.207031 493.5625 C 953.292969 493.765625 943.460938 493.925781 933.535156 493.710938 C 915.957031 493.34375 900.808594 487.179688 888.363281 474.339844 C 876.816406 462.1875 865.855469 449.722656 857.308594 435.210938 C 848.265625 419.578125 843.242188 401.894531 842.703125 383.828125 C 842.097656 369.210938 841.867188 354.5 841.558594 339.832031 C 841.355469 333.109375 842.121094 326.398438 843.863281 319.914062 C 844.316406 318.175781 844.046875 316.292969 844.710938 314.550781 C 845.15625 312.601562 846.066406 310.726562 847.410156 309.253906 C 851.050781 305.910156 855.042969 303.019531 858.855469 299.796875 Z M 858.640625 431.933594 C 867.292969 447.242188 879.1875 461.234375 892.441406 474.386719 C 901.757812 483.789062 914.117188 489.527344 927.347656 490.527344 C 941.585938 491.628906 955.960938 491.585938 970.175781 490.457031 C 976.429688 490.191406 981.910156 486.5 984.558594 480.914062 C 988.105469 474.417969 991.007812 467.519531 993.023438 460.355469 C 995.5 451.871094 998.0625 443.34375 1000.625 434.816406 C 1002.191406 429.597656 1004.140625 424.496094 1005.289062 419.289062 C 1007.949219 406.972656 1013.824219 395.492188 1022.203125 386.078125 C 1036.933594 369.835938 1051.789062 353.632812 1066.394531 337.355469 C 1077.660156 324.789062 1086.320312 310.742188 1089.6875 293.992188 C 1093.53125 276.34375 1092.394531 257.957031 1086.503906 240.847656 C 1082.785156 230.355469 1078.539062 220.472656 1070.238281 212.765625 C 1058.039062 201.179688 1043.523438 192.222656 1027.59375 186.589844 C 1021.863281 184.65625 1016.058594 183.183594 1010.097656 182.011719 C 1006.925781 181.265625 1003.539062 181.910156 1000.902344 183.753906 C 996.5 186.867188 992.921875 190.921875 990.328125 195.625 C 986.476562 203.140625 984.03125 211.285156 982.976562 219.640625 C 981.917969 227.789062 978.699219 235.492188 973.683594 242.03125 C 966.171875 252.261719 956.148438 259.996094 945.714844 266.777344 C 925.761719 279.847656 903.902344 289.566406 880.839844 295.664062 C 872.582031 297.757812 864.320312 299.847656 857.191406 304.640625 C 852.125 308.109375 846.59375 311.507812 847.195312 318.976562 C 847.210938 319.394531 847.054688 319.90625 846.941406 320.289062 C 845.15625 326.6875 844.386719 333.1875 844.542969 339.828125 C 844.800781 354.203125 845.0625 368.578125 845.660156 382.984375 C 846.132812 400.128906 850.539062 416.863281 858.640625 431.933594 Z M 882.539062 268.070312 C 882.316406 267.65625 881.515625 267.554688 880.878906 267.363281 C 880.6875 268 880.203125 268.6875 880.261719 269.1875 C 880.363281 269.773438 881.285156 269.707031 882.179688 270.183594 C 882.367188 269.335938 882.761719 268.484375 882.539062 268.070312 Z M 1063.789062 250.171875 C 1069.453125 262.496094 1072.683594 274.847656 1069.5 287.976562 C 1068.175781 292.851562 1066.167969 297.453125 1063.566406 301.734375 C 1057.757812 311.367188 1050.703125 320.066406 1042.488281 327.789062 C 1029.539062 340.40625 1017.894531 354.453125 1007.878906 369.550781 C 1005.710938 372.851562 1003.5 376.277344 1000.984375 379.339844 C 992.710938 389.335938 987.679688 401.003906 983.332031 413.160156 C 980.347656 421.488281 976.847656 429.664062 973.179688 437.71875 C 970.230469 444.535156 964.757812 449.824219 957.949219 452.628906 C 949.644531 456.027344 941.148438 457.28125 932.476562 454.046875 C 921.597656 450.074219 911.285156 445.371094 903.042969 436.777344 C 897.351562 430.550781 893.097656 423.234375 890.421875 415.277344 C 885.65625 402.046875 882.886719 388.164062 882.128906 374.054688 C 881.808594 368.894531 880.984375 363.785156 880.828125 358.535156 C 880.632812 352.023438 880.941406 345.453125 881.121094 338.84375 C 881.199219 337.203125 881.441406 335.472656 881.519531 333.828125 C 881.46875 332.148438 880.488281 330.328125 883.429688 330.242188 C 883.59375 330.152344 883.867188 329.472656 883.980469 329.089844 C 885.703125 323.363281 889.507812 318.542969 894.632812 315.574219 C 899.296875 312.746094 903.429688 308.925781 907.917969 305.769531 C 916.160156 300.269531 924.980469 295.851562 934.25 292.46875 C 941.105469 289.746094 948.0625 287.609375 954.871094 284.800781 C 958.359375 283.355469 961.710938 281.660156 964.804688 279.675781 C 966.292969 278.875 967.5625 277.660156 968.402344 276.25 C 973.6875 264.65625 982.890625 256.1875 990.722656 246.75 C 994.65625 241.96875 998.804688 237.390625 1003.34375 233.136719 C 1010.371094 226.371094 1020.292969 223.601562 1029.816406 225.84375 C 1045.082031 228.847656 1055.90625 238.078125 1063.839844 250.464844 Z M 917.75 302.832031 C 915.808594 303.980469 913.28125 305.234375 911.019531 306.980469 C 905.796875 310.75 901.054688 315.21875 895.390625 318.371094 C 888.273438 322.195312 886.296875 329.234375 884.597656 335.589844 C 882.871094 342.496094 883.472656 349.964844 883.5625 357.277344 C 883.644531 362.785156 884.527344 368.394531 884.941406 373.933594 C 885.648438 387.746094 888.410156 401.417969 893.089844 414.484375 C 895.574219 421.6875 899.34375 428.308594 904.347656 434.050781 C 912.472656 442.8125 922.65625 447.476562 933.488281 451.367188 C 941.4375 454.246094 949.136719 453.097656 956.695312 450.101562 C 964.257812 447.105469 968.710938 441.507812 971.738281 434.4375 C 975.277344 426.347656 978.484375 418.21875 981.515625 409.972656 C 985.59375 398.710938 990.402344 388.015625 997.9375 378.628906 C 1000.289062 375.65625 1002.503906 372.441406 1004.554688 369.308594 C 1015.007812 353.445312 1027.21875 338.664062 1040.777344 325.402344 C 1047.960938 318.335938 1054.457031 310.578125 1060.046875 302.132812 C 1066.980469 292.214844 1069.382812 279.824219 1066.632812 267.960938 C 1062.886719 249.480469 1052.707031 236.492188 1034.773438 229.90625 C 1021.769531 225.15625 1010.589844 227.960938 1001.359375 238.367188 C 997.214844 243.15625 992.941406 247.90625 988.84375 252.777344 C 982.101562 260.667969 974.972656 268.234375 970.378906 277.746094 C 969.425781 279.542969 967.953125 280.972656 966.214844 281.90625 C 961.835938 284.472656 957.363281 286.664062 952.585938 288.484375 C 940.558594 292.496094 928.847656 297.292969 917.457031 302.882812 Z M 947.574219 305.15625 C 954.761719 302.257812 962.027344 299.3125 969.460938 296.277344 C 970.664062 295.738281 971.867188 295.199219 972.941406 294.621094 C 973.273438 294.441406 973.851562 294.132812 973.890625 294.003906 C 973.683594 291.234375 976.253906 291.453125 977.652344 290.488281 C 980.496094 288.636719 983.425781 286.746094 986.136719 284.648438 C 990.484375 281.03125 995.488281 278.234375 1000.894531 276.394531 C 1010.441406 273.71875 1020.554688 277.460938 1026.140625 285.667969 C 1033.007812 296.066406 1031.238281 310.035156 1021.945312 318.339844 C 1013.390625 326.03125 1006.089844 334.867188 998.613281 343.578125 C 993.699219 349.316406 989.003906 355.253906 984.042969 360.910156 C 974.804688 371.101562 968.585938 383.730469 966.171875 397.300781 C 965.140625 403.511719 962.707031 409.300781 959.160156 414.410156 C 954.316406 421.070312 948.28125 423.136719 940.433594 420.632812 C 937.96875 419.820312 935.621094 418.628906 933.601562 417.046875 C 926.859375 412.238281 922.578125 405.46875 918.503906 398.480469 C 912.238281 387.222656 908.503906 374.71875 907.65625 361.832031 C 907.238281 356.292969 908.417969 350.75 911.003906 345.839844 C 913.742188 340.417969 916.398438 335.042969 919.4375 329.78125 C 923.308594 322.898438 929.253906 317.886719 935.375 313.210938 C 939.15625 310.324219 943.285156 307.890625 947.613281 305.03125 Z M 948.910156 307.640625 C 944.667969 310.457031 940.746094 312.882812 937.085938 315.597656 C 931.414062 319.925781 925.921875 324.585938 922.324219 330.789062 C 919.128906 336.351562 916.273438 342.152344 913.375 347.871094 C 910.996094 352.566406 910.101562 357.847656 910.632812 363.007812 C 911.773438 378.617188 917.347656 393.550781 926.59375 406.191406 C 929.5 410.605469 933.390625 414.277344 938.09375 416.875 C 946.195312 420.84375 952.457031 419.398438 957.328125 412.191406 C 958.378906 410.773438 959.257812 409.234375 959.882812 407.617188 C 961.441406 403.578125 962.703125 399.378906 963.757812 395.183594 C 965.894531 383.683594 970.910156 372.980469 978.289062 363.894531 C 981.859375 359.625 985.648438 355.5625 989.132812 351.128906 C 999.425781 338.339844 1009.675781 325.46875 1021.996094 314.46875 C 1025.398438 311.46875 1027.328125 307.121094 1027.234375 302.582031 C 1027.273438 299.679688 1027.019531 296.828125 1026.640625 293.9375 C 1025.179688 284.476562 1012.074219 274.976562 1001.691406 279.0625 C 996.707031 281.101562 992.035156 283.71875 987.804688 286.953125 C 984.84375 289.183594 981.625 291.128906 978.445312 293.15625 C 977.167969 293.949219 975.277344 294.003906 975.339844 296.105469 C 975.390625 296.398438 974.648438 296.800781 974.152344 297.066406 C 972.910156 297.734375 971.585938 298.445312 970.210938 298.863281 C 962.859375 301.851562 955.550781 304.714844 948.738281 307.519531 Z M 948.910156 307.640625 " fill-opacity="1" fill-rule="nonzero"/></g></g></g></svg>