<?xml version="1.0" encoding="UTF-8"?><svg xmlns="http://www.w3.org/2000/svg" xmlns:xlink="http://www.w3.org/1999/xlink" width="1200" zoomAndPan="magnify" viewBox="0 0 1200 299.999988" height="299.999988" preserveAspectRatio="xMidYMid meet" version="1.0"><defs><clipPath id="clip-0"><path d="M 83 0 L 542 0 L 542 181 L 83 181 Z M 83 0 " clip-rule="nonzero"/></clipPath><clipPath id="clip-1"><path d="M 0 -121.769531 L 464.683594 -281.140625 L 590.71875 86.347656 L 126.035156 245.71875 Z M 0 -121.769531 " clip-rule="nonzero"/></clipPath><clipPath id="clip-2"><path d="M 0 -121.769531 L 464.683594 -281.140625 L 590.71875 86.347656 L 126.035156 245.71875 Z M 0 -121.769531 " clip-rule="nonzero"/></clipPath><clipPath id="clip-3"><path d="M 787 180 L 1200 180 L 1200 300 L 787 300 Z M 787 180 " clip-rule="nonzero"/></clipPath><clipPath id="clip-4"><path d="M 704.808594 212.84375 L 1169.488281 53.476562 L 1295.523438 420.964844 L 830.84375 580.332031 Z M 704.808594 212.84375 " clip-rule="nonzero"/></clipPath><clipPath id="clip-5"><path d="M 704.808594 212.84375 L 1169.488281 53.476562 L 1295.523438 420.964844 L 830.84375 580.332031 Z M 704.808594 212.84375 " clip-rule="nonzero"/></clipPath><clipPath id="clip-6"><path d="M 309 0 L 899 0 L 899 225 L 309 225 Z M 309 0 " clip-rule="nonzero"/></clipPath><clipPath id="clip-7"><path d="M 925.859375 -288.722656 L 848.257812 294.136719 L 301.832031 221.382812 L 379.433594 -361.472656 Z M 925.859375 -288.722656 " clip-rule="nonzero"/></clipPath><clipPath id="clip-8"><path d="M 925.859375 -288.722656 L 848.257812 294.136719 L 301.832031 221.382812 L 379.433594 -361.472656 Z M 925.859375 -288.722656 " clip-rule="nonzero"/></clipPath><clipPath id="clip-9"><path d="M 837 0 L 1200 0 L 1200 300 L 837 300 Z M 837 0 " clip-rule="nonzero"/></clipPath><clipPath id="clip-10"><path d="M 1011.476562 770.121094 L 675.203125 287.769531 L 1127.40625 -27.492188 L 1463.683594 454.859375 Z M 1011.476562 770.121094 " clip-rule="nonzero"/></clipPath><clipPath id="clip-11"><path d="M 1011.476562 770.121094 L 675.203125 287.769531 L 1127.40625 -27.492188 L 1463.683594 454.859375 Z M 1011.476562 770.121094 " clip-rule="nonzero"/></clipPath></defs><rect x="-120" width="1440" fill="rgb(100%, 100%, 100%)" y="-29.999999" height="359.999986" fill-opacity="1"/><rect x="-120" width="1440" fill="rgb(100%, 100%, 100%)" y="-29.999999" height="359.999986" fill-opacity="1"/><rect x="-120" width="1440" fill="rgb(78.42865%, 77.249146%, 74.119568%)" y="-29.999999" height="359.999986" fill-opacity="1"/><g clip-path="url(#clip-0)"><g clip-path="url(#clip-1)"><g clip-path="url(#clip-2)"><path fill="rgb(17.649841%, 15.689087%, 12.548828%)" d="M 93.367188 -39.136719 C 69.351562 28.828125 85.523438 125.914062 163.703125 165.949219 C 241.882812 205.984375 329.535156 149.667969 400.757812 137.167969 C 471.980469 124.667969 555.292969 96.09375 540.105469 -3.730469 C 525 -103.585938 476.316406 -113.148438 338.171875 -139.832031 C 200.027344 -166.519531 139.433594 -169.589844 93.367188 -39.136719 Z M 93.367188 -39.136719 " fill-opacity="1" fill-rule="nonzero"/></g></g></g><g clip-path="url(#clip-3)"><g clip-path="url(#clip-4)"><g clip-path="url(#clip-5)"><path fill="rgb(17.649841%, 15.689087%, 12.548828%)" d="M 798.175781 295.476562 C 774.160156 363.445312 790.332031 460.527344 868.511719 500.566406 C 946.691406 540.601562 1034.339844 484.28125 1105.566406 471.78125 C 1176.789062 459.28125 1260.101562 430.707031 1244.910156 330.882812 C 1229.808594 231.027344 1181.125 221.464844 1042.980469 194.78125 C 904.835938 168.097656 844.238281 165.027344 798.175781 295.476562 Z M 798.175781 295.476562 " fill-opacity="1" fill-rule="nonzero"/></g></g></g><g clip-path="url(#clip-6)"><g clip-path="url(#clip-7)"><g clip-path="url(#clip-8)"><path fill="rgb(100%, 100%, 100%)" d="M 312.21875 150.132812 C 315.617188 129.105469 319.332031 107.96875 322.4375 86.902344 C 325.277344 66.703125 327.230469 46.386719 329.925781 26.164062 C 331.652344 13.175781 334.5625 0.347656 335.425781 -12.90625 C 336.792969 -31.050781 339.207031 -49.203125 342.636719 -67.074219 C 345.398438 -82.175781 351.917969 -96.179688 361.589844 -107.960938 C 376.59375 -125.941406 394.121094 -141.480469 413.675781 -154.199219 C 422.75 -160.351562 431.589844 -166.984375 440.042969 -174.121094 C 454.429688 -186.324219 470.730469 -196.023438 488.152344 -202.863281 C 502.09375 -208.367188 516.054688 -214.019531 529.652344 -220.320312 C 538.117188 -224.152344 546.238281 -228.777344 553.992188 -234.054688 C 572.496094 -246.761719 592.75 -256.832031 613.976562 -264.070312 C 631.410156 -269.859375 648.121094 -278.148438 663.175781 -288.613281 C 679.496094 -300.710938 698.097656 -305.144531 717.722656 -305.984375 C 733.726562 -306.707031 749.605469 -307.597656 765.789062 -307.394531 C 786.476562 -307.195312 806.839844 -303.433594 826.101562 -295.910156 C 840.359375 -290.257812 852.425781 -280.539062 860.921875 -267.691406 C 883.253906 -235.878906 895.957031 -198.289062 897.527344 -159.324219 C 898.441406 -138.023438 899.378906 -116.871094 898.820312 -95.765625 C 898.074219 -81.144531 896.277344 -66.511719 893.464844 -52.167969 C 890.398438 -33.648438 886.558594 -14.933594 877.433594 1.726562 C 867.28125 20.5 856.296875 38.71875 845.023438 56.894531 C 841.660156 61.851562 837.453125 66.398438 832.753906 70.128906 C 824.09375 77.6875 815.15625 85.0625 805.964844 92.097656 C 789.417969 104.765625 772.0625 116.726562 752.351562 123.863281 C 734.613281 130.816406 714.742188 130.125 697.496094 122.117188 C 692.40625 119.789062 686.800781 119.042969 681.273438 119.960938 C 671.816406 121.101562 662.238281 120.878906 652.710938 119.160156 C 643.992188 118.148438 635.242188 118.488281 626.648438 119.894531 C 596.640625 124.3125 566.898438 130.117188 538.347656 141.636719 C 507.742188 153.933594 477.824219 167.824219 448.140625 182.199219 C 431.300781 190.320312 414.242188 197.8125 397.378906 206.082031 C 390.800781 209.261719 384.714844 213.257812 378.375 216.921875 C 370.234375 221.695312 361.042969 224.226562 351.699219 224.484375 C 331.78125 225.289062 314.457031 211.113281 311.050781 191.585938 C 309.300781 177.683594 309.503906 163.742188 312.21875 150.132812 Z M 678.816406 115.875 C 685.214844 114.023438 692.039062 114.632812 697.980469 117.375 C 715.292969 125.992188 735.5 126.425781 753.355469 118.589844 C 765.761719 113.332031 777.589844 106.796875 788.542969 98.941406 C 804.46875 87.542969 819.519531 74.828125 834.828125 62.445312 C 837.039062 60.488281 839.144531 58.214844 840.695312 55.566406 C 853.75 36.425781 865.28125 16.332031 875.269531 -4.570312 C 882.574219 -19.972656 886.121094 -36.472656 888.785156 -53.089844 C 891.554688 -67.140625 893.316406 -81.476562 894.1875 -95.933594 C 894.867188 -115.667969 893.585938 -135.367188 893.230469 -155.242188 C 892.3125 -190.0625 882.476562 -224.417969 864.433594 -254.609375 C 854.570312 -271.84375 841.285156 -285.929688 821.796875 -292.878906 C 806.742188 -298.1875 790.972656 -301.488281 774.90625 -302.578125 C 753.511719 -304.222656 732.105469 -302.417969 710.59375 -300.925781 C 695.175781 -300.125 680.09375 -295.074219 667.511719 -286.234375 C 650.992188 -274.914062 632.980469 -265.894531 613.976562 -259.5625 C 592.9375 -252.601562 573.125 -242.472656 555.214844 -229.6875 C 552.578125 -227.933594 549.945312 -226.179688 547.179688 -224.597656 C 530.308594 -215.125 512.75 -207.25 494.484375 -200.820312 C 477.601562 -194.65625 461.734375 -185.953125 447.65625 -174.910156 C 433.929688 -164.269531 419.96875 -154.113281 405.96875 -143.660156 C 390.335938 -132.222656 376.09375 -118.796875 363.734375 -103.769531 C 351.730469 -89.144531 347.03125 -71.894531 344.636719 -53.890625 C 342.394531 -37.0625 340.890625 -20.140625 338.800781 -3.296875 C 335.734375 19.730469 332.246094 42.546875 329.476562 65.609375 C 326.253906 92.066406 322.441406 118.449219 317.132812 144.777344 C 314.175781 159.105469 313.558594 173.894531 315.210938 188.535156 C 317.757812 211.105469 337.121094 220.140625 352.917969 219.839844 C 363.144531 219.699219 371.984375 215.320312 380.882812 210.496094 C 394.152344 203.25 407.386719 196.300781 420.875 189.683594 C 439.644531 180.617188 458.394531 171.699219 477.398438 163.113281 C 516.058594 145.578125 554.539062 127.117188 597.152344 120.476562 C 613.855469 117.890625 630.371094 115.585938 647 113.59375 C 656.289062 112.578125 665.445312 112.59375 674.695312 111.875 C 677.871094 111.695312 678.765625 112.867188 678.816406 115.875 Z M 721.355469 86.089844 C 708.527344 84.382812 696.902344 79.230469 685.015625 74.945312 C 640.464844 58.949219 594.488281 50.273438 547.15625 54.035156 C 530.925781 55.328125 514.988281 58.914062 501.339844 68.964844 C 497.851562 71.503906 494.597656 74.527344 491.636719 77.585938 C 483.113281 86.367188 473.382812 94.082031 462.941406 100.351562 C 453.984375 105.621094 443.699219 108.457031 433.160156 108.707031 C 428.449219 109.128906 423.679688 107.742188 419.867188 104.832031 C 415.734375 102.03125 412.128906 98.695312 408.726562 94.9375 C 385.085938 67.304688 369.746094 33.71875 364.332031 -2.300781 C 362.59375 -15.148438 363.75 -28.363281 367.949219 -40.722656 C 372.585938 -55.273438 376.234375 -70.261719 384.699219 -83.105469 C 395.835938 -100.246094 407.800781 -116.828125 424.453125 -129.179688 C 445.0625 -144.164062 468.933594 -154.351562 494.015625 -158.972656 C 527.324219 -165.65625 560.566406 -172.945312 593.789062 -180.089844 C 610.859375 -184.273438 626.8125 -192.515625 640.066406 -204.117188 C 653.871094 -215.347656 668.144531 -225.613281 682.3125 -236.195312 C 691.988281 -243.46875 701.550781 -251.058594 711.609375 -257.832031 C 717.84375 -261.808594 724.421875 -264.988281 731.234375 -267.683594 C 738.734375 -271.042969 747.367188 -270.492188 754.3125 -266.265625 C 758.773438 -263.71875 763.277344 -261.464844 767.367188 -258.367188 C 780.289062 -249.4375 793.0625 -240.527344 805.609375 -231.046875 C 827.839844 -214.265625 841.578125 -192.308594 845.652344 -164.28125 C 849.203125 -137.972656 851.722656 -111.800781 849.238281 -85.242188 C 846.347656 -56.789062 836.402344 -29.421875 820.339844 -5.726562 C 807.558594 13.601562 794.207031 32.703125 781.003906 51.824219 C 775.027344 60.640625 767.820312 68.542969 759.574219 75.257812 C 757.382812 77.070312 755.976562 79.734375 753.507812 81.359375 C 751.128906 83.445312 748.21875 85.011719 745.132812 85.652344 C 737.355469 86.570312 729.546875 86.582031 721.660156 87.183594 Z M 844.488281 -82.269531 C 847.574219 -109.949219 845.28125 -138.945312 840.460938 -168.125 C 837.210938 -188.835938 826.660156 -207.664062 810.605469 -221.21875 C 793.335938 -235.835938 774.839844 -249.113281 755.539062 -260.84375 C 747.261719 -266.300781 736.800781 -266.644531 728.214844 -261.929688 C 717.636719 -256.878906 707.511719 -250.714844 698.28125 -243.382812 C 687.230469 -234.789062 676.03125 -226.21875 664.832031 -217.644531 C 657.980469 -212.398438 650.746094 -207.652344 644.441406 -202.035156 C 629.605469 -188.6875 611.410156 -179.394531 591.921875 -175.078125 C 557.941406 -167.886719 523.835938 -160.863281 489.984375 -153.503906 C 463.859375 -147.816406 439.714844 -137.816406 419.855469 -119.429688 C 398.550781 -100.335938 382.957031 -75.675781 374.652344 -48.242188 C 369.699219 -31.324219 365.984375 -14.695312 369.496094 2.894531 C 374.414062 29.085938 384.75 54.042969 399.984375 76.050781 C 405.546875 83.851562 411.636719 91.117188 418.203125 98.152344 C 421.585938 102.058594 426.53125 104.367188 431.625 104.445312 C 440.167969 104.53125 448.527344 102.640625 456.214844 99.007812 C 468.128906 92.933594 478.828125 84.742188 487.929688 74.992188 C 496.847656 65.511719 508.125 58.601562 520.628906 54.859375 C 539.761719 48.695312 559.8125 48.058594 579.496094 49.027344 C 617.242188 50.75 654.328125 58.542969 689.597656 72.097656 C 702.144531 77.074219 714.691406 82.050781 728.289062 82.507812 C 738.011719 82.75 748.265625 83.515625 754.421875 73.371094 C 754.792969 72.820312 755.464844 72.308594 755.964844 71.921875 C 764.195312 65.359375 771.214844 57.730469 777.171875 49.0625 C 790.167969 30.363281 803.164062 11.664062 815.757812 -7.386719 C 831.054688 -29.835938 840.914062 -55.410156 844.488281 -82.269531 Z M 661.824219 105.953125 C 661.726562 106.691406 662.660156 107.566406 663.300781 108.402344 C 664.136719 107.761719 665.394531 107.332031 665.789062 106.632812 C 666.199219 105.785156 664.953125 105.019531 664.242188 103.570312 C 663.222656 104.488281 661.921875 105.214844 661.824219 105.953125 Z M 412.46875 -39.152344 C 416.625 -60.226562 423.9375 -79.082031 440.199219 -92.988281 C 446.421875 -98.019531 453.265625 -102.0625 460.582031 -105.144531 C 476.96875 -112.125 494.097656 -116.753906 511.816406 -119.050781 C 540.140625 -123.242188 568.121094 -130.480469 594.984375 -140.574219 C 600.832031 -142.800781 606.851562 -145.152344 612.914062 -146.75 C 632.816406 -151.910156 650.101562 -162.226562 666.949219 -173.800781 C 678.511719 -181.726562 690.585938 -188.980469 702.765625 -195.921875 C 712.875 -201.933594 724.808594 -203.652344 736.15625 -200.9375 C 749.972656 -197.597656 762.046875 -191.332031 770.179688 -179.136719 C 780.464844 -163.945312 789.34375 -148.34375 791.960938 -129.671875 C 793.496094 -116.398438 792.167969 -103.054688 788.226562 -90.363281 C 782.074219 -68.949219 772.757812 -48.5625 760.644531 -29.746094 C 756.269531 -22.816406 752.59375 -15.496094 747.925781 -8.609375 C 742.132812 -0.0664062 735.644531 8.082031 729.285156 16.398438 C 727.664062 18.4375 725.746094 20.433594 724.125 22.472656 C 722.628906 24.675781 722.195312 27.921875 718.34375 25.304688 C 718.046875 25.265625 717.0625 25.886719 716.5625 26.269531 C 709.042969 32.027344 699.683594 34.6875 690.351562 33.746094 C 681.738281 33.050781 672.890625 34.125 664.199219 34.019531 C 648.515625 33.433594 633.089844 30.929688 618.046875 26.671875 C 606.71875 23.8125 595.804688 20.105469 584.457031 17.394531 C 578.636719 16.019531 572.757812 15.085938 566.945312 14.761719 C 564.292969 14.410156 561.539062 14.792969 559.148438 15.828125 C 541.609375 25.808594 521.9375 28.148438 503.128906 33.003906 C 493.640625 35.496094 484.0625 37.523438 474.289062 38.777344 C 458.992188 40.945312 443.683594 35.300781 433.535156 23.585938 C 416.71875 5.578125 411.378906 -16.3125 412.675781 -39.574219 Z M 648.847656 28.671875 C 652.410156 28.996094 656.8125 29.730469 661.335938 29.582031 C 671.542969 29.589844 681.777344 28.25 691.972656 29.457031 C 704.65625 31.144531 713.722656 23.941406 721.800781 17.355469 C 730.425781 10.089844 736.578125 -0.0546875 743.242188 -9.53125 C 748.246094 -16.675781 752.316406 -24.695312 756.917969 -32.195312 C 768.824219 -50.585938 777.957031 -70.699219 784.070312 -91.816406 C 787.558594 -103.371094 788.855469 -115.363281 787.753906 -127.375 C 785.449219 -146.160156 776.699219 -161.59375 766.394531 -176.632812 C 758.859375 -187.703125 747.90625 -193.367188 735.417969 -196.53125 C 722.933594 -199.695312 712.019531 -196.640625 701.578125 -190.371094 C 689.523438 -183.265625 677.875 -175.800781 666.332031 -168.027344 C 650.652344 -157.347656 634.554688 -148.074219 616.171875 -143.011719 C 610.398438 -141.375 604.570312 -139.296875 599.035156 -137.179688 C 570.894531 -126.507812 541.507812 -118.855469 511.796875 -114.398438 C 496.015625 -111.992188 480.480469 -108.054688 465.46875 -102.390625 C 447.367188 -96.089844 432.789062 -82.410156 425.316406 -64.628906 C 412.988281 -37.429688 414.015625 -11.304688 430.9375 13.777344 C 443.230469 31.9375 460.191406 38.703125 481.695312 33.90625 C 491.457031 31.597656 501.347656 29.460938 511.128906 27.007812 C 527.105469 23.128906 543.28125 20.023438 558 12.070312 C 560.890625 10.652344 564.105469 10.179688 567.203125 10.589844 C 575.203125 11.355469 582.980469 12.691406 590.808594 14.785156 C 609.972656 20.792969 629.460938 25.488281 649.273438 28.878906 Z M 612.703125 -1.976562 C 600.785156 -4.914062 588.722656 -7.875 576.363281 -10.871094 C 574.316406 -11.292969 572.273438 -11.714844 570.355469 -11.972656 C 569.765625 -12.050781 568.734375 -12.1875 568.566406 -12.058594 C 566.265625 -8.308594 563.167969 -10.976562 560.472656 -11.035156 C 555.105469 -11.296875 549.589844 -11.582031 544.164062 -11.402344 C 535.226562 -10.789062 526.210938 -11.839844 517.558594 -14.496094 C 502.816406 -19.910156 493.300781 -34.097656 493.738281 -49.808594 C 494.5625 -69.527344 509.792969 -85.824219 529.425781 -87.867188 C 547.546875 -89.8125 565.117188 -94.382812 582.792969 -98.636719 C 594.425781 -101.445312 605.96875 -104.714844 617.582031 -107.375 C 638.894531 -111.898438 658.597656 -122.339844 674.277344 -137.527344 C 681.367188 -144.542969 689.863281 -149.722656 699.152344 -152.992188 C 711.550781 -157.050781 721.214844 -154.109375 728.976562 -143.613281 C 731.382812 -140.289062 733.292969 -136.582031 734.421875 -132.675781 C 738.621094 -120.25 737.835938 -107.585938 736.589844 -94.832031 C 734.191406 -74.574219 727.390625 -55.050781 716.527344 -37.722656 C 711.925781 -30.222656 705.269531 -24.199219 697.394531 -20.292969 C 688.851562 -15.871094 680.457031 -11.433594 671.675781 -7.492188 C 660.320312 -2.246094 648.039062 -1.328125 635.839844 -1 C 628.308594 -0.800781 620.746094 -1.507812 612.535156 -1.847656 Z M 613.292969 -6.40625 C 621.355469 -6.082031 628.640625 -5.5625 635.859375 -5.652344 C 647.15625 -5.953125 658.53125 -6.839844 668.902344 -11.46875 C 678.164062 -15.640625 687.210938 -20.445312 696.234375 -25.101562 C 703.648438 -28.921875 709.695312 -34.875 713.792969 -41.992188 C 726.808594 -63.089844 733.503906 -87.433594 733.351562 -112.238281 C 733.714844 -120.601562 732.121094 -128.925781 728.492188 -136.617188 C 721.765625 -149.230469 712.386719 -153.183594 699.449219 -148.445312 C 696.785156 -147.597656 694.226562 -146.4375 691.925781 -144.941406 C 686.175781 -141.199219 680.660156 -136.976562 675.421875 -132.570312 C 662.011719 -119.785156 645.640625 -110.699219 627.738281 -105.871094 C 619.191406 -103.703125 610.558594 -102 601.976562 -99.539062 C 576.894531 -92.664062 551.796875 -85.640625 525.769531 -82.945312 C 518.621094 -82.246094 512.113281 -78.457031 508.023438 -72.542969 C 505.28125 -68.851562 502.960938 -64.953125 500.769531 -60.890625 C 493.867188 -47.390625 501.882812 -23.039062 519.011719 -18.65625 C 527.300781 -16.652344 535.726562 -15.679688 544.164062 -15.910156 C 550.03125 -16.027344 555.972656 -15.539062 561.929688 -15.195312 C 564.308594 -15.027344 566.785156 -13.347656 568.652344 -16.101562 C 568.859375 -16.527344 570.1875 -16.347656 571.074219 -16.230469 C 573.285156 -15.9375 575.644531 -15.621094 577.796875 -14.886719 C 590.011719 -11.90625 602.054688 -8.800781 613.402344 -6.089844 Z M 613.292969 -6.40625 " fill-opacity="1" fill-rule="nonzero"/></g></g></g><g clip-path="url(#clip-9)"><g clip-path="url(#clip-10)"><g clip-path="url(#clip-11)"><path fill="rgb(100%, 100%, 100%)" d="M 1167.847656 32.082031 C 1179.539062 49.890625 1191.066406 67.988281 1203 85.625 C 1214.542969 102.441406 1226.820312 118.75 1238.484375 135.484375 C 1245.980469 146.234375 1252.496094 157.660156 1260.808594 168.023438 C 1272.050781 182.328125 1282.523438 197.351562 1292.058594 212.847656 C 1300.21875 225.855469 1304.863281 240.582031 1305.683594 255.804688 C 1306.753906 279.199219 1304.316406 302.496094 1298.480469 325.082031 C 1295.9375 335.746094 1293.898438 346.605469 1292.476562 357.578125 C 1290.109375 376.292969 1284.628906 394.449219 1276.398438 411.261719 C 1269.832031 424.734375 1263.347656 438.328125 1257.570312 452.15625 C 1253.914062 460.699219 1251.046875 469.59375 1248.886719 478.722656 C 1243.816406 500.589844 1235.675781 521.691406 1224.902344 541.363281 C 1215.953125 557.40625 1209.222656 574.804688 1205.183594 592.683594 C 1201.308594 612.625 1190.582031 628.457031 1176.671875 642.328125 C 1165.351562 653.667969 1154.242188 665.042969 1142.164062 675.824219 C 1126.769531 689.640625 1109.207031 700.613281 1089.921875 708.070312 C 1075.585938 713.527344 1060.125 714.503906 1045.183594 710.761719 C 1007.234375 702.371094 972.480469 683.222656 945.019531 655.539062 C 929.960938 640.441406 914.988281 625.46875 901.148438 609.523438 C 891.828125 598.234375 883.277344 586.226562 875.664062 573.746094 C 865.421875 558.019531 855.621094 541.617188 851.101562 523.167969 C 845.917969 502.460938 841.71875 481.613281 837.765625 460.589844 C 836.898438 454.660156 836.929688 448.46875 837.878906 442.542969 C 839.164062 431.117188 840.78125 419.648438 842.808594 408.25 C 846.460938 387.734375 851.1875 367.195312 860.910156 348.621094 C 869.300781 331.515625 884.425781 318.613281 902.554688 312.871094 C 907.882812 311.152344 912.519531 307.917969 915.980469 303.511719 C 922.183594 296.28125 929.398438 289.980469 937.585938 284.816406 C 944.703125 279.675781 950.929688 273.519531 956.320312 266.675781 C 975.472656 243.160156 993.492188 218.796875 1006.777344 191.023438 C 1021.050781 161.289062 1033.742188 130.839844 1045.933594 100.199219 C 1052.875 82.835938 1060.398438 65.792969 1067.253906 48.308594 C 1069.957031 41.519531 1071.75 34.464844 1073.953125 27.480469 C 1076.734375 18.460938 1081.808594 10.390625 1088.523438 3.890625 C 1102.675781 -10.148438 1125.027344 -11.390625 1140.722656 0.71875 C 1151.402344 9.789062 1160.664062 20.210938 1167.847656 32.082031 Z M 920.546875 304.863281 C 917.078125 310.550781 911.632812 314.710938 905.398438 316.695312 C 886.8125 322.03125 871.609375 335.351562 863.730469 353.1875 C 858.128906 365.441406 853.816406 378.25 851.042969 391.4375 C 846.988281 410.601562 844.46875 430.144531 841.539062 449.613281 C 841.230469 452.550781 841.210938 455.648438 841.851562 458.648438 C 845.144531 481.582031 850.207031 504.191406 856.949219 526.351562 C 861.960938 542.644531 870.484375 557.210938 879.738281 571.269531 C 887.183594 583.503906 895.5625 595.269531 904.679688 606.519531 C 917.503906 621.535156 931.75 635.203125 945.429688 649.625 C 969.617188 674.691406 1000.066406 693.390625 1033.761719 703.480469 C 1052.671875 709.535156 1071.984375 710.957031 1091.050781 702.925781 C 1105.742188 696.679688 1119.601562 688.464844 1132.1875 678.421875 C 1149.082031 665.191406 1163.652344 649.40625 1178.515625 633.78125 C 1189.347656 622.78125 1197.0625 608.875 1200.375 593.855469 C 1204.917969 574.355469 1212.117188 555.542969 1221.859375 538.039062 C 1232.679688 518.699219 1240.457031 497.851562 1245.035156 476.324219 C 1245.796875 473.253906 1246.558594 470.179688 1247.527344 467.148438 C 1253.578125 448.769531 1261.210938 431.105469 1270.347656 414.027344 C 1278.636719 398.082031 1284.46875 380.949219 1287.398438 363.300781 C 1290.339844 346.183594 1293.777344 329.265625 1297.046875 312.101562 C 1300.855469 293.109375 1302.300781 273.589844 1301.273438 254.160156 C 1300.253906 235.269531 1292.074219 219.371094 1281.683594 204.472656 C 1271.976562 190.546875 1261.660156 177.046875 1251.828125 163.210938 C 1238.546875 144.15625 1225.714844 124.96875 1212.183594 106.082031 C 1196.699219 84.390625 1181.699219 62.355469 1167.839844 39.351562 C 1160.347656 26.785156 1150.820312 15.457031 1139.714844 5.777344 C 1122.597656 -9.152344 1102.214844 -2.746094 1090.761719 8.140625 C 1083.3125 15.148438 1079.75 24.347656 1076.445312 33.914062 C 1071.542969 48.21875 1066.476562 62.28125 1060.992188 76.269531 C 1053.269531 95.628906 1045.460938 114.867188 1037.238281 134.03125 C 1020.558594 173.066406 1004.632812 212.664062 977.6875 246.335938 C 967.105469 259.519531 956.480469 272.371094 945.5625 285.066406 C 939.394531 292.089844 932.628906 298.257812 926.289062 305.035156 C 924.066406 307.3125 922.617188 307.050781 920.546875 304.863281 Z M 909.277344 355.558594 C 919.894531 348.15625 931.949219 344.109375 943.609375 339.246094 C 987.273438 320.964844 1027.046875 296.324219 1059.421875 261.59375 C 1070.523438 249.679688 1079.859375 236.273438 1083.140625 219.644531 C 1084 215.417969 1084.359375 210.988281 1084.476562 206.734375 C 1084.835938 194.503906 1086.804688 182.238281 1090.273438 170.566406 C 1093.328125 160.632812 1098.996094 151.597656 1106.605469 144.296875 C 1109.792969 140.804688 1114.246094 138.605469 1119.027344 138.179688 C 1123.964844 137.457031 1128.878906 137.480469 1133.925781 137.957031 C 1170.019531 142.378906 1204.011719 156.796875 1232.320312 179.714844 C 1242.28125 188.015625 1250.347656 198.546875 1255.597656 210.496094 C 1262 224.367188 1269.425781 237.882812 1271.855469 253.070312 C 1275.210938 273.234375 1277.582031 293.546875 1273.636719 313.902344 C 1268.550781 338.867188 1257.820312 362.5 1242.441406 382.84375 C 1222.378906 410.261719 1202.777344 438.082031 1183.09375 465.78125 C 1173.328125 480.394531 1167.121094 497.246094 1165.179688 514.753906 C 1162.582031 532.359375 1158.980469 549.570312 1155.675781 566.9375 C 1153.449219 578.835938 1151.515625 590.894531 1148.667969 602.679688 C 1146.753906 609.820312 1144.050781 616.609375 1140.847656 623.199219 C 1137.578125 630.738281 1130.839844 636.164062 1122.863281 637.730469 C 1117.851562 638.867188 1113.007812 640.246094 1107.902344 640.722656 C 1092.339844 642.855469 1076.902344 644.90625 1061.246094 646.382812 C 1033.515625 649.015625 1008.558594 642.09375 986.628906 624.167969 C 966.246094 607.160156 946.71875 589.554688 930.621094 568.285156 C 913.539062 545.34375 902.402344 518.441406 898.253906 490.117188 C 894.628906 467.230469 891.582031 444.125 888.410156 421.109375 C 886.867188 410.566406 886.847656 399.871094 888.398438 389.351562 C 888.792969 386.535156 888.03125 383.621094 888.753906 380.753906 C 889.101562 377.609375 890.191406 374.488281 892.035156 371.933594 C 897.152344 366.007812 902.90625 360.726562 908.316406 354.957031 Z M 932.117188 562.886719 C 948.527344 585.386719 969.796875 605.226562 993.054688 623.5 C 1009.433594 636.585938 1029.929688 643.351562 1050.925781 642.507812 C 1073.53125 641.632812 1096.136719 638.9375 1118.296875 634.5625 C 1128.089844 633 1136.039062 626.1875 1139.1875 616.914062 C 1143.578125 606.046875 1146.890625 594.664062 1148.75 583.019531 C 1151.097656 569.222656 1153.570312 555.335938 1156.042969 541.453125 C 1157.554688 532.957031 1159.691406 524.570312 1160.546875 516.171875 C 1162.476562 496.308594 1169.628906 477.167969 1181.089844 460.828125 C 1201.300781 432.582031 1221.714844 404.371094 1241.71875 376.085938 C 1257.152344 354.253906 1268.210938 330.574219 1270.445312 303.601562 C 1273.269531 275.132812 1268.121094 246.414062 1255.726562 220.570312 C 1247.960938 204.75 1239.472656 189.972656 1225.007812 179.367188 C 1203.695312 163.367188 1179.21875 151.9375 1153.125 145.988281 C 1143.753906 143.992188 1134.355469 142.738281 1124.761719 141.984375 C 1119.628906 141.386719 1114.421875 143.023438 1110.613281 146.402344 C 1104.25 152.109375 1099.363281 159.144531 1096.144531 167.015625 C 1091.457031 179.542969 1089.09375 192.804688 1088.964844 206.148438 C 1088.785156 219.160156 1085.132812 231.871094 1078.433594 243.074219 C 1068.480469 260.539062 1054.121094 274.542969 1038.949219 287.117188 C 1009.941406 311.332031 977.324219 330.625 942.152344 344.4375 C 929.539062 349.238281 916.921875 354.039062 906.582031 362.878906 C 899.246094 369.265625 891.164062 375.625 893.476562 387.265625 C 893.570312 387.925781 893.425781 388.753906 893.3125 389.375 C 891.675781 399.773438 891.648438 410.140625 893.105469 420.558594 C 896.144531 443.125 899.179688 465.691406 902.753906 488.25 C 906.625 515.136719 916.621094 540.65625 932.117188 562.886719 Z M 939.78125 300.710938 C 939.355469 300.101562 938.074219 300.085938 937.039062 299.902344 C 936.855469 300.9375 936.21875 302.105469 936.402344 302.886719 C 936.667969 303.789062 938.105469 303.511719 939.605469 304.101562 C 939.742188 302.738281 940.207031 301.324219 939.78125 300.710938 Z M 1221.695312 239.394531 C 1232.855469 257.75 1240.191406 276.597656 1237.585938 297.835938 C 1236.390625 305.746094 1234.074219 313.351562 1230.757812 320.5625 C 1223.382812 336.777344 1213.875 351.753906 1202.355469 365.414062 C 1184.289062 387.628906 1168.535156 411.859375 1155.535156 437.441406 C 1152.722656 443.03125 1149.871094 448.828125 1146.476562 454.101562 C 1135.28125 471.34375 1129.496094 490.625 1124.878906 510.542969 C 1121.703125 524.191406 1117.695312 537.695312 1113.394531 551.039062 C 1110 562.300781 1102.351562 571.625 1092.148438 577.285156 C 1079.703125 584.144531 1066.566406 587.675781 1052.332031 584.167969 C 1034.492188 579.910156 1017.40625 574.394531 1002.867188 562.386719 C 992.773438 553.632812 984.746094 542.894531 979.082031 530.871094 C 969.164062 510.921875 962.273438 489.589844 958.503906 467.53125 C 957.054688 459.46875 954.820312 451.585938 953.617188 443.351562 C 952.121094 433.140625 951.40625 422.75 950.480469 412.320312 C 950.304688 409.722656 950.367188 406.953125 950.191406 404.355469 C 949.804688 401.722656 947.929688 399.035156 952.539062 398.363281 C 952.785156 398.191406 953.089844 397.070312 953.203125 396.449219 C 954.863281 387.125 959.972656 378.84375 967.488281 373.238281 C 974.3125 367.9375 980.117188 361.167969 986.597656 355.378906 C 998.5625 345.222656 1011.632812 336.652344 1025.605469 329.636719 C 1035.890625 324.097656 1046.445312 319.464844 1056.644531 313.804688 C 1061.867188 310.890625 1066.835938 307.609375 1071.339844 303.921875 C 1073.535156 302.390625 1075.308594 300.25 1076.371094 297.875 C 1082.570312 278.667969 1095.507812 263.660156 1106.101562 247.378906 C 1111.417969 239.136719 1117.113281 231.171875 1123.476562 223.652344 C 1133.296875 211.722656 1148.398438 205.550781 1163.796875 207.339844 C 1188.359375 209.273438 1207.078125 221.816406 1221.828125 239.847656 Z M 1001.53125 348.960938 C 998.6875 351.125 994.941406 353.554688 991.703125 356.71875 C 984.171875 363.605469 977.527344 371.503906 969.191406 377.496094 C 958.695312 384.816406 956.871094 396.25 955.355469 406.5625 C 953.898438 417.742188 956.210938 429.382812 957.691406 440.875 C 958.824219 449.523438 961.238281 458.1875 962.90625 466.824219 C 966.542969 488.429688 973.386719 509.433594 983.132812 529.136719 C 988.359375 540.015625 995.5 549.738281 1004.421875 557.855469 C 1018.800781 570.15625 1035.679688 575.632812 1053.4375 579.769531 C 1066.464844 582.847656 1078.371094 579.632812 1089.71875 573.535156 C 1101.066406 567.4375 1107.054688 557.816406 1110.523438 546.144531 C 1114.617188 532.761719 1118.171875 519.390625 1121.4375 505.863281 C 1125.792969 487.398438 1131.40625 469.691406 1141.550781 453.542969 C 1144.703125 448.441406 1147.601562 442.972656 1150.257812 437.671875 C 1163.804688 410.800781 1180.316406 385.3125 1199.226562 361.964844 C 1209.246094 349.539062 1218.042969 336.144531 1225.296875 321.832031 C 1234.394531 304.960938 1235.910156 285.027344 1229.417969 266.863281 C 1220.148438 238.476562 1201.753906 219.902344 1172.332031 212.824219 C 1151.003906 207.726562 1133.925781 214.1875 1121.304688 232.242188 C 1115.660156 240.535156 1109.804688 248.789062 1104.246094 257.207031 C 1095.082031 270.855469 1085.246094 284.066406 1079.757812 299.867188 C 1078.582031 302.867188 1076.53125 305.386719 1073.96875 307.171875 C 1067.546875 312.011719 1060.910156 316.277344 1053.722656 320.015625 C 1035.53125 328.523438 1017.984375 338.21875 1001.078125 349.09375 Z M 1048.886719 347.164062 C 1059.664062 341.285156 1070.558594 335.324219 1081.699219 329.191406 C 1083.492188 328.121094 1085.289062 327.050781 1086.875 325.945312 C 1087.363281 325.605469 1088.21875 325.007812 1088.253906 324.800781 C 1087.417969 320.484375 1091.503906 320.359375 1093.53125 318.582031 C 1097.667969 315.152344 1101.929688 311.636719 1105.8125 307.84375 C 1111.992188 301.355469 1119.351562 296.042969 1127.527344 292.160156 C 1142.054688 286.203125 1158.65625 290.242188 1168.9375 302.128906 C 1181.644531 317.230469 1181.414062 339.535156 1168.308594 354.300781 C 1156.253906 367.96875 1146.378906 383.199219 1136.210938 398.277344 C 1129.527344 408.199219 1123.21875 418.40625 1116.449219 428.207031 C 1103.78125 445.933594 1096.296875 466.941406 1094.984375 488.730469 C 1094.492188 498.691406 1091.722656 508.246094 1087.074219 516.933594 C 1080.667969 528.296875 1071.554688 532.652344 1058.746094 530.148438 C 1054.722656 529.320312 1050.8125 527.875 1047.339844 525.757812 C 1035.851562 519.425781 1027.882812 509.554688 1020.195312 499.304688 C 1008.285156 482.742188 1000.121094 463.75 996.433594 443.632812 C 994.765625 434.992188 995.609375 426.054688 998.777344 417.855469 C 1002.097656 408.828125 1005.292969 399.882812 1009.109375 391.050781 C 1013.945312 379.511719 1022.382812 370.542969 1031.160156 362.0625 C 1036.582031 356.832031 1042.636719 352.25 1048.925781 346.957031 Z M 1051.441406 350.828125 C 1045.277344 356.035156 1039.550781 360.570312 1034.289062 365.511719 C 1026.15625 373.355469 1018.367188 381.691406 1013.839844 392.109375 C 1009.824219 401.441406 1006.394531 411.09375 1002.882812 420.621094 C 999.992188 428.445312 999.554688 436.917969 1001.332031 444.933594 C 1005.976562 469.285156 1017.472656 491.761719 1034.332031 509.960938 C 1039.710938 516.375 1046.503906 521.4375 1054.375 524.664062 C 1067.855469 529.425781 1077.441406 526.007812 1083.789062 513.777344 C 1085.183594 511.355469 1086.285156 508.773438 1086.96875 506.113281 C 1088.6875 499.472656 1089.90625 492.632812 1090.792969 485.84375 C 1092.054688 467.359375 1097.996094 449.601562 1107.945312 433.957031 C 1112.78125 426.589844 1118 419.503906 1122.667969 411.890625 C 1136.53125 389.886719 1150.304688 367.757812 1167.683594 348.199219 C 1172.484375 342.859375 1174.726562 335.667969 1173.75 328.542969 C 1173.28125 323.96875 1172.363281 319.527344 1171.234375 315.050781 C 1167.210938 300.433594 1144.859375 287.882812 1129.261719 296.210938 C 1121.796875 300.328125 1114.921875 305.300781 1108.855469 311.167969 C 1104.605469 315.21875 1099.894531 318.867188 1095.265625 322.636719 C 1093.398438 324.117188 1090.4375 324.550781 1090.917969 327.84375 C 1091.050781 328.296875 1089.953125 329.0625 1089.222656 329.574219 C 1087.390625 330.847656 1085.4375 332.210938 1083.351562 333.121094 C 1072.332031 339.167969 1061.351562 345.011719 1051.148438 350.667969 Z M 1051.441406 350.828125 " fill-opacity="1" fill-rule="nonzero"/></g></g></g></svg>