<?xml version="1.0" encoding="UTF-8"?><svg xmlns="http://www.w3.org/2000/svg" xmlns:xlink="http://www.w3.org/1999/xlink" width="1200" zoomAndPan="magnify" viewBox="0 0 1200 299.999988" height="299.999988" preserveAspectRatio="xMidYMid meet" version="1.0"><defs><clipPath id="clip-0"><path d="M 810 147 L 1200 147 L 1200 300 L 810 300 Z M 810 147 " clip-rule="nonzero"/></clipPath><clipPath id="clip-1"><path d="M 1393.4375 484.09375 L 883.386719 639.671875 L 760.191406 235.792969 L 1270.242188 80.214844 Z M 1393.4375 484.09375 " clip-rule="nonzero"/></clipPath><clipPath id="clip-2"><path d="M 1393.4375 484.09375 L 883.386719 639.671875 L 760.191406 235.792969 L 1270.242188 80.214844 Z M 1393.4375 484.09375 " clip-rule="nonzero"/></clipPath><clipPath id="clip-3"><path d="M 177 0 L 676 0 L 676 110 L 177 110 Z M 177 0 " clip-rule="nonzero"/></clipPath><clipPath id="clip-4"><path d="M 760.050781 82.203125 L 250 237.78125 L 126.808594 -166.097656 L 636.855469 -321.675781 Z M 760.050781 82.203125 " clip-rule="nonzero"/></clipPath><clipPath id="clip-5"><path d="M 760.050781 82.203125 L 250 237.78125 L 126.808594 -166.097656 L 636.855469 -321.675781 Z M 760.050781 82.203125 " clip-rule="nonzero"/></clipPath><clipPath id="clip-6"><path d="M 476 127 L 1055 127 L 1055 300 L 476 300 Z M 476 127 " clip-rule="nonzero"/></clipPath><clipPath id="clip-7"><path d="M 1094.460938 417.21875 L 670.875 639.789062 L 462.257812 242.761719 L 885.84375 20.191406 Z M 1094.460938 417.21875 " clip-rule="nonzero"/></clipPath><clipPath id="clip-8"><path d="M 1094.460938 417.21875 L 670.875 639.789062 L 462.257812 242.761719 L 885.84375 20.191406 Z M 1094.460938 417.21875 " clip-rule="nonzero"/></clipPath><clipPath id="clip-9"><path d="M 0 0 L 477 0 L 477 119 L 0 119 Z M 0 0 " clip-rule="nonzero"/></clipPath><clipPath id="clip-10"><path d="M -115.34375 53.683594 L 80.996094 -382.679688 L 490 -198.648438 L 293.660156 237.714844 Z M -115.34375 53.683594 " clip-rule="nonzero"/></clipPath><clipPath id="clip-11"><path d="M -115.34375 53.683594 L 80.996094 -382.679688 L 490 -198.648438 L 293.660156 237.714844 Z M -115.34375 53.683594 " clip-rule="nonzero"/></clipPath></defs><rect x="-120" width="1440" fill="rgb(100%, 100%, 100%)" y="-29.999999" height="359.999986" fill-opacity="1"/><rect x="-120" width="1440" fill="rgb(100%, 100%, 100%)" y="-29.999999" height="359.999986" fill-opacity="1"/><rect x="-120" width="1440" fill="rgb(0%, 0%, 0%)" y="-29.999999" height="359.999986" fill-opacity="1"/><g clip-path="url(#clip-0)"><g clip-path="url(#clip-1)"><g clip-path="url(#clip-2)"><path fill="rgb(100%, 100%, 100%)" d="M 1295.1875 390.824219 C 1323.75 317.910156 1309.78125 211.859375 1226.433594 165.429688 C 1143.085938 119 1045.910156 176.867188 968.167969 187.757812 C 890.429688 198.652344 798.980469 226.546875 811.78125 335.539062 C 824.488281 444.558594 876.953125 456.78125 1025.859375 490.96875 C 1174.761719 525.15625 1240.394531 530.773438 1295.1875 390.824219 Z M 1295.1875 390.824219 " fill-opacity="1" fill-rule="nonzero"/></g></g></g><g clip-path="url(#clip-3)"><g clip-path="url(#clip-4)"><g clip-path="url(#clip-5)"><path fill="rgb(100%, 100%, 100%)" d="M 661.800781 -11.066406 C 690.363281 -83.980469 676.398438 -190.03125 593.050781 -236.460938 C 509.699219 -282.890625 412.523438 -225.023438 334.785156 -214.132812 C 257.046875 -203.238281 165.597656 -175.34375 178.394531 -66.351562 C 191.101562 42.667969 243.570312 54.890625 392.472656 89.078125 C 541.375 123.265625 607.007812 128.882812 661.800781 -11.066406 Z M 661.800781 -11.066406 " fill-opacity="1" fill-rule="nonzero"/></g></g></g><g clip-path="url(#clip-6)"><g clip-path="url(#clip-7)"><g clip-path="url(#clip-8)"><path fill="rgb(77.648926%, 74.508667%, 68.629456%)" d="M 514.460938 216.152344 C 530.027344 208.523438 545.808594 201.050781 561.261719 193.203125 C 576.011719 185.589844 590.425781 177.332031 605.121094 169.609375 C 614.558594 164.652344 624.449219 160.546875 633.65625 154.890625 C 646.347656 147.261719 659.542969 140.332031 673.023438 134.207031 C 684.351562 128.9375 696.714844 126.679688 709.089844 127.5625 C 728.085938 129.066406 746.648438 133.398438 764.289062 140.402344 C 772.640625 143.53125 781.203125 146.28125 789.917969 148.539062 C 804.789062 152.351562 818.890625 158.613281 831.628906 166.964844 C 841.839844 173.632812 852.15625 180.246094 862.734375 186.308594 C 869.261719 190.128906 876.152344 193.34375 883.300781 196.015625 C 900.441406 202.324219 916.65625 211.035156 931.441406 221.726562 C 943.484375 230.578125 956.847656 237.777344 970.875 242.851562 C 986.582031 247.996094 998.273438 258.265625 1008.0625 270.898438 C 1016.066406 281.1875 1024.125 291.3125 1031.601562 302.152344 C 1041.195312 315.980469 1048.269531 331.273438 1052.332031 347.597656 C 1055.28125 359.722656 1054.5 372.304688 1049.964844 383.988281 C 1039.335938 413.777344 1020.34375 439.890625 995.203125 459.253906 C 981.488281 469.878906 967.878906 480.449219 953.597656 490.003906 C 943.539062 496.382812 932.976562 502.070312 922.125 506.953125 C 908.386719 513.625 894.148438 519.875 878.792969 521.652344 C 861.550781 523.738281 844.289062 525.015625 826.914062 526.074219 C 822.039062 526.175781 817.042969 525.519531 812.355469 524.152344 C 803.261719 521.957031 794.164062 519.488281 785.167969 516.695312 C 768.972656 511.667969 752.871094 505.769531 738.863281 496.039062 C 725.90625 487.53125 717.023438 474.011719 714.226562 458.796875 C 713.382812 454.316406 711.242188 450.246094 708.035156 447.007812 C 702.828125 441.265625 698.472656 434.800781 695.136719 427.667969 C 691.707031 421.402344 687.367188 415.75 682.390625 410.707031 C 665.347656 392.859375 647.507812 375.839844 626.433594 362.300781 C 603.875 347.761719 580.578125 334.429688 557.078125 321.480469 C 543.765625 314.117188 530.765625 306.316406 517.347656 299.007812 C 512.140625 296.136719 506.625 293.976562 501.210938 291.488281 C 494.214844 288.328125 488.210938 283.414062 483.644531 277.335938 C 473.746094 264.484375 475.011719 246.316406 486.382812 234.871094 C 494.792969 227.171875 504.148438 220.75 514.460938 216.152344 Z M 709.589844 443.457031 C 713.828125 446.835938 716.632812 451.652344 717.605469 456.882812 C 720.023438 472.433594 729.234375 486.054688 742.835938 494.222656 C 752.160156 499.988281 762.0625 504.769531 772.429688 508.347656 C 787.488281 513.5625 803.011719 517.574219 818.433594 521.917969 C 820.773438 522.464844 823.273438 522.792969 825.761719 522.578125 C 844.613281 522.246094 863.382812 520.453125 881.957031 517.253906 C 895.621094 514.859375 908.25 509.457031 920.539062 503.410156 C 931.171875 498.640625 941.519531 493.066406 951.53125 486.851562 C 964.957031 478.019531 977.4375 467.90625 990.472656 458.324219 C 1013.164062 441.339844 1031.355469 418.652344 1042.921875 392.472656 C 1049.734375 377.816406 1052.839844 362.375 1048.292969 346.164062 C 1044.742188 333.671875 1039.519531 321.648438 1032.6875 310.46875 C 1023.71875 295.492188 1012.457031 282.128906 1001.351562 268.546875 C 993.570312 258.6875 983.121094 251.046875 971.335938 246.847656 C 956.050781 241.207031 941.589844 233.488281 928.449219 223.84375 C 913.933594 213.148438 897.890625 204.757812 880.976562 198.878906 C 878.574219 197.953125 876.167969 197.027344 873.816406 195.9375 C 859.597656 189.191406 846.109375 181.234375 833.25 172.128906 C 821.214844 163.820312 807.976562 157.375 794.019531 153.222656 C 780.5 149.113281 767.191406 144.621094 753.664062 140.238281 C 738.71875 135.238281 723.105469 132.09375 707.3125 130.957031 C 691.957031 129.863281 678.292969 134.855469 665.207031 141.730469 C 652.976562 148.15625 641.03125 155.117188 628.859375 161.648438 C 612.125 170.441406 595.332031 178.855469 578.710938 187.863281 C 559.625 198.164062 540.3125 208.039062 520.328125 216.898438 C 509.421875 221.671875 499.3125 228.214844 490.363281 236.199219 C 476.574219 248.503906 479.675781 265.609375 487.304688 275.960938 C 492.207031 282.683594 499.269531 286.492188 506.660156 290.128906 C 517.710938 295.535156 528.550781 301.054688 539.285156 306.898438 C 554.132812 315.097656 568.871094 323.351562 583.511719 331.933594 C 613.332031 349.355469 643.6875 366.226562 668.136719 391.394531 C 677.707031 401.269531 687.003906 411.152344 696.144531 421.257812 C 701.191406 426.945312 705.484375 433.03125 710.3125 438.835938 C 711.921875 440.863281 711.566406 442.007812 709.589844 443.457031 Z M 749.375 457.695312 C 744.476562 448.371094 742.433594 438.230469 739.691406 428.324219 C 729.367188 391.21875 713.507812 356.613281 688.753906 326.957031 C 680.261719 316.785156 670.386719 307.890625 657.296875 303.554688 C 653.96875 302.433594 650.433594 301.691406 647.007812 301.167969 C 637.167969 299.636719 627.46875 296.800781 618.394531 292.820312 C 610.683594 289.347656 603.964844 283.855469 598.84375 276.972656 C 596.347656 274.046875 595.023438 270.226562 595.164062 266.324219 C 595.085938 262.265625 595.601562 258.300781 596.496094 254.273438 C 603.734375 225.585938 618.828125 199.605469 640.203125 179.070312 C 647.917969 171.875 657.242188 166.429688 667.421875 163.402344 C 679.269531 159.640625 690.9375 155.011719 703.445312 154.59375 C 720.066406 153.925781 736.707031 154.074219 752.742188 159.324219 C 772.382812 165.960938 790.375 177.019531 805.238281 191.496094 C 825.335938 210.472656 845.808594 229.117188 866.171875 247.816406 C 876.980469 257.179688 889.957031 263.902344 903.894531 267.242188 C 917.84375 271.125 931.375 275.777344 945.0625 280.207031 C 954.441406 283.210938 963.980469 285.992188 973.207031 289.488281 C 978.777344 291.753906 983.984375 294.628906 988.980469 297.882812 C 994.734375 301.285156 998.429688 307.273438 998.886719 313.871094 C 999.292969 318.035156 999.914062 322.082031 999.78125 326.257812 C 999.925781 339.035156 1000.011719 351.707031 999.617188 364.496094 C 998.925781 387.148438 990.804688 406.59375 974.101562 422.480469 C 958.300781 437.210938 942.101562 451.191406 923.296875 462.03125 C 903.039062 473.496094 880.1875 479.757812 856.894531 480.238281 C 838.050781 480.839844 819.085938 480.960938 800.179688 481.183594 C 791.511719 481.363281 782.875 480.292969 774.539062 477.972656 C 772.304688 477.371094 769.875 477.691406 767.636719 476.816406 C 765.128906 476.21875 762.722656 475.023438 760.84375 473.273438 C 756.578125 468.539062 752.902344 463.363281 748.792969 458.410156 Z M 919.089844 460.277344 C 938.921875 449.308594 957.101562 434.148438 974.214844 417.226562 C 986.441406 405.332031 993.988281 389.46875 995.4375 372.433594 C 997.027344 354.097656 997.148438 335.570312 995.863281 317.238281 C 995.597656 309.175781 990.902344 302.066406 983.738281 298.585938 C 975.40625 293.9375 966.554688 290.109375 957.34375 287.429688 C 946.441406 284.132812 935.480469 280.730469 924.523438 277.328125 C 917.816406 275.242188 911.261719 272.671875 904.566406 271.128906 C 888.726562 267.554688 873.996094 259.839844 861.96875 248.933594 C 841.214844 229.753906 820.511719 210.410156 799.707031 191.394531 C 783.648438 176.722656 765.652344 165.394531 744.101562 160.855469 C 721.402344 155.6875 697.695312 156.933594 675.570312 164.320312 C 662.003906 168.984375 649.214844 174.339844 639.183594 184.941406 C 624.101562 200.523438 612.382812 219.125 604.933594 239.585938 C 602.367188 246.949219 600.402344 254.410156 598.820312 262.078125 C 597.816406 266.164062 598.609375 270.53125 600.949219 273.949219 C 604.910156 279.664062 610.097656 284.324219 616.125 287.71875 C 625.761719 292.777344 636.230469 296.027344 646.988281 297.484375 C 657.476562 298.949219 667.367188 303.1875 675.734375 309.730469 C 688.824219 319.535156 698.671875 332.546875 707.285156 346.074219 C 723.890625 371.945312 736.15625 400.234375 743.734375 430.027344 C 746.328125 440.699219 748.925781 451.367188 755.015625 460.613281 C 759.425781 467.183594 763.738281 474.351562 773.371094 473.664062 C 773.914062 473.65625 774.566406 473.859375 775.058594 474.011719 C 783.285156 476.386719 791.652344 477.460938 800.210938 477.339844 C 818.742188 477.175781 837.269531 477.011719 855.84375 476.414062 C 877.945312 476.015625 899.566406 470.53125 919.089844 460.277344 Z M 708.191406 427.507812 C 707.65625 427.789062 707.511719 428.820312 707.257812 429.640625 C 708.074219 429.894531 708.957031 430.523438 709.605469 430.457031 C 710.359375 430.332031 710.28125 429.144531 710.910156 427.992188 C 709.820312 427.746094 708.726562 427.226562 708.191406 427.507812 Z M 687.3125 193.703125 C 703.265625 186.550781 719.226562 182.539062 736.109375 186.796875 C 742.375 188.5625 748.277344 191.203125 753.765625 194.613281 C 766.109375 202.210938 777.234375 211.40625 787.09375 222.089844 C 803.195312 238.929688 821.160156 254.101562 840.492188 267.191406 C 844.722656 270.027344 849.113281 272.917969 853.023438 276.195312 C 865.808594 286.980469 880.789062 293.605469 896.398438 299.351562 C 907.097656 303.300781 917.59375 307.90625 927.929688 312.730469 C 936.679688 316.613281 943.429688 323.730469 946.964844 332.539062 C 951.238281 343.285156 952.757812 354.246094 948.480469 365.382812 C 943.230469 379.355469 937.042969 392.589844 925.871094 403.109375 C 917.777344 410.367188 908.292969 415.761719 898.007812 419.113281 C 880.894531 425.097656 862.972656 428.5 844.78125 429.304688 C 838.121094 429.660156 831.53125 430.660156 824.761719 430.800781 C 816.363281 430.972656 807.902344 430.496094 799.386719 430.183594 C 797.273438 430.066406 795.042969 429.730469 792.929688 429.613281 C 790.761719 429.65625 788.402344 430.898438 788.328125 427.109375 C 788.214844 426.894531 787.339844 426.53125 786.851562 426.378906 C 779.488281 424.09375 773.320312 419.128906 769.558594 412.492188 C 765.972656 406.445312 761.097656 401.074219 757.082031 395.253906 C 750.097656 384.566406 744.507812 373.144531 740.257812 361.15625 C 736.832031 352.289062 734.164062 343.300781 730.628906 334.492188 C 728.804688 329.980469 726.660156 325.636719 724.140625 321.625 C 723.128906 319.695312 721.578125 318.050781 719.769531 316.949219 C 704.890625 310 694.089844 298.035156 682.019531 287.828125 C 675.902344 282.703125 670.054688 277.296875 664.625 271.398438 C 655.992188 262.261719 652.542969 249.441406 655.550781 237.195312 C 659.605469 217.558594 671.632812 203.71875 687.691406 193.640625 Z M 753.417969 382.546875 C 754.875 385.0625 756.457031 388.335938 758.683594 391.269531 C 763.476562 398.046875 769.179688 404.214844 773.171875 411.550781 C 778.015625 420.765625 787.0625 423.398438 795.234375 425.667969 C 804.113281 427.976562 813.746094 427.289062 823.171875 427.257812 C 830.273438 427.222656 837.511719 426.152344 844.65625 425.679688 C 862.46875 424.933594 880.121094 421.539062 897.019531 415.667969 C 906.332031 412.554688 914.910156 407.773438 922.367188 401.390625 C 933.761719 391.03125 939.894531 377.960938 945.039062 364.046875 C 948.847656 353.839844 947.460938 343.902344 943.6875 334.125 C 939.917969 324.34375 932.761719 318.535156 923.6875 314.550781 C 913.296875 309.890625 902.863281 305.664062 892.273438 301.65625 C 877.808594 296.265625 864.082031 289.941406 852.074219 280.113281 C 848.273438 277.050781 844.152344 274.15625 840.144531 271.476562 C 819.824219 257.8125 800.921875 241.898438 783.992188 224.265625 C 774.976562 214.917969 765.054688 206.457031 754.234375 199.152344 C 741.539062 190.097656 725.597656 186.851562 710.273438 190.253906 C 686.414062 194.859375 669.546875 207.824219 660.84375 230.855469 C 654.5625 247.558594 658.046875 262 671.34375 274.023438 C 677.464844 279.421875 683.535156 284.980469 689.765625 290.324219 C 699.855469 299.109375 709.519531 308.386719 721.722656 314.417969 C 724.023438 315.671875 725.851562 317.582031 727.03125 319.832031 C 730.289062 325.507812 733.058594 331.300781 735.347656 337.480469 C 740.371094 353.03125 746.414062 368.179688 753.476562 382.925781 Z M 756.773438 344.136719 C 753.125 334.839844 749.414062 325.441406 745.59375 315.824219 C 744.914062 314.265625 744.234375 312.710938 743.5 311.316406 C 743.273438 310.890625 742.882812 310.140625 742.71875 310.089844 C 739.144531 310.324219 739.460938 307.011719 738.230469 305.199219 C 735.882812 301.507812 733.476562 297.714844 730.808594 294.195312 C 726.199219 288.546875 722.65625 282.066406 720.351562 275.074219 C 717.015625 262.738281 721.960938 249.75 732.605469 242.652344 C 746.089844 233.925781 764.074219 236.375 774.664062 248.449219 C 784.472656 259.566406 795.769531 269.085938 806.910156 278.820312 C 814.242188 285.222656 821.839844 291.347656 829.066406 297.808594 C 842.09375 309.835938 858.296875 318.003906 875.753906 321.273438 C 883.746094 322.679688 891.179688 325.886719 897.71875 330.519531 C 906.246094 336.84375 908.835938 344.640625 905.515625 354.730469 C 904.4375 357.890625 902.875 360.902344 900.8125 363.492188 C 894.535156 372.121094 885.753906 377.554688 876.699219 382.726562 C 862.117188 390.660156 845.953125 395.324219 829.335938 396.261719 C 822.191406 396.734375 815.0625 395.148438 808.761719 391.757812 C 801.808594 388.160156 794.914062 384.675781 788.167969 380.699219 C 779.34375 375.625 772.960938 367.902344 767.003906 359.957031 C 763.332031 355.050781 760.246094 349.695312 756.613281 344.085938 Z M 759.992188 342.445312 C 763.570312 347.949219 766.652344 353.03125 770.105469 357.78125 C 775.613281 365.140625 781.554688 372.277344 789.503906 376.988281 C 796.632812 381.171875 804.074219 384.921875 811.410156 388.722656 C 817.433594 391.847656 824.230469 393.0625 830.882812 392.4375 C 851.015625 391.160156 870.332031 384.15625 886.734375 372.390625 C 892.460938 368.699219 897.238281 363.726562 900.640625 357.699219 C 905.855469 347.300781 904.070312 339.214844 894.839844 332.851562 C 893.023438 331.480469 891.050781 330.332031 888.976562 329.507812 C 883.789062 327.445312 878.390625 325.769531 872.996094 324.363281 C 858.199219 321.472656 844.46875 314.875 832.84375 305.257812 C 827.390625 300.605469 822.199219 295.675781 816.527344 291.132812 C 800.167969 277.714844 783.699219 264.347656 769.675781 248.335938 C 765.847656 243.917969 760.269531 241.378906 754.421875 241.445312 C 750.679688 241.359375 747 241.652344 743.269531 242.109375 C 731.058594 243.875 718.65625 260.648438 723.796875 274.082031 C 726.363281 280.527344 729.679688 286.582031 733.800781 292.074219 C 736.640625 295.914062 739.105469 300.089844 741.679688 304.207031 C 742.6875 305.863281 742.738281 308.300781 745.445312 308.246094 C 745.824219 308.183594 746.328125 309.148438 746.667969 309.789062 C 747.511719 311.398438 748.414062 313.113281 748.9375 314.886719 C 752.699219 324.398438 756.300781 333.855469 759.835938 342.664062 Z M 759.992188 342.445312 " fill-opacity="1" fill-rule="nonzero"/></g></g></g><g clip-path="url(#clip-9)"><g clip-path="url(#clip-10)"><g clip-path="url(#clip-11)"><path fill="rgb(77.648926%, 74.508667%, 68.629456%)" d="M 465.296875 -145.515625 C 457.746094 -129.914062 449.925781 -114.300781 442.59375 -98.597656 C 435.671875 -83.511719 429.414062 -68.125 422.601562 -52.984375 C 418.226562 -43.261719 412.96875 -33.933594 409.207031 -23.804688 C 403.914062 -9.972656 397.796875 3.617188 390.957031 16.75 C 385.285156 27.882812 376.941406 37.28125 366.65625 44.214844 C 350.769531 54.738281 333.480469 62.769531 315.273438 68.128906 C 306.765625 70.8125 298.328125 73.925781 290.074219 77.519531 C 276.019531 83.683594 261.050781 87.445312 245.875 88.722656 C 233.726562 89.765625 221.523438 90.921875 209.457031 92.664062 C 201.964844 93.679688 194.554688 95.394531 187.28125 97.699219 C 169.894531 103.296875 151.757812 106.429688 133.523438 107.128906 C 118.585938 107.582031 103.625 110.152344 89.453125 114.800781 C 73.910156 120.433594 58.375 119.554688 42.882812 115.636719 C 30.234375 112.472656 17.648438 109.46875 5.082031 105.539062 C -10.996094 100.5625 -25.996094 92.886719 -39.257812 82.53125 C -49.054688 74.804688 -56.191406 64.414062 -59.820312 52.417969 C -69.816406 22.410156 -70.957031 -9.859375 -63.097656 -40.601562 C -58.847656 -57.425781 -54.648438 -74.136719 -49.292969 -90.460938 C -45.304688 -101.6875 -40.492188 -112.675781 -34.957031 -123.207031 C -28.25 -136.929688 -20.894531 -150.628906 -9.898438 -161.492188 C 2.394531 -173.765625 15.199219 -185.410156 28.226562 -196.953125 C 32.003906 -200.039062 36.34375 -202.601562 40.875 -204.414062 C 49.386719 -208.292969 58.074219 -211.957031 66.878906 -215.300781 C 82.730469 -221.324219 99.042969 -226.605469 116.074219 -227.578125 C 131.523438 -228.867188 146.851562 -223.699219 158.429688 -213.4375 C 161.855469 -210.433594 166.050781 -208.546875 170.574219 -207.976562 C 178.210938 -206.664062 185.625 -204.257812 192.652344 -200.699219 C 199.214844 -197.878906 206.113281 -196.101562 213.140625 -195.199219 C 237.5625 -191.652344 262.101562 -189.246094 287.042969 -191.574219 C 313.765625 -194.035156 340.328125 -197.894531 366.816406 -202.1875 C 381.835938 -204.59375 396.882812 -206.460938 411.953125 -208.980469 C 417.820312 -209.929688 423.496094 -211.625 429.292969 -213.003906 C 436.753906 -214.832031 444.507812 -214.660156 451.851562 -212.6875 C 467.566406 -208.671875 477.769531 -193.585938 475.867188 -177.566406 C 473.992188 -166.316406 470.585938 -155.496094 465.296875 -145.515625 Z M 171.539062 -204.21875 C 166.117188 -204.265625 160.9375 -206.332031 156.949219 -209.851562 C 145.457031 -220.601562 129.808594 -225.652344 114.066406 -223.699219 C 103.167969 -222.492188 92.425781 -220.152344 82.054688 -216.578125 C 66.984375 -211.402344 52.285156 -204.996094 37.46875 -198.90625 C 35.285156 -197.894531 33.117188 -196.613281 31.289062 -194.910156 C 16.648438 -183.027344 2.976562 -170.046875 -9.679688 -156.078125 C -18.964844 -145.773438 -25.574219 -133.734375 -31.523438 -121.394531 C -36.960938 -111.085938 -41.671875 -100.316406 -45.722656 -89.253906 C -50.847656 -74.019531 -54.441406 -58.363281 -58.796875 -42.785156 C -66.199219 -15.421875 -66.539062 13.65625 -59.507812 41.398438 C -55.835938 57.136719 -48.765625 71.210938 -35.191406 81.171875 C -24.695312 88.820312 -13.171875 95.066406 -0.902344 99.660156 C 15.394531 105.925781 32.5 109.503906 49.617188 113.355469 C 61.820312 116.320312 74.757812 115.894531 86.625 111.9375 C 102.140625 106.957031 118.285156 104.125 134.574219 103.613281 C 152.597656 103.089844 170.402344 99.804688 187.347656 94.011719 C 189.808594 93.257812 192.273438 92.507812 194.792969 91.914062 C 210.152344 88.460938 225.675781 86.410156 241.417969 85.652344 C 256.011719 84.78125 270.410156 81.691406 283.960938 76.363281 C 297.136719 71.261719 310.390625 66.597656 323.738281 61.707031 C 338.589844 56.433594 352.824219 49.285156 365.960938 40.445312 C 378.726562 31.839844 386.410156 19.484375 392.472656 6.003906 C 398.140625 -6.589844 403.257812 -19.4375 408.816406 -32.082031 C 416.570312 -49.320312 424.609375 -66.296875 432.144531 -83.636719 C 440.824219 -103.515625 449.945312 -123.195312 460.21875 -142.488281 C 465.863281 -152.96875 469.792969 -164.355469 471.914062 -176.15625 C 475.191406 -194.347656 462.203125 -205.902344 449.816406 -209.351562 C 441.8125 -211.621094 433.902344 -210.265625 425.84375 -208.578125 C 413.804688 -206.023438 401.871094 -203.6875 389.8125 -201.671875 C 373.070312 -198.972656 356.375 -196.386719 339.558594 -194.121094 C 305.335938 -189.457031 271.035156 -184.03125 236.269531 -188.777344 C 222.648438 -190.65625 209.234375 -192.707031 195.808594 -195.027344 C 188.328125 -196.398438 181.195312 -198.542969 173.816406 -200.136719 C 171.300781 -200.738281 170.875 -201.859375 171.539062 -204.21875 Z M 131.433594 -190.90625 C 141.035156 -186.585938 148.894531 -179.859375 157.164062 -173.75 C 188.164062 -150.898438 221.984375 -133.421875 259.757812 -125.328125 C 272.710938 -122.554688 285.972656 -121.636719 298.953125 -126.292969 C 302.265625 -127.460938 305.503906 -129.058594 308.523438 -130.753906 C 317.214844 -135.613281 326.601562 -139.363281 336.203125 -141.820312 C 344.410156 -143.839844 353.089844 -143.65625 361.363281 -141.394531 C 365.132812 -140.628906 368.527344 -138.433594 370.824219 -135.277344 C 373.390625 -132.128906 375.425781 -128.6875 377.203125 -124.964844 C 389.191406 -97.914062 393.320312 -68.152344 389.144531 -38.808594 C 387.507812 -28.382812 383.523438 -18.351562 377.371094 -9.691406 C 370.363281 0.574219 364.027344 11.40625 354.433594 19.449219 C 341.757812 30.21875 328.566406 40.363281 312.703125 46.113281 C 293.148438 52.992188 272.164062 55.375 251.535156 53.136719 C 224.011719 50.582031 196.398438 48.523438 168.835938 46.351562 C 154.554688 45.640625 140.195312 48.347656 127.160156 54.304688 C 113.78125 59.847656 100.261719 64.523438 86.75 69.472656 C 77.515625 72.890625 68.289062 76.578125 58.871094 79.515625 C 53.082031 81.164062 47.214844 82.113281 41.273438 82.628906 C 34.644531 83.496094 28.042969 81.058594 23.617188 76.144531 C 20.730469 73.117188 17.746094 70.3125 15.277344 66.945312 C 7.289062 56.972656 -0.589844 47.046875 -8.164062 36.734375 C -21.582031 18.472656 -27.171875 -1.847656 -23.816406 -24.652344 C -20.453125 -45.992188 -16.316406 -66.984375 -8.1875 -87.113281 C 0.695312 -108.625 14.828125 -127.644531 32.871094 -142.378906 C 47.339844 -154.472656 62.199219 -166.253906 76.949219 -178.085938 C 83.664062 -183.570312 91.121094 -188.050781 99.117188 -191.363281 C 101.246094 -192.265625 102.964844 -194.015625 105.265625 -194.707031 C 107.609375 -195.78125 110.242188 -196.324219 112.796875 -196.101562 C 119.074219 -195.007812 125.164062 -193.195312 131.449219 -191.828125 Z M -3.792969 -88.324219 C -12.652344 -67.460938 -17.621094 -44.320312 -20.664062 -20.445312 C -22.960938 -3.542969 -19.125 13.597656 -9.765625 27.90625 C 0.289062 43.324219 11.609375 57.988281 23.921875 71.632812 C 29.105469 77.816406 37.179688 80.519531 44.96875 78.84375 C 54.394531 77.371094 63.722656 74.925781 72.628906 71.359375 C 83.246094 67.234375 93.972656 63.15625 104.699219 59.082031 C 111.265625 56.589844 118.011719 54.574219 124.234375 51.660156 C 138.910156 44.710938 155.261719 41.707031 171.457031 42.882812 C 199.625 45.191406 227.847656 47.660156 255.953125 49.808594 C 277.640625 51.460938 298.796875 49.289062 318.5625 39.582031 C 339.621094 29.65625 357.523438 14.0625 370.390625 -5.394531 C 378.195312 -17.425781 384.96875 -29.527344 386.328125 -44.0625 C 388.601562 -65.628906 386.359375 -87.496094 379.617188 -108.203125 C 377.09375 -115.582031 374.042969 -122.667969 370.5625 -129.679688 C 368.835938 -133.511719 365.519531 -136.46875 361.566406 -137.714844 C 354.925781 -139.773438 347.972656 -140.246094 341.132812 -139.203125 C 330.425781 -137.242188 320.179688 -133.351562 310.808594 -127.867188 C 301.648438 -122.554688 291.25 -119.792969 280.628906 -119.789062 C 264.277344 -119.441406 248.5 -123.617188 233.378906 -128.957031 C 204.359375 -139.09375 177.261719 -153.808594 152.929688 -172.597656 C 144.308594 -179.398438 135.6875 -186.203125 125.195312 -189.726562 C 117.671875 -192.183594 109.855469 -195.167969 102.691406 -188.691406 C 102.273438 -188.347656 101.632812 -188.105469 101.152344 -187.921875 C 93.207031 -184.722656 85.957031 -180.410156 79.292969 -175.039062 C 64.804688 -163.488281 50.316406 -151.9375 36.058594 -140.015625 C 18.902344 -126.078125 5.253906 -108.433594 -3.792969 -88.324219 Z M 182.46875 -192.523438 C 182.71875 -193.074219 182.195312 -193.976562 181.890625 -194.777344 C 181.089844 -194.472656 180.007812 -194.429688 179.539062 -193.976562 C 179.019531 -193.410156 179.8125 -192.523438 180.027344 -191.230469 C 181.039062 -191.707031 182.222656 -191.972656 182.46875 -192.523438 Z M 343.03125 -21.289062 C 334.878906 -5.828125 324.78125 7.171875 308.867188 14.226562 C 302.84375 16.695312 296.566406 18.257812 290.144531 18.957031 C 275.742188 20.578125 261.3125 20.199219 246.964844 17.863281 C 223.90625 14.527344 200.40625 13.65625 177.113281 15.265625 C 172.035156 15.636719 166.796875 16.070312 161.695312 15.902344 C 144.980469 15.289062 129.101562 19.304688 113.269531 24.40625 C 102.410156 27.890625 91.304688 30.734375 80.191406 33.304688 C 70.914062 35.640625 61.207031 34.199219 52.996094 29.4375 C 43.003906 23.617188 35.050781 15.917969 31.554688 4.511719 C 27.078125 -9.726562 23.792969 -23.960938 26.105469 -39.128906 C 28 -49.835938 32.144531 -59.929688 38.175781 -68.90625 C 47.964844 -84.167969 59.980469 -97.894531 73.808594 -109.742188 C 78.832031 -114.125 83.40625 -118.976562 88.648438 -123.261719 C 95.15625 -128.570312 102.113281 -133.414062 109.007812 -138.414062 C 110.75 -139.625 112.707031 -140.738281 114.449219 -141.949219 C 116.125 -143.316406 117.21875 -145.75 119.613281 -142.8125 C 119.835938 -142.710938 120.746094 -142.964844 121.226562 -143.148438 C 128.433594 -145.886719 136.347656 -145.777344 143.402344 -142.871094 C 149.953125 -140.320312 157.101562 -139.097656 163.855469 -136.988281 C 175.941406 -132.878906 187.382812 -127.332031 198.117188 -120.507812 C 206.28125 -115.640625 213.925781 -110.207031 222.140625 -105.449219 C 226.355469 -103.019531 230.722656 -100.921875 235.175781 -99.316406 C 237.164062 -98.421875 239.398438 -98.082031 241.503906 -98.332031 C 257.5 -102.027344 273.382812 -99.265625 289.175781 -98.671875 C 297.152344 -98.402344 305.09375 -97.753906 313.003906 -96.453125 C 325.433594 -94.582031 336.050781 -86.613281 341.230469 -75.113281 C 350.140625 -57.15625 349.203125 -38.84375 342.773438 -21.007812 Z M 174.570312 -129.242188 C 171.871094 -130.324219 168.609375 -131.925781 165.050781 -132.863281 C 157.097656 -135.246094 148.804688 -136.585938 141.136719 -139.902344 C 131.644531 -144.175781 122.898438 -140.667969 115.0625 -137.417969 C 106.648438 -133.761719 99.488281 -127.285156 92.082031 -121.449219 C 86.515625 -117.046875 81.476562 -111.742188 76.140625 -106.964844 C 62.574219 -95.398438 50.765625 -81.84375 41.078125 -66.804688 C 35.667969 -58.609375 31.859375 -49.5625 29.917969 -39.9375 C 27.335938 -24.757812 30.5625 -10.683594 35.089844 3.445312 C 38.382812 13.828125 45.601562 20.796875 54.597656 26.175781 C 63.59375 31.550781 72.8125 31.714844 82.414062 29.257812 C 93.464844 26.523438 104.289062 23.421875 115.097656 20.046875 C 129.808594 15.371094 144.519531 11.890625 160.03125 12.230469 C 164.910156 12.296875 169.9375 12.035156 174.746094 11.675781 C 199.171875 9.910156 223.863281 10.789062 248.0625 14.238281 C 260.925781 16.039062 273.953125 16.585938 286.976562 15.667969 C 302.554688 14.972656 317.109375 7.703125 327.078125 -4.421875 C 343.027344 -22.753906 348.316406 -43.359375 340.96875 -66.863281 C 335.621094 -83.886719 323.976562 -93.109375 306.09375 -94.378906 C 297.949219 -94.855469 289.738281 -95.496094 281.542969 -95.863281 C 268.183594 -96.558594 254.851562 -97.90625 241.523438 -95.132812 C 238.941406 -94.699219 236.324219 -95.082031 234.003906 -96.125 C 227.945312 -98.585938 222.191406 -101.4375 216.578125 -104.894531 C 203.042969 -114.042969 188.945312 -122.246094 174.289062 -129.503906 Z M 195.605469 -96.925781 C 204.210938 -91.859375 212.925781 -86.742188 221.859375 -81.523438 C 223.355469 -80.71875 224.851562 -79.914062 226.289062 -79.269531 C 226.730469 -79.070312 227.503906 -78.722656 227.664062 -78.78125 C 230.328125 -81.167969 232.121094 -78.371094 234.210938 -77.695312 C 238.332031 -76.238281 242.566406 -74.734375 246.839844 -73.609375 C 253.949219 -72.003906 260.730469 -69.085938 266.859375 -65 C 277.085938 -57.339844 281.199219 -44.0625 277.191406 -31.914062 C 271.953125 -16.734375 256.285156 -7.574219 240.503906 -10.554688 C 225.925781 -13.261719 211.164062 -13.792969 196.390625 -14.59375 C 186.667969 -15.113281 176.910156 -15.253906 167.238281 -15.886719 C 149.566406 -17.324219 131.773438 -13.773438 116.011719 -5.585938 C 108.847656 -1.765625 101.019531 0.292969 93.015625 0.675781 C 82.40625 0.953125 75.554688 -3.589844 71.953125 -13.582031 C 70.851562 -16.738281 70.230469 -20.074219 70.257812 -23.382812 C 69.878906 -34.046875 73.445312 -43.738281 77.386719 -53.390625 C 83.980469 -68.628906 93.832031 -82.265625 106.339844 -93.246094 C 111.671875 -98.019531 118.265625 -101.164062 125.316406 -102.378906 C 133.007812 -103.835938 140.585938 -105.339844 148.347656 -106.363281 C 158.421875 -107.8125 168.210938 -105.664062 177.796875 -103.078125 C 183.714844 -101.480469 189.445312 -99.167969 195.765625 -96.988281 Z M 194.113281 -93.613281 C 187.902344 -95.742188 182.34375 -97.84375 176.699219 -99.453125 C 167.824219 -101.855469 158.746094 -103.8125 149.582031 -102.621094 C 141.390625 -101.523438 133.21875 -99.886719 125.097656 -98.355469 C 118.429688 -97.105469 112.328125 -93.871094 107.476562 -89.28125 C 92.410156 -75.863281 81.519531 -58.441406 75.855469 -39.066406 C 73.621094 -32.628906 72.925781 -25.769531 73.960938 -18.925781 C 76.265625 -7.523438 82.65625 -2.257812 93.84375 -2.9375 C 96.121094 -2.976562 98.382812 -3.285156 100.523438 -3.917969 C 105.878906 -5.492188 111.164062 -7.5 116.277344 -9.71875 C 129.710938 -16.5625 144.589844 -19.832031 159.671875 -19.421875 C 166.835938 -19.121094 173.960938 -18.441406 181.226562 -18.359375 C 202.382812 -17.875 223.585938 -17.503906 244.5 -13.539062 C 250.234375 -12.421875 256.191406 -13.859375 260.757812 -17.519531 C 263.757812 -19.757812 266.476562 -22.253906 269.132812 -24.914062 C 277.65625 -33.832031 277.085938 -54.683594 264.753906 -62.09375 C 258.761719 -65.585938 252.417969 -68.308594 245.789062 -70.09375 C 241.183594 -71.367188 236.667969 -73.136719 232.105469 -74.789062 C 230.289062 -75.472656 228.75 -77.363281 226.652344 -75.648438 C 226.390625 -75.367188 225.398438 -75.816406 224.734375 -76.113281 C 223.078125 -76.859375 221.3125 -77.652344 219.804688 -78.730469 C 210.980469 -83.894531 202.316406 -89.125 194.101562 -93.882812 Z M 194.113281 -93.613281 " fill-opacity="1" fill-rule="nonzero"/></g></g></g></svg>