<?xml version="1.0" encoding="UTF-8"?><svg xmlns="http://www.w3.org/2000/svg" xmlns:xlink="http://www.w3.org/1999/xlink" width="1200" zoomAndPan="magnify" viewBox="0 0 1200 299.999988" height="299.999988" preserveAspectRatio="xMidYMid meet" version="1.0"><defs><clipPath id="clip-0"><path d="M 810 147 L 1200 147 L 1200 300 L 810 300 Z M 810 147 " clip-rule="nonzero"/></clipPath><clipPath id="clip-1"><path d="M 1393.4375 484.09375 L 883.386719 639.671875 L 760.191406 235.792969 L 1270.242188 80.214844 Z M 1393.4375 484.09375 " clip-rule="nonzero"/></clipPath><clipPath id="clip-2"><path d="M 1393.4375 484.09375 L 883.386719 639.671875 L 760.191406 235.792969 L 1270.242188 80.214844 Z M 1393.4375 484.09375 " clip-rule="nonzero"/></clipPath><clipPath id="clip-3"><path d="M 0 0 L 404 0 L 404 152 L 0 152 Z M 0 0 " clip-rule="nonzero"/></clipPath><clipPath id="clip-4"><path d="M 488.535156 123.960938 L -21.515625 279.539062 L -144.710938 -124.339844 L 365.339844 -279.917969 Z M 488.535156 123.960938 " clip-rule="nonzero"/></clipPath><clipPath id="clip-5"><path d="M 488.535156 123.960938 L -21.515625 279.539062 L -144.710938 -124.339844 L 365.339844 -279.917969 Z M 488.535156 123.960938 " clip-rule="nonzero"/></clipPath><clipPath id="clip-6"><path d="M 479 81 L 1008 81 L 1008 300 L 479 300 Z M 479 81 " clip-rule="nonzero"/></clipPath><clipPath id="clip-7"><path d="M 1028.480469 472.777344 L 559.398438 567.242188 L 470.855469 127.570312 L 939.9375 33.105469 Z M 1028.480469 472.777344 " clip-rule="nonzero"/></clipPath><clipPath id="clip-8"><path d="M 1028.480469 472.777344 L 559.398438 567.242188 L 470.855469 127.570312 L 939.9375 33.105469 Z M 1028.480469 472.777344 " clip-rule="nonzero"/></clipPath><clipPath id="clip-9"><path d="M 0 0 L 275 0 L 275 272 L 0 272 Z M 0 0 " clip-rule="nonzero"/></clipPath><clipPath id="clip-10"><path d="M -317.269531 206.566406 L -120.925781 -229.796875 L 288.078125 -45.761719 L 91.734375 390.597656 Z M -317.269531 206.566406 " clip-rule="nonzero"/></clipPath><clipPath id="clip-11"><path d="M -317.269531 206.566406 L -120.925781 -229.796875 L 288.078125 -45.761719 L 91.734375 390.597656 Z M -317.269531 206.566406 " clip-rule="nonzero"/></clipPath></defs><rect x="-120" width="1440" fill="rgb(100%, 100%, 100%)" y="-29.999999" height="359.999986" fill-opacity="1"/><rect x="-120" width="1440" fill="rgb(0%, 0%, 0%)" y="-29.999999" height="359.999986" fill-opacity="1"/><g clip-path="url(#clip-0)"><g clip-path="url(#clip-1)"><g clip-path="url(#clip-2)"><path fill="rgb(100%, 100%, 100%)" d="M 1295.1875 390.824219 C 1323.75 317.910156 1309.78125 211.859375 1226.433594 165.429688 C 1143.085938 119 1045.910156 176.867188 968.167969 187.757812 C 890.429688 198.652344 798.980469 226.546875 811.78125 335.539062 C 824.488281 444.558594 876.953125 456.78125 1025.859375 490.96875 C 1174.761719 525.15625 1240.394531 530.773438 1295.1875 390.824219 Z M 1295.1875 390.824219 " fill-opacity="1" fill-rule="nonzero"/></g></g></g><g clip-path="url(#clip-3)"><g clip-path="url(#clip-4)"><g clip-path="url(#clip-5)"><path fill="rgb(100%, 100%, 100%)" d="M 390.285156 30.691406 C 418.847656 -42.222656 404.882812 -148.273438 321.53125 -194.703125 C 238.183594 -241.132812 141.007812 -183.265625 63.269531 -172.375 C -14.46875 -161.480469 -105.921875 -133.585938 -93.121094 -24.59375 C -80.414062 84.425781 -27.949219 96.648438 120.957031 130.835938 C 269.859375 165.023438 335.492188 170.640625 390.285156 30.691406 Z M 390.285156 30.691406 " fill-opacity="1" fill-rule="nonzero"/></g></g></g><g clip-path="url(#clip-6)"><g clip-path="url(#clip-7)"><g clip-path="url(#clip-8)"><path fill="rgb(77.648926%, 74.508667%, 68.629456%)" d="M 528.433594 116.714844 C 545.515625 113.769531 562.761719 111.039062 579.796875 107.855469 C 596.09375 104.695312 612.25 100.824219 628.519531 97.546875 C 638.972656 95.441406 649.617188 94.289062 660.046875 91.445312 C 674.371094 87.699219 688.980469 84.753906 703.640625 82.667969 C 715.996094 80.796875 728.496094 82.109375 740.121094 86.433594 C 757.925781 93.222656 774.523438 102.597656 789.480469 114.28125 C 796.617188 119.632812 804.058594 124.679688 811.789062 129.296875 C 824.984375 137.136719 836.757812 147.113281 846.632812 158.707031 C 854.554688 167.980469 862.597656 177.226562 871.042969 186.019531 C 876.230469 191.523438 881.941406 196.546875 888.050781 201.117188 C 902.726562 211.992188 915.832031 224.914062 927.019531 239.332031 C 936.085938 251.210938 946.886719 261.878906 958.917969 270.691406 C 972.546875 280.050781 980.878906 293.191406 986.714844 308.066406 C 991.503906 320.191406 996.390625 332.171875 1000.515625 344.679688 C 1005.832031 360.648438 1008.324219 377.3125 1007.628906 394.121094 C 1007.050781 406.585938 1002.761719 418.4375 995.121094 428.375 C 976.546875 453.972656 950.976562 473.691406 921.40625 485.203125 C 905.253906 491.542969 889.222656 497.859375 872.832031 503.011719 C 861.382812 506.304688 849.648438 508.792969 837.863281 510.425781 C 822.800781 512.964844 807.382812 514.957031 792.148438 512.347656 C 775.011719 509.5 758.089844 505.867188 741.117188 502 C 736.410156 500.726562 731.800781 498.691406 727.6875 496.0625 C 719.578125 491.398438 711.539062 486.472656 703.691406 481.257812 C 689.566406 471.878906 675.773438 461.691406 665.066406 448.414062 C 655.023438 436.605469 650.300781 421.132812 651.898438 405.746094 C 652.347656 401.210938 651.4375 396.699219 649.269531 392.691406 C 645.890625 385.71875 643.527344 378.289062 642.332031 370.503906 C 640.800781 363.527344 638.226562 356.882812 634.871094 350.644531 C 623.535156 328.722656 611.203125 307.375 594.785156 288.457031 C 577.222656 268.160156 558.621094 248.816406 539.707031 229.777344 C 529.003906 218.96875 518.722656 207.828125 507.898438 197.039062 C 503.714844 192.820312 499.027344 189.195312 494.53125 185.285156 C 488.703125 180.285156 484.324219 173.878906 481.65625 166.761719 C 475.769531 151.648438 482.09375 134.570312 496.222656 126.785156 C 506.460938 121.757812 517.242188 118.230469 528.433594 116.714844 Z M 651.761719 389.71875 C 654.878906 394.15625 656.21875 399.566406 655.675781 404.863281 C 653.628906 420.460938 658.636719 436.125 669.390625 447.789062 C 676.71875 455.945312 684.875 463.316406 693.820312 469.664062 C 706.804688 478.90625 720.570312 487.121094 734.148438 495.625 C 736.242188 496.808594 738.546875 497.824219 740.996094 498.320312 C 759.179688 503.300781 777.695312 506.859375 796.421875 509.015625 C 810.203125 510.5625 823.84375 508.925781 837.335938 506.578125 C 848.882812 504.996094 860.382812 502.554688 871.734375 499.40625 C 887.105469 494.703125 901.925781 488.507812 917.125 482.980469 C 943.679688 473.0625 967.519531 456.40625 985.980469 434.539062 C 996.636719 422.390625 1003.964844 408.441406 1004.15625 391.609375 C 1004.261719 378.621094 1002.632812 365.613281 999.21875 352.964844 C 994.828125 336.070312 987.773438 320.078125 980.9375 303.921875 C 976.242188 292.269531 968.367188 282.003906 958.234375 274.65625 C 945.152344 264.945312 933.449219 253.472656 923.550781 240.523438 C 912.625 226.175781 899.589844 213.613281 885.011719 203.210938 C 882.96875 201.648438 880.921875 200.085938 878.972656 198.378906 C 867.222656 187.902344 856.515625 176.476562 846.734375 164.121094 C 837.523438 152.761719 826.632812 142.855469 814.40625 134.945312 C 802.589844 127.199219 791.078125 119.144531 779.332031 111.136719 C 766.394531 102.136719 752.296875 94.726562 737.460938 89.191406 C 723.03125 83.824219 708.515625 84.773438 694.023438 87.691406 C 680.480469 90.417969 667.058594 93.738281 653.542969 96.585938 C 635.011719 100.316406 616.527344 103.667969 598.046875 107.636719 C 576.832031 112.15625 555.523438 116.199219 533.855469 119.082031 C 522.046875 120.597656 510.5 124.03125 499.671875 129.175781 C 482.976562 137.109375 481.140625 154.394531 485.550781 166.472656 C 488.363281 174.300781 494.074219 179.945312 500.140625 185.515625 C 509.226562 193.808594 518.074219 202.152344 526.734375 210.78125 C 538.675781 222.824219 550.5 234.890625 562.136719 247.242188 C 585.855469 272.347656 610.238281 297.074219 626.625 328.101562 C 633.027344 340.273438 639.171875 352.371094 645.105469 364.636719 C 648.34375 371.515625 650.753906 378.5625 653.753906 385.492188 C 654.730469 387.886719 654.066406 388.886719 651.761719 389.71875 Z M 685.9375 414.574219 C 683.859375 404.25 684.75 393.945312 684.902344 383.664062 C 685.429688 345.15625 679.945312 307.484375 664.53125 272.0625 C 659.242188 259.914062 652.265625 248.601562 640.921875 240.761719 C 638.046875 238.746094 634.859375 237.042969 631.722656 235.574219 C 622.710938 231.339844 614.199219 225.890625 606.609375 219.515625 C 600.1875 214.019531 595.285156 206.855469 592.304688 198.8125 C 590.734375 195.300781 590.539062 191.265625 591.769531 187.558594 C 592.835938 183.640625 594.445312 179.980469 596.4375 176.371094 C 611.449219 150.875 633.238281 130.183594 659.527344 116.496094 C 668.957031 111.753906 679.433594 109.152344 690.054688 109.113281 C 702.480469 108.832031 714.980469 107.671875 727.101562 110.789062 C 743.242188 114.824219 759.167969 119.644531 773.078125 129.191406 C 790.058594 141.082031 804.214844 156.753906 814.40625 174.828125 C 828.359375 198.691406 842.761719 222.339844 857.046875 246.011719 C 864.78125 258.039062 875.34375 268.136719 887.78125 275.261719 C 900.074219 282.914062 911.75 291.179688 923.640625 299.28125 C 931.796875 304.800781 940.167969 310.15625 948.039062 316.101562 C 952.75 319.847656 956.9375 324.066406 960.816406 328.59375 C 965.382812 333.476562 967.242188 340.265625 965.824219 346.726562 C 965.046875 350.832031 964.503906 354.894531 963.203125 358.859375 C 959.746094 371.164062 956.269531 383.347656 952.289062 395.511719 C 945.257812 417.054688 931.992188 433.433594 911.496094 443.980469 C 892.191406 453.671875 872.714844 462.535156 851.621094 467.644531 C 828.957031 472.949219 805.265625 472.535156 782.78125 466.445312 C 764.527344 461.722656 746.292969 456.503906 728.085938 451.402344 C 719.71875 449.136719 711.730469 445.683594 704.382812 441.113281 C 702.410156 439.90625 699.984375 439.527344 698.082031 438.058594 C 695.847656 436.78125 693.875 434.957031 692.5625 432.75 C 689.800781 427.007812 687.726562 421.003906 685.175781 415.097656 Z M 848.078125 464.777344 C 870.195312 459.832031 891.902344 450.394531 913.085938 438.96875 C 928.164062 430.992188 939.863281 417.894531 946.046875 401.953125 C 952.730469 384.800781 958.054688 367.058594 961.980469 349.105469 C 963.988281 341.292969 961.484375 333.152344 955.585938 327.796875 C 948.902344 320.992188 941.480469 314.828125 933.394531 309.667969 C 923.859375 303.4375 914.300781 297.089844 904.738281 290.742188 C 898.890625 286.855469 893.324219 282.542969 887.332031 279.179688 C 873.136719 271.296875 861.171875 259.753906 852.695312 245.902344 C 838.175781 221.660156 823.746094 197.273438 809.128906 173.175781 C 797.84375 154.578125 783.757812 138.648438 764.355469 128.230469 C 744.027344 116.890625 720.925781 111.414062 697.613281 112.28125 C 683.285156 112.945312 669.507812 114.484375 656.898438 121.839844 C 638.042969 132.550781 621.566406 147.105469 608.660156 164.648438 C 604.128906 170.992188 600.144531 177.597656 596.472656 184.511719 C 594.359375 188.148438 593.890625 192.566406 595.175781 196.503906 C 597.371094 203.101562 601.039062 209.03125 605.867188 213.984375 C 613.691406 221.546875 622.824219 227.613281 632.738281 232.035156 C 642.390625 236.390625 650.691406 243.238281 656.878906 251.871094 C 666.683594 264.960938 672.476562 280.21875 676.9375 295.621094 C 685.597656 325.117188 689.410156 355.714844 688.304688 386.4375 C 687.796875 397.40625 687.285156 408.375 690.527344 418.957031 C 692.914062 426.503906 695.039062 434.597656 704.472656 436.648438 C 704.996094 436.789062 705.566406 437.167969 705.996094 437.453125 C 713.222656 442.046875 720.949219 445.433594 729.199219 447.722656 C 747.027344 452.777344 764.855469 457.828125 782.847656 462.480469 C 804.167969 468.3125 826.457031 469.132812 848.078125 464.777344 Z M 654.90625 374.023438 C 654.3125 374.140625 653.882812 375.09375 653.410156 375.804688 C 654.125 376.28125 654.789062 377.132812 655.433594 377.25 C 656.191406 377.34375 656.453125 376.179688 657.378906 375.253906 C 656.402344 374.710938 655.5 373.902344 654.90625 374.023438 Z M 700.621094 143.78125 C 717.941406 141.40625 734.386719 142.046875 749.390625 150.878906 C 754.90625 154.335938 759.828125 158.53125 764.136719 163.34375 C 773.84375 174.109375 781.9375 186.0625 788.390625 199.085938 C 799.105469 219.773438 812.082031 239.386719 826.953125 257.382812 C 830.210938 261.296875 833.613281 265.300781 836.445312 269.546875 C 845.683594 283.492188 858.195312 294.0625 871.558594 303.96875 C 880.714844 310.765625 889.492188 318.136719 898.054688 325.675781 C 905.359375 331.859375 909.835938 340.589844 910.75 350.039062 C 911.832031 361.550781 910.203125 372.496094 902.96875 381.980469 C 894 393.914062 884.339844 404.871094 870.660156 411.824219 C 860.851562 416.515625 850.234375 419.027344 839.421875 419.351562 C 821.316406 420.28125 803.160156 418.503906 785.476562 414.160156 C 778.988281 412.628906 772.382812 411.738281 765.84375 409.964844 C 757.738281 407.769531 749.75 404.933594 741.667969 402.238281 C 739.671875 401.53125 737.628906 400.582031 735.632812 399.875 C 733.539062 399.308594 730.925781 399.832031 731.921875 396.175781 C 731.871094 395.9375 731.136719 395.347656 730.707031 395.0625 C 724.285156 390.796875 719.765625 384.300781 718.019531 376.871094 C 716.277344 370.058594 713.109375 363.535156 710.894531 356.820312 C 707.195312 344.601562 705.042969 332.066406 704.339844 319.367188 C 703.542969 309.894531 703.507812 300.519531 702.597656 291.070312 C 702.113281 286.226562 701.277344 281.457031 699.988281 276.902344 C 699.558594 274.765625 698.535156 272.746094 697.109375 271.183594 C 684.785156 260.328125 677.785156 245.808594 669.070312 232.621094 C 664.644531 225.980469 660.550781 219.148438 657 211.960938 C 651.285156 200.765625 651.578125 187.492188 657.910156 176.585938 C 667.324219 158.882812 682.757812 148.984375 701 143.828125 Z M 710.949219 343.597656 C 711.640625 346.421875 712.238281 350.003906 713.550781 353.445312 C 716.246094 361.300781 719.984375 368.820312 721.75 376.984375 C 723.808594 387.191406 731.75 392.257812 738.953125 396.734375 C 746.824219 401.449219 756.261719 403.5 765.316406 406.121094 C 772.140625 408.082031 779.386719 409.089844 786.375 410.648438 C 803.679688 414.941406 821.574219 416.648438 839.441406 415.765625 C 849.253906 415.394531 858.828125 413.21875 867.78125 409.195312 C 881.628906 402.453125 891.191406 391.636719 900.042969 379.730469 C 906.566406 371.007812 908.027344 361.082031 907.160156 350.636719 C 906.292969 340.191406 901.058594 332.601562 893.46875 326.226562 C 884.8125 318.832031 875.988281 311.84375 866.949219 305.019531 C 854.585938 295.777344 843.191406 285.847656 834.429688 273.042969 C 831.648438 269.03125 828.503906 265.097656 825.414062 261.398438 C 809.753906 242.570312 796.09375 221.984375 784.804688 200.300781 C 778.777344 188.796875 771.636719 177.886719 763.308594 167.832031 C 753.671875 155.574219 739.285156 147.972656 723.625 146.929688 C 699.433594 144.640625 679.601562 152.335938 664.773438 171.992188 C 654.046875 186.253906 653.328125 201.09375 662.707031 216.371094 C 667.066406 223.269531 671.328125 230.316406 675.800781 237.195312 C 683.015625 248.460938 689.679688 260.082031 699.695312 269.304688 C 701.550781 271.152344 702.765625 273.5 703.269531 275.992188 C 704.796875 282.355469 705.824219 288.691406 706.285156 295.265625 C 706.730469 311.601562 708.269531 327.835938 710.902344 343.976562 Z M 724.976562 307.679688 C 724.085938 297.734375 723.171875 287.667969 722.207031 277.367188 C 721.992188 275.679688 721.777344 273.996094 721.464844 272.453125 C 721.371094 271.976562 721.203125 271.148438 721.058594 271.050781 C 717.566406 270.273438 718.796875 267.1875 718.128906 265.097656 C 716.914062 260.898438 715.671875 256.578125 714.101562 252.449219 C 711.265625 245.734375 709.6875 238.519531 709.441406 231.160156 C 709.710938 218.386719 718.113281 207.3125 730.320312 203.492188 C 745.714844 198.914062 762.285156 206.320312 769.050781 220.886719 C 775.339844 234.3125 783.503906 246.621094 791.453125 259.097656 C 796.691406 267.304688 802.261719 275.320312 807.378906 283.550781 C 816.496094 298.757812 829.746094 311.152344 845.582031 319.199219 C 852.855469 322.796875 859.089844 327.964844 864.0625 334.25 C 870.464844 342.714844 870.757812 350.929688 864.730469 359.675781 C 862.8125 362.40625 860.460938 364.855469 857.753906 366.761719 C 849.300781 373.277344 839.347656 376.023438 829.207031 378.4375 C 812.980469 381.949219 796.15625 381.882812 779.945312 378.105469 C 772.957031 376.550781 766.5625 373.023438 761.472656 367.996094 C 755.808594 362.59375 750.171875 357.308594 744.820312 351.59375 C 737.777344 344.246094 733.820312 335.039062 730.34375 325.738281 C 728.195312 319.996094 726.742188 313.992188 724.832031 307.585938 Z M 728.539062 306.960938 C 730.421875 313.25 731.949219 318.992188 733.929688 324.523438 C 737.148438 333.136719 740.839844 341.652344 747.144531 348.410156 C 752.804688 354.429688 758.894531 360.121094 764.867188 365.832031 C 769.765625 370.527344 775.949219 373.601562 782.507812 374.875 C 802.1875 379.308594 822.695312 378.019531 841.742188 371.34375 C 848.277344 369.410156 854.261719 365.980469 859.222656 361.15625 C 867.148438 352.644531 867.707031 344.378906 860.640625 335.679688 C 859.285156 333.851562 857.714844 332.191406 855.953125 330.820312 C 851.554688 327.382812 846.847656 324.257812 842.066406 321.390625 C 828.679688 314.453125 817.359375 304.261719 808.910156 291.765625 C 804.980469 285.761719 801.386719 279.574219 797.21875 273.621094 C 785.296875 256.140625 773.253906 238.683594 764.296875 219.375 C 761.867188 214.058594 757.226562 210.054688 751.59375 208.472656 C 748.027344 207.335938 744.414062 206.582031 740.707031 205.972656 C 728.492188 204.234375 711.875 216.839844 713.03125 231.179688 C 713.679688 238.085938 715.160156 244.828125 717.566406 251.257812 C 719.210938 255.742188 720.40625 260.441406 721.71875 265.117188 C 722.21875 266.992188 721.582031 269.34375 724.195312 270.050781 C 724.574219 270.097656 724.789062 271.164062 724.933594 271.878906 C 725.292969 273.65625 725.675781 275.554688 725.675781 277.40625 C 726.617188 287.589844 727.410156 297.679688 728.324219 307.128906 Z M 728.539062 306.960938 " fill-opacity="1" fill-rule="nonzero"/></g></g></g><g clip-path="url(#clip-9)"><g clip-path="url(#clip-10)"><g clip-path="url(#clip-11)"><path fill="rgb(77.648926%, 74.508667%, 68.629456%)" d="M 263.375 7.367188 C 255.824219 22.96875 248.003906 38.585938 240.671875 54.285156 C 233.75 69.375 227.488281 84.761719 220.679688 99.898438 C 216.304688 109.625 211.046875 118.949219 207.28125 129.082031 C 201.988281 142.910156 195.875 156.5 189.035156 169.632812 C 183.363281 180.765625 175.019531 190.167969 164.730469 197.097656 C 148.847656 207.621094 131.558594 215.65625 113.351562 221.015625 C 104.84375 223.695312 96.40625 226.808594 88.152344 230.402344 C 74.097656 236.570312 59.128906 240.332031 43.953125 241.609375 C 31.800781 242.652344 19.601562 243.804688 7.535156 245.550781 C 0.0429688 246.5625 -7.367188 248.277344 -14.644531 250.585938 C -32.027344 256.183594 -50.164062 259.316406 -68.398438 260.011719 C -83.335938 260.464844 -98.296875 263.035156 -112.472656 267.6875 C -128.011719 273.316406 -143.546875 272.4375 -159.042969 268.523438 C -171.6875 265.355469 -184.273438 262.351562 -196.839844 258.421875 C -212.921875 253.449219 -227.917969 245.769531 -241.179688 235.417969 C -250.976562 227.6875 -258.117188 217.300781 -261.746094 205.304688 C -271.738281 175.296875 -272.882812 143.027344 -265.023438 112.28125 C -260.769531 95.460938 -256.570312 78.75 -251.214844 62.425781 C -247.226562 51.199219 -242.414062 40.207031 -236.878906 29.679688 C -230.175781 15.953125 -222.816406 2.257812 -211.820312 -8.605469 C -199.53125 -20.878906 -186.722656 -32.523438 -173.699219 -44.070312 C -169.921875 -47.152344 -165.582031 -49.71875 -161.046875 -51.53125 C -152.535156 -55.40625 -143.851562 -59.074219 -135.042969 -62.417969 C -119.191406 -68.441406 -102.878906 -73.722656 -85.847656 -74.695312 C -70.402344 -75.984375 -55.074219 -70.8125 -43.492188 -60.554688 C -40.066406 -57.550781 -35.871094 -55.664062 -31.351562 -55.089844 C -23.710938 -53.777344 -16.296875 -51.371094 -9.269531 -47.8125 C -2.707031 -44.992188 4.191406 -43.214844 11.21875 -42.3125 C 35.640625 -38.765625 60.175781 -36.363281 85.121094 -38.691406 C 111.84375 -41.148438 138.40625 -45.011719 164.894531 -49.300781 C 179.914062 -51.710938 194.957031 -53.578125 210.03125 -56.097656 C 215.898438 -57.042969 221.574219 -58.742188 227.371094 -60.121094 C 234.828125 -61.945312 242.585938 -61.777344 249.925781 -59.800781 C 265.640625 -55.789062 275.84375 -40.699219 273.945312 -24.679688 C 272.070312 -13.433594 268.660156 -2.609375 263.375 7.367188 Z M -30.386719 -51.335938 C -35.808594 -51.382812 -40.984375 -53.445312 -44.972656 -56.96875 C -56.464844 -67.71875 -72.113281 -72.765625 -87.859375 -70.816406 C -98.753906 -69.609375 -109.5 -67.265625 -119.867188 -63.695312 C -134.941406 -58.519531 -149.636719 -52.109375 -164.457031 -46.023438 C -166.636719 -45.011719 -168.808594 -43.726562 -170.632812 -42.027344 C -185.273438 -30.144531 -198.945312 -17.164062 -211.601562 -3.195312 C -220.886719 7.113281 -227.496094 19.152344 -233.445312 31.488281 C -238.882812 41.796875 -243.59375 52.566406 -247.644531 63.632812 C -252.773438 78.863281 -256.367188 94.519531 -260.722656 110.097656 C -268.121094 137.460938 -268.460938 166.539062 -261.433594 194.285156 C -257.761719 210.019531 -250.6875 224.097656 -237.117188 234.058594 C -226.617188 241.703125 -215.09375 247.953125 -202.824219 252.542969 C -186.53125 258.8125 -169.421875 262.390625 -152.304688 266.238281 C -140.101562 269.207031 -127.167969 268.78125 -115.296875 264.820312 C -99.78125 259.84375 -83.640625 257.007812 -67.347656 256.5 C -49.324219 255.972656 -31.519531 252.691406 -14.578125 246.894531 C -12.113281 246.144531 -9.652344 245.390625 -7.128906 244.796875 C 8.230469 241.34375 23.753906 239.296875 39.492188 238.539062 C 54.089844 237.664062 68.488281 234.578125 82.035156 229.246094 C 95.214844 224.148438 108.464844 219.480469 121.816406 214.59375 C 136.667969 209.316406 150.902344 202.167969 164.039062 193.332031 C 176.804688 184.726562 184.484375 172.371094 190.550781 158.890625 C 196.21875 146.292969 201.335938 133.449219 206.894531 120.800781 C 214.648438 103.5625 222.6875 86.585938 230.222656 69.25 C 238.902344 49.371094 248.019531 29.691406 258.296875 10.398438 C 263.941406 -0.0820312 267.871094 -11.46875 269.992188 -23.269531 C 273.265625 -41.460938 260.28125 -53.019531 247.894531 -56.464844 C 239.890625 -58.738281 231.980469 -57.382812 223.917969 -55.695312 C 211.882812 -53.136719 199.949219 -50.800781 187.890625 -48.785156 C 171.144531 -46.089844 154.453125 -43.503906 137.636719 -41.238281 C 103.414062 -36.570312 69.113281 -31.144531 34.347656 -35.894531 C 20.722656 -37.769531 7.308594 -39.820312 -6.117188 -42.140625 C -13.59375 -43.511719 -20.726562 -45.660156 -28.105469 -47.253906 C -30.625 -47.855469 -31.050781 -48.976562 -30.386719 -51.335938 Z M -70.488281 -38.023438 C -60.886719 -33.699219 -53.027344 -26.976562 -44.757812 -20.863281 C -13.757812 1.988281 20.058594 19.460938 57.832031 27.554688 C 70.789062 30.328125 84.046875 31.246094 97.027344 26.589844 C 100.339844 25.425781 103.582031 23.828125 106.601562 22.128906 C 115.292969 17.269531 124.679688 13.519531 134.28125 11.066406 C 142.488281 9.046875 151.167969 9.230469 159.441406 11.492188 C 163.210938 12.257812 166.605469 14.449219 168.902344 17.609375 C 171.46875 20.753906 173.503906 24.195312 175.28125 27.917969 C 187.265625 54.96875 191.398438 84.730469 187.21875 114.074219 C 185.582031 124.5 181.601562 134.53125 175.445312 143.191406 C 168.4375 153.457031 162.101562 164.292969 152.511719 172.332031 C 139.832031 183.105469 126.640625 193.246094 110.78125 198.996094 C 91.222656 205.875 70.242188 208.261719 49.613281 206.019531 C 22.085938 203.46875 -5.523438 201.40625 -33.085938 199.238281 C -47.367188 198.523438 -61.726562 201.230469 -74.761719 207.191406 C -88.140625 212.730469 -101.664062 217.410156 -115.171875 222.359375 C -124.410156 225.777344 -133.636719 229.464844 -143.054688 232.402344 C -148.839844 234.050781 -154.707031 234.996094 -160.648438 235.511719 C -167.277344 236.382812 -173.878906 233.945312 -178.304688 229.027344 C -181.191406 226.003906 -184.175781 223.199219 -186.644531 219.828125 C -194.632812 209.855469 -202.515625 199.933594 -210.085938 189.617188 C -223.503906 171.355469 -229.097656 151.035156 -225.738281 128.230469 C -222.375 106.890625 -218.238281 85.898438 -210.113281 65.773438 C -201.230469 44.257812 -187.097656 25.238281 -169.050781 10.503906 C -154.582031 -1.585938 -139.722656 -13.371094 -124.976562 -25.203125 C -118.261719 -30.683594 -110.800781 -35.167969 -102.804688 -38.480469 C -100.675781 -39.378906 -98.957031 -41.132812 -96.65625 -41.824219 C -94.316406 -42.894531 -91.679688 -43.4375 -89.125 -43.21875 C -82.847656 -42.121094 -76.761719 -40.3125 -70.472656 -38.945312 Z M -205.71875 64.558594 C -214.574219 85.421875 -219.542969 108.5625 -222.585938 132.4375 C -224.882812 149.34375 -221.046875 166.480469 -211.6875 180.792969 C -201.636719 196.210938 -190.3125 210.871094 -178 224.515625 C -172.820312 230.699219 -164.742188 233.402344 -156.953125 231.726562 C -147.53125 230.253906 -138.199219 227.808594 -129.292969 224.242188 C -118.675781 220.117188 -107.949219 216.042969 -97.222656 211.96875 C -90.65625 209.472656 -83.910156 207.460938 -77.6875 204.546875 C -63.011719 197.597656 -46.660156 194.589844 -30.464844 195.765625 C -2.300781 198.074219 25.925781 200.542969 54.027344 202.691406 C 75.71875 204.347656 96.871094 202.171875 116.640625 192.464844 C 137.695312 182.542969 155.597656 166.945312 168.46875 147.492188 C 176.273438 135.457031 183.042969 123.359375 184.40625 108.824219 C 186.675781 87.257812 184.4375 65.390625 177.691406 44.683594 C 175.171875 37.304688 172.121094 30.21875 168.640625 23.203125 C 166.914062 19.371094 163.597656 16.417969 159.644531 15.171875 C 153.003906 13.113281 146.046875 12.640625 139.207031 13.679688 C 128.503906 15.640625 118.257812 19.535156 108.886719 25.015625 C 99.726562 30.328125 89.324219 33.089844 78.703125 33.09375 C 62.351562 33.441406 46.578125 29.269531 31.457031 23.925781 C 2.433594 13.789062 -24.660156 -0.925781 -48.992188 -19.714844 C -57.613281 -26.515625 -66.234375 -33.316406 -76.730469 -36.84375 C -84.253906 -39.296875 -92.066406 -42.285156 -99.230469 -35.808594 C -99.648438 -35.464844 -100.289062 -35.222656 -100.769531 -35.039062 C -108.714844 -31.835938 -115.964844 -27.527344 -122.628906 -22.152344 C -137.121094 -10.601562 -151.609375 0.949219 -165.867188 12.867188 C -183.023438 26.804688 -196.667969 44.449219 -205.71875 64.558594 Z M -19.453125 -39.640625 C -19.203125 -40.191406 -19.730469 -41.089844 -20.03125 -41.890625 C -20.832031 -41.589844 -21.914062 -41.542969 -22.382812 -41.089844 C -22.902344 -40.527344 -22.109375 -39.636719 -21.894531 -38.34375 C -20.882812 -38.820312 -19.703125 -39.085938 -19.453125 -39.640625 Z M 141.109375 131.59375 C 132.957031 147.058594 122.859375 160.054688 106.941406 167.109375 C 100.917969 169.582031 94.640625 171.140625 88.222656 171.839844 C 73.816406 173.464844 59.386719 173.082031 45.039062 170.746094 C 21.984375 167.414062 -1.515625 166.539062 -24.808594 168.148438 C -29.886719 168.523438 -35.125 168.957031 -40.226562 168.785156 C -56.941406 168.175781 -72.820312 172.191406 -88.65625 177.289062 C -99.515625 180.773438 -110.617188 183.617188 -121.730469 186.191406 C -131.011719 188.527344 -140.714844 187.082031 -148.929688 182.324219 C -158.917969 176.5 -166.871094 168.804688 -170.367188 157.398438 C -174.84375 143.160156 -178.128906 128.925781 -175.816406 113.753906 C -173.921875 103.050781 -169.777344 92.957031 -163.746094 83.976562 C -153.960938 68.714844 -141.941406 54.988281 -128.117188 43.140625 C -123.089844 38.757812 -118.519531 33.90625 -113.273438 29.625 C -106.769531 24.3125 -99.8125 19.472656 -92.914062 14.46875 C -91.175781 13.257812 -89.214844 12.148438 -87.476562 10.9375 C -85.796875 9.566406 -84.703125 7.136719 -82.308594 10.074219 C -82.085938 10.171875 -81.175781 9.917969 -80.695312 9.734375 C -73.492188 7 -65.574219 7.105469 -58.519531 10.015625 C -51.96875 12.5625 -44.820312 13.789062 -38.070312 15.894531 C -25.980469 20.003906 -14.539062 25.550781 -3.804688 32.375 C 4.359375 37.246094 12.003906 42.675781 20.214844 47.433594 C 24.433594 49.863281 28.800781 51.960938 33.253906 53.566406 C 35.242188 54.460938 37.476562 54.804688 39.578125 54.554688 C 55.578125 50.855469 71.460938 53.617188 87.253906 54.214844 C 95.230469 54.480469 103.167969 55.128906 111.078125 56.429688 C 123.511719 58.304688 134.128906 66.269531 139.308594 77.769531 C 148.21875 95.730469 147.28125 114.042969 140.847656 131.875 Z M -27.351562 23.640625 C -30.050781 22.558594 -33.3125 20.957031 -36.871094 20.019531 C -44.828125 17.636719 -53.117188 16.296875 -60.785156 12.980469 C -70.277344 8.710938 -79.023438 12.214844 -86.859375 15.464844 C -95.273438 19.121094 -102.433594 25.597656 -109.839844 31.433594 C -115.40625 35.839844 -120.449219 41.144531 -125.78125 45.917969 C -139.347656 57.484375 -151.15625 71.039062 -160.84375 86.082031 C -166.257812 94.273438 -170.0625 103.324219 -172.003906 112.949219 C -174.585938 128.128906 -171.359375 142.203125 -166.832031 156.332031 C -163.542969 166.714844 -156.324219 173.683594 -147.324219 179.058594 C -138.328125 184.433594 -129.109375 184.597656 -119.507812 182.140625 C -108.457031 179.40625 -97.636719 176.304688 -86.824219 172.929688 C -72.113281 168.257812 -57.40625 164.777344 -41.894531 165.113281 C -37.011719 165.183594 -31.984375 164.921875 -27.175781 164.5625 C -2.753906 162.792969 21.941406 163.675781 46.140625 167.121094 C 59.003906 168.921875 72.03125 169.472656 85.054688 168.554688 C 100.632812 167.859375 115.1875 160.589844 125.15625 148.464844 C 141.101562 130.128906 146.394531 109.523438 139.046875 86.023438 C 133.699219 69 122.050781 59.773438 104.171875 58.503906 C 96.023438 58.027344 87.816406 57.390625 79.617188 57.023438 C 66.257812 56.328125 52.925781 54.980469 39.601562 57.75 C 37.015625 58.183594 34.398438 57.804688 32.082031 56.761719 C 26.019531 54.300781 20.269531 51.445312 14.65625 47.988281 C 1.117188 38.84375 -12.976562 30.640625 -27.632812 23.382812 Z M -6.316406 55.957031 C 2.285156 61.027344 11.003906 66.144531 19.9375 71.359375 C 21.433594 72.164062 22.929688 72.972656 24.363281 73.617188 C 24.804688 73.816406 25.578125 74.164062 25.738281 74.101562 C 28.40625 71.714844 30.199219 74.515625 32.285156 75.1875 C 36.410156 76.644531 40.644531 78.152344 44.914062 79.277344 C 52.023438 80.882812 58.808594 83.800781 64.933594 87.886719 C 75.160156 95.542969 79.277344 108.820312 75.269531 120.96875 C 70.03125 136.152344 54.363281 145.3125 38.578125 142.328125 C 24 139.621094 9.238281 139.09375 -5.53125 138.292969 C -15.253906 137.769531 -25.011719 137.628906 -34.683594 137 C -52.355469 135.558594 -70.148438 139.113281 -85.914062 147.300781 C -93.074219 151.121094 -100.902344 153.175781 -108.90625 153.5625 C -119.515625 153.835938 -126.367188 149.292969 -129.96875 139.300781 C -131.070312 136.148438 -131.695312 132.8125 -131.664062 129.503906 C -132.042969 118.835938 -128.480469 109.144531 -124.535156 99.496094 C -117.945312 84.257812 -108.089844 70.621094 -95.582031 59.640625 C -90.25 54.863281 -83.65625 51.71875 -76.605469 50.507812 C -68.917969 49.050781 -61.335938 47.542969 -53.574219 46.519531 C -43.5 45.074219 -33.710938 47.21875 -24.125 49.804688 C -18.207031 51.40625 -12.476562 53.71875 -6.15625 55.898438 Z M -7.808594 59.273438 C -14.019531 57.144531 -19.578125 55.039062 -25.222656 53.429688 C -34.101562 51.03125 -43.175781 49.074219 -52.339844 50.265625 C -60.53125 51.363281 -68.703125 53 -76.824219 54.527344 C -83.492188 55.777344 -89.59375 59.011719 -94.449219 63.605469 C -109.511719 77.023438 -120.402344 94.445312 -126.066406 113.820312 C -128.300781 120.253906 -129 127.117188 -127.960938 133.960938 C -125.660156 145.359375 -119.269531 150.628906 -108.078125 149.949219 C -105.804688 149.910156 -103.539062 149.597656 -101.398438 148.96875 C -96.042969 147.390625 -90.757812 145.386719 -85.644531 143.167969 C -72.210938 136.324219 -57.335938 133.054688 -42.253906 133.460938 C -35.085938 133.761719 -27.960938 134.445312 -20.695312 134.523438 C 0.457031 135.007812 21.660156 135.378906 42.578125 139.34375 C 48.3125 140.464844 54.269531 139.023438 58.835938 135.367188 C 61.835938 133.128906 64.550781 130.628906 67.207031 127.972656 C 75.734375 119.054688 75.160156 98.199219 62.832031 90.792969 C 56.835938 87.296875 50.496094 84.578125 43.867188 82.789062 C 39.261719 81.515625 34.746094 79.75 30.183594 78.09375 C 28.367188 77.410156 26.824219 75.523438 24.726562 77.234375 C 24.46875 77.515625 23.476562 77.070312 22.8125 76.773438 C 21.15625 76.027344 19.390625 75.230469 17.882812 74.15625 C 9.058594 68.988281 0.394531 63.761719 -7.820312 59.003906 Z M -7.808594 59.273438 " fill-opacity="1" fill-rule="nonzero"/></g></g></g></svg>