<?xml version="1.0" encoding="UTF-8"?><svg xmlns="http://www.w3.org/2000/svg" xmlns:xlink="http://www.w3.org/1999/xlink" width="1200" zoomAndPan="magnify" viewBox="0 0 1200 299.999988" height="299.999988" preserveAspectRatio="xMidYMid meet" version="1.0"><defs><clipPath id="clip-0"><path d="M 30 116 L 470 116 L 470 300 L 30 300 Z M 30 116 " clip-rule="nonzero"/></clipPath><clipPath id="clip-1"><path d="M 315.984375 706.152344 L -117.398438 395.449219 L 128.628906 52.28125 L 562.011719 362.984375 Z M 315.984375 706.152344 " clip-rule="nonzero"/></clipPath><clipPath id="clip-2"><path d="M 315.984375 706.152344 L -117.398438 395.449219 L 128.628906 52.28125 L 562.011719 362.984375 Z M 315.984375 706.152344 " clip-rule="nonzero"/></clipPath><clipPath id="clip-3"><path d="M 619 0 L 1117 0 L 1117 186 L 619 186 Z M 619 0 " clip-rule="nonzero"/></clipPath><clipPath id="clip-4"><path d="M 1217.253906 133.003906 L 725.796875 339.945312 L 561.929688 -49.210938 L 1053.386719 -256.15625 Z M 1217.253906 133.003906 " clip-rule="nonzero"/></clipPath><clipPath id="clip-5"><path d="M 1217.253906 133.003906 L 725.796875 339.945312 L 561.929688 -49.210938 L 1053.386719 -256.15625 Z M 1217.253906 133.003906 " clip-rule="nonzero"/></clipPath><clipPath id="clip-6"><path d="M 0 0 L 373 0 L 373 194 L 0 194 Z M 0 0 " clip-rule="nonzero"/></clipPath><clipPath id="clip-7"><path d="M -110.144531 167.058594 L -15.476562 -255.976562 L 381.210938 -167.203125 L 286.542969 255.832031 Z M -110.144531 167.058594 " clip-rule="nonzero"/></clipPath><clipPath id="clip-8"><path d="M -110.144531 167.058594 L -15.476562 -255.976562 L 381.210938 -167.203125 L 286.542969 255.832031 Z M -110.144531 167.058594 " clip-rule="nonzero"/></clipPath><clipPath id="clip-9"><path d="M 599 97 L 1054 97 L 1054 300 L 599 300 Z M 599 97 " clip-rule="nonzero"/></clipPath><clipPath id="clip-10"><path d="M 570.542969 437.058594 L 665.210938 14.023438 L 1061.898438 102.796875 L 967.230469 525.832031 Z M 570.542969 437.058594 " clip-rule="nonzero"/></clipPath><clipPath id="clip-11"><path d="M 570.542969 437.058594 L 665.210938 14.023438 L 1061.898438 102.796875 L 967.230469 525.832031 Z M 570.542969 437.058594 " clip-rule="nonzero"/></clipPath></defs><rect x="-120" width="1440" fill="rgb(100%, 100%, 100%)" y="-29.999999" height="359.999986" fill-opacity="1"/><rect x="-120" width="1440" fill="rgb(81.568909%, 81.17981%, 78.42865%)" y="-29.999999" height="359.999986" fill-opacity="1"/><g clip-path="url(#clip-0)"><g clip-path="url(#clip-1)"><g clip-path="url(#clip-2)"><path fill="rgb(100%, 100%, 100%)" d="M 330.402344 571.453125 C 405.679688 549.859375 481.445312 474.351562 467.707031 379.9375 C 453.96875 285.523438 348.976562 243.46875 293.105469 188.328125 C 237.238281 133.1875 159.535156 77.476562 80.722656 153.84375 C 1.828125 230.152344 23.988281 279.257812 87.269531 418.316406 C 150.546875 557.371094 185.945312 612.925781 330.402344 571.453125 Z M 330.402344 571.453125 " fill-opacity="1" fill-rule="nonzero"/></g></g></g><g clip-path="url(#clip-3)"><g clip-path="url(#clip-4)"><g clip-path="url(#clip-5)"><path fill="rgb(100%, 100%, 100%)" d="M 1109.976562 50.277344 C 1130.933594 -25.179688 1106.1875 -129.246094 1018.527344 -166.90625 C 930.867188 -204.5625 840.121094 -137.058594 763.902344 -118.269531 C 687.6875 -99.484375 599.570312 -62.378906 623.453125 44.734375 C 647.246094 151.882812 700.6875 158.671875 852.308594 177.445312 C 1003.925781 196.21875 1069.792969 195.097656 1109.976562 50.277344 Z M 1109.976562 50.277344 " fill-opacity="1" fill-rule="nonzero"/></g></g></g><g clip-path="url(#clip-6)"><g clip-path="url(#clip-7)"><g clip-path="url(#clip-8)"><path fill="rgb(17.649841%, 15.689087%, 12.548828%)" d="M 368.976562 -115.546875 C 365.121094 -100.324219 361.027344 -85.042969 357.386719 -69.773438 C 353.992188 -55.121094 351.246094 -40.324219 347.960938 -25.648438 C 345.851562 -16.222656 342.886719 -6.988281 341.394531 2.691406 C 339.21875 15.925781 336.269531 29.101562 332.597656 42.003906 C 329.589844 52.917969 323.898438 62.78125 316.03125 70.804688 C 303.851562 83.039062 289.96875 93.320312 274.78125 101.394531 C 267.71875 105.324219 260.796875 109.625 254.125 114.320312 C 242.773438 122.351562 230.171875 128.417969 216.933594 132.316406 C 206.335938 135.457031 195.714844 138.707031 185.320312 142.453125 C 178.851562 144.71875 172.589844 147.59375 166.550781 150.964844 C 152.136719 159.101562 136.609375 165.1875 120.546875 169.128906 C 107.371094 172.253906 94.554688 177.261719 82.824219 183.972656 C 70.054688 191.800781 56.101562 193.851562 41.632812 193.203125 C 29.828125 192.699219 18.105469 192.324219 6.230469 191.128906 C -8.953125 189.644531 -23.667969 185.5625 -37.332031 178.792969 C -47.4375 173.71875 -55.671875 165.800781 -61.082031 155.816406 C -75.429688 131.007812 -82.335938 102.578125 -80.96875 73.863281 C -80.265625 58.160156 -79.585938 42.5625 -77.8125 27.101562 C -76.320312 16.410156 -74.054688 5.78125 -71.0625 -4.570312 C -67.613281 -17.972656 -63.582031 -31.46875 -55.804688 -43.113281 C -47.128906 -56.246094 -37.886719 -68.914062 -28.429688 -81.535156 C -25.640625 -84.957031 -22.253906 -88.027344 -18.5625 -90.460938 C -11.710938 -95.453125 -4.667969 -100.289062 2.539062 -104.863281 C 15.511719 -113.09375 29.03125 -120.757812 43.972656 -124.722656 C 57.449219 -128.683594 72 -126.886719 84.152344 -119.894531 C 87.742188 -117.851562 91.8125 -116.941406 95.929688 -117.257812 C 102.953125 -117.488281 109.972656 -116.703125 116.859375 -114.824219 C 123.199219 -113.519531 129.652344 -113.199219 136.054688 -113.679688 C 158.382812 -114.980469 180.605469 -117.320312 202.320312 -123.933594 C 225.597656 -130.984375 248.472656 -139.253906 271.207031 -147.890625 C 284.101562 -152.765625 297.117188 -157.164062 310.035156 -162.144531 C 315.074219 -164.054688 319.800781 -166.597656 324.699219 -168.875 C 330.984375 -171.855469 337.902344 -173.121094 344.78125 -172.707031 C 359.464844 -172.007812 371.277344 -160.476562 372.515625 -145.914062 C 372.902344 -135.59375 371.851562 -125.367188 368.976562 -115.546875 Z M 97.472656 -114.101562 C 92.652344 -113.15625 87.679688 -114.042969 83.492188 -116.441406 C 71.332031 -123.890625 56.515625 -125.515625 42.894531 -120.914062 C 33.441406 -117.855469 24.332031 -113.820312 15.777344 -108.761719 C 3.339844 -101.421875 -8.535156 -93.054688 -20.582031 -84.953125 C -22.332031 -83.65625 -24.023438 -82.121094 -25.335938 -80.28125 C -36.164062 -67.066406 -45.933594 -53.054688 -54.621094 -38.351562 C -60.980469 -27.511719 -64.652344 -15.625 -67.683594 -3.589844 C -70.628906 6.550781 -72.84375 16.964844 -74.421875 27.523438 C -76.195312 41.972656 -76.527344 56.523438 -77.550781 71.140625 C -79.125 96.773438 -74.121094 122.640625 -62.816406 145.980469 C -56.683594 159.277344 -47.835938 170.480469 -33.972656 176.84375 C -23.257812 181.71875 -11.882812 185.164062 -0.152344 187 C 15.457031 189.59375 31.296875 189.652344 47.195312 189.945312 C 58.570312 190.355469 69.976562 187.621094 79.792969 181.945312 C 92.65625 174.699219 106.46875 169.242188 120.839844 165.820312 C 136.746094 162.066406 151.953125 155.910156 165.9375 147.679688 C 167.984375 146.5625 170.035156 145.445312 172.164062 144.460938 C 185.171875 138.597656 198.578125 133.949219 212.414062 130.40625 C 225.210938 126.972656 237.429688 121.605469 248.484375 114.40625 C 259.253906 107.480469 270.167969 100.925781 281.125 94.152344 C 293.347656 86.765625 304.679688 77.828125 314.726562 67.589844 C 324.492188 57.625 329.054688 45.261719 331.980469 32.191406 C 334.714844 19.980469 336.910156 7.648438 339.539062 -4.585938 C 343.277344 -21.296875 347.3125 -37.832031 350.839844 -54.589844 C 354.917969 -73.8125 359.421875 -92.9375 365.019531 -111.933594 C 368.121094 -122.261719 369.53125 -133.085938 369.261719 -143.941406 C 368.847656 -160.683594 355.210938 -168.574219 343.585938 -169.375 C 336.0625 -169.933594 329.289062 -167.285156 322.441406 -164.320312 C 312.222656 -159.855469 302.054688 -155.609375 291.71875 -151.621094 C 277.34375 -146.175781 262.996094 -140.839844 248.480469 -135.765625 C 218.949219 -125.386719 189.488281 -114.320312 157.757812 -112.195312 C 145.320312 -111.378906 133.039062 -110.753906 120.695312 -110.367188 C 113.804688 -110.222656 107.082031 -110.824219 100.242188 -110.894531 C 97.894531 -110.96875 97.3125 -111.886719 97.472656 -114.101562 Z M 64.296875 -94.976562 C 73.613281 -92.894531 81.816406 -88.359375 90.273438 -84.441406 C 121.964844 -69.8125 155.175781 -60.46875 190.1875 -60.167969 C 202.195312 -60.070312 214.136719 -61.671875 224.808594 -68.171875 C 227.535156 -69.808594 230.121094 -71.816406 232.492188 -73.875 C 239.320312 -79.769531 246.96875 -84.808594 255.046875 -88.738281 C 261.964844 -92.027344 269.703125 -93.445312 277.460938 -92.945312 C 280.949219 -92.953125 284.363281 -91.625 286.976562 -89.242188 C 289.828125 -86.914062 292.265625 -84.234375 294.519531 -81.253906 C 310.097656 -59.433594 319.199219 -33.773438 320.84375 -6.96875 C 321.292969 2.578125 319.589844 12.207031 315.707031 21.011719 C 311.359375 31.402344 307.710938 42.171875 300.664062 51.054688 C 291.375 62.925781 281.515625 74.328125 268.480469 82.324219 C 252.375 91.992188 234.183594 97.933594 215.460938 99.707031 C 190.558594 102.457031 165.671875 105.660156 140.804688 108.757812 C 127.996094 110.726562 115.742188 115.746094 105.257812 123.414062 C 94.390625 130.769531 83.242188 137.382812 72.152344 144.238281 C 64.574219 148.953125 57.058594 153.910156 49.234375 158.230469 C 44.398438 160.75 39.359375 162.660156 34.179688 164.199219 C 28.453125 166.179688 22.148438 165.21875 17.320312 161.664062 C 14.207031 159.503906 11.042969 157.558594 8.238281 155.019531 C -0.671875 147.625 -9.480469 140.257812 -18.085938 132.480469 C -33.332031 118.71875 -42.003906 101.707031 -43.183594 80.855469 C -44.09375 61.304688 -44.253906 41.921875 -40.710938 22.582031 C -36.75 1.867188 -27.675781 -17.585938 -14.34375 -33.949219 C -3.707031 -47.316406 7.335938 -60.480469 18.269531 -73.671875 C 23.230469 -79.757812 29.03125 -85.097656 35.527344 -89.492188 C 37.253906 -90.683594 38.457031 -92.550781 40.375 -93.582031 C 42.257812 -94.960938 44.496094 -95.921875 46.804688 -96.191406 C 52.578125 -96.363281 58.3125 -95.867188 64.144531 -95.800781 Z M -37.03125 20.703125 C -41.085938 40.832031 -41.273438 62.273438 -39.617188 84.015625 C -38.570312 99.4375 -32.039062 113.949219 -21.117188 124.941406 C -9.378906 136.792969 3.347656 147.738281 16.769531 157.605469 C 22.496094 162.148438 30.160156 163.074219 36.769531 160.167969 C 44.867188 157.144531 52.703125 153.273438 59.960938 148.484375 C 68.632812 142.886719 77.410156 137.316406 86.191406 131.746094 C 91.5625 128.335938 97.1875 125.320312 102.179688 121.597656 C 113.9375 112.757812 127.90625 107.109375 142.5 105.199219 C 167.925781 102.117188 193.433594 99.164062 218.773438 95.949219 C 238.332031 93.460938 256.714844 87.679688 272.492188 75.460938 C 289.375 62.816406 302.421875 45.710938 310.296875 26.101562 C 315.027344 14 318.832031 2.027344 317.386719 -11.117188 C 315.46875 -30.671875 309.488281 -49.667969 299.722656 -66.816406 C 296.136719 -72.90625 292.136719 -78.636719 287.765625 -84.226562 C 285.53125 -87.3125 282.050781 -89.332031 278.3125 -89.71875 C 272.042969 -90.332031 265.78125 -89.484375 259.898438 -87.3125 C 250.753906 -83.625 242.367188 -78.300781 235.050781 -71.726562 C 227.886719 -65.34375 219.15625 -61 209.726562 -59.058594 C 195.273438 -55.769531 180.507812 -56.597656 166.109375 -58.582031 C 138.496094 -62.289062 111.753906 -70.410156 86.722656 -82.648438 C 77.828125 -87.113281 68.933594 -91.578125 58.976562 -92.796875 C 51.847656 -93.601562 44.363281 -94.828125 39.1875 -87.773438 C 38.878906 -87.394531 38.355469 -87.0625 37.960938 -86.8125 C 31.492188 -82.523438 25.84375 -77.375 20.90625 -71.394531 C 10.152344 -58.5 -0.601562 -45.609375 -11.085938 -32.433594 C -23.773438 -16.9375 -32.667969 1.207031 -37.03125 20.703125 Z M 109.3125 -105.714844 C 109.433594 -106.25 108.800781 -106.953125 108.386719 -107.609375 C 107.730469 -107.195312 106.78125 -106.957031 106.445312 -106.46875 C 106.085938 -105.875 106.957031 -105.230469 107.382812 -104.121094 C 108.191406 -104.726562 109.191406 -105.179688 109.3125 -105.714844 Z M 283.105469 16.980469 C 278.691406 32.191406 272.097656 45.5625 259.253906 54.726562 C 254.359375 58.015625 249.070312 60.546875 243.5 62.335938 C 231.007812 66.402344 218.128906 68.695312 204.964844 69.234375 C 183.886719 70.480469 162.863281 73.988281 142.480469 79.660156 C 138.039062 80.917969 133.46875 82.257812 128.910156 83.035156 C 113.957031 85.539062 100.59375 91.996094 87.46875 99.410156 C 78.464844 104.480469 69.125 109.027344 59.730469 113.335938 C 51.917969 117.101562 43.039062 117.589844 34.878906 114.863281 C 24.945312 111.515625 16.480469 106.132812 11.296875 96.648438 C 4.722656 84.828125 -0.792969 72.796875 -1.507812 58.914062 C -1.777344 49.066406 0.0585938 39.351562 3.773438 30.285156 C 9.675781 14.957031 17.839844 0.585938 27.953125 -12.449219 C 31.613281 -17.253906 34.789062 -22.390625 38.664062 -27.148438 C 43.46875 -33.046875 48.761719 -38.613281 53.972656 -44.308594 C 55.292969 -45.699219 56.832031 -47.042969 58.15625 -48.433594 C 59.394531 -49.957031 59.921875 -52.3125 62.585938 -50.140625 C 62.800781 -50.09375 63.5625 -50.484375 63.953125 -50.734375 C 69.851562 -54.476562 76.898438 -55.824219 83.691406 -54.53125 C 89.972656 -53.460938 96.542969 -53.679688 102.921875 -53.039062 C 114.402344 -51.59375 125.574219 -48.757812 136.347656 -44.660156 C 144.484375 -41.824219 152.261719 -38.398438 160.421875 -35.671875 C 164.609375 -34.285156 168.867188 -33.21875 173.113281 -32.605469 C 175.042969 -32.175781 177.089844 -32.28125 178.910156 -32.882812 C 192.441406 -39.082031 207.042969 -39.523438 221.171875 -41.875 C 228.304688 -43.089844 235.46875 -43.960938 242.730469 -44.25 C 254.105469 -44.851562 264.988281 -39.71875 271.683594 -30.457031 C 282.871094 -16.144531 285.382812 0.277344 282.925781 17.277344 Z M 113.851562 -48.117188 C 111.257812 -48.585938 108.066406 -49.414062 104.734375 -49.597656 C 97.238281 -50.261719 89.636719 -49.9375 82.222656 -51.484375 C 73.015625 -53.546875 65.890625 -48.839844 59.527344 -44.527344 C 52.726562 -39.75 47.550781 -32.695312 42.042969 -26.167969 C 37.902344 -21.246094 34.394531 -15.617188 30.53125 -10.410156 C 20.597656 2.328125 12.589844 16.511719 6.734375 31.625 C 3.425781 39.882812 1.699219 48.605469 1.730469 57.5 C 2.207031 71.441406 7.640625 83.34375 14.238281 95.058594 C 19.054688 103.671875 26.738281 108.539062 35.703125 111.671875 C 44.671875 114.804688 52.886719 113.269531 60.960938 109.339844 C 70.273438 104.898438 79.316406 100.171875 88.296875 95.207031 C 100.503906 88.378906 112.925781 82.609375 126.761719 80.082031 C 131.105469 79.253906 135.523438 78.105469 139.726562 76.90625 C 161.085938 70.890625 183.167969 67.167969 205.28125 65.820312 C 217.027344 65.074219 228.691406 63.183594 240.085938 59.996094 C 253.789062 56.539062 265.382812 47.433594 272.019531 34.859375 C 282.832031 15.683594 283.769531 -3.570312 272.957031 -23.085938 C 265.101562 -37.21875 253.082031 -43.28125 236.976562 -41.148438 C 229.65625 -40.089844 222.25 -39.160156 214.90625 -37.988281 C 202.917969 -36.171875 190.839844 -34.9375 179.511719 -30.050781 C 177.296875 -29.195312 174.90625 -29.054688 172.65625 -29.558594 C 166.828125 -30.640625 161.199219 -32.121094 155.585938 -34.167969 C 141.898438 -39.816406 127.886719 -44.527344 113.550781 -48.296875 Z M 138.421875 -23.273438 C 146.984375 -20.34375 155.65625 -17.390625 164.539062 -14.390625 C 166.015625 -13.949219 167.492188 -13.503906 168.882812 -13.195312 C 169.3125 -13.097656 170.058594 -12.929688 170.191406 -13.011719 C 172.125 -15.617188 174.226562 -13.460938 176.203125 -13.242188 C 180.128906 -12.703125 184.160156 -12.136719 188.160156 -11.917969 C 194.765625 -11.789062 201.320312 -10.433594 207.503906 -7.925781 C 217.980469 -2.992188 224.054688 8.039062 222.71875 19.550781 C 220.835938 33.980469 208.597656 44.964844 194.042969 45.191406 C 180.605469 45.449219 167.40625 47.667969 154.144531 49.652344 C 145.417969 50.960938 136.730469 52.613281 128.027344 53.816406 C 112.078125 55.757812 96.929688 62.15625 84.429688 72.292969 C 78.769531 76.988281 72.195312 80.242188 65.160156 82.042969 C 55.789062 84.222656 48.878906 81.4375 43.859375 73.226562 C 42.304688 70.628906 41.140625 67.78125 40.5625 64.839844 C 38.28125 55.441406 39.675781 46.195312 41.417969 36.910156 C 44.488281 22.1875 50.746094 8.289062 59.84375 -3.734375 C 63.710938 -8.945312 68.988281 -12.9375 75.023438 -15.300781 C 81.585938 -17.992188 88.042969 -20.710938 94.746094 -23.035156 C 103.425781 -26.15625 112.503906 -26.035156 121.488281 -25.488281 C 127.035156 -25.144531 132.542969 -24.136719 138.550781 -23.355469 Z M 137.703125 -20.058594 C 131.800781 -20.816406 126.480469 -21.667969 121.175781 -22.070312 C 112.855469 -22.582031 104.445312 -22.664062 96.523438 -19.9375 C 89.453125 -17.46875 82.496094 -14.527344 75.566406 -11.691406 C 69.875 -9.367188 65.046875 -5.382812 61.578125 -0.421875 C 50.652344 14.230469 44.164062 31.675781 42.667969 49.902344 C 41.863281 56.019531 42.496094 62.234375 44.664062 68.121094 C 48.789062 77.816406 55.425781 81.328125 65.234375 78.6875 C 67.246094 78.234375 69.199219 77.546875 70.988281 76.597656 C 75.453125 74.222656 79.777344 71.480469 83.910156 68.578125 C 94.589844 60.058594 107.199219 54.441406 120.664062 52.058594 C 127.078125 51.019531 133.53125 50.324219 139.996094 49.070312 C 158.863281 45.644531 177.753906 42.109375 197.046875 41.816406 C 202.34375 41.765625 207.367188 39.402344 210.753906 35.324219 C 213.007812 32.789062 214.964844 30.078125 216.835938 27.234375 C 222.777344 17.765625 218.464844 -0.636719 206.167969 -4.960938 C 200.207031 -6.972656 194.082031 -8.230469 187.867188 -8.605469 C 183.550781 -8.898438 179.21875 -9.644531 174.863281 -10.28125 C 173.128906 -10.554688 171.414062 -11.953125 169.867188 -10.050781 C 169.6875 -9.75 168.722656 -9.96875 168.082031 -10.109375 C 166.472656 -10.46875 164.761719 -10.855469 163.226562 -11.535156 C 154.449219 -14.511719 145.800781 -17.570312 137.644531 -20.296875 Z M 137.703125 -20.058594 " fill-opacity="1" fill-rule="nonzero"/></g></g></g><g clip-path="url(#clip-9)"><g clip-path="url(#clip-10)"><g clip-path="url(#clip-11)"><path fill="rgb(17.649841%, 15.689087%, 12.548828%)" d="M 1049.664062 154.453125 C 1045.808594 169.675781 1041.714844 184.957031 1038.074219 200.226562 C 1034.679688 214.878906 1031.933594 229.675781 1028.648438 244.351562 C 1026.539062 253.777344 1023.570312 263.011719 1022.082031 272.691406 C 1019.90625 285.925781 1016.957031 299.101562 1013.28125 312.003906 C 1010.277344 322.917969 1004.585938 332.78125 996.71875 340.804688 C 984.535156 353.039062 970.65625 363.320312 955.46875 371.394531 C 948.40625 375.324219 941.484375 379.625 934.8125 384.320312 C 923.460938 392.351562 910.859375 398.417969 897.617188 402.316406 C 887.023438 405.457031 876.402344 408.707031 866.007812 412.453125 C 859.539062 414.71875 853.277344 417.59375 847.238281 420.964844 C 832.824219 429.101562 817.296875 435.1875 801.234375 439.128906 C 788.054688 442.253906 775.242188 447.261719 763.511719 453.972656 C 750.738281 461.800781 736.789062 463.851562 722.320312 463.203125 C 710.515625 462.699219 698.792969 462.324219 686.917969 461.128906 C 671.734375 459.644531 657.019531 455.5625 643.355469 448.792969 C 633.25 443.71875 625.015625 435.800781 619.605469 425.816406 C 605.253906 401.007812 598.351562 372.578125 599.71875 343.863281 C 600.421875 328.160156 601.101562 312.5625 602.875 297.101562 C 604.367188 286.410156 606.632812 275.78125 609.625 265.429688 C 613.074219 252.027344 617.105469 238.53125 624.882812 226.886719 C 633.558594 213.753906 642.800781 201.085938 652.257812 188.464844 C 655.046875 185.042969 658.433594 181.972656 662.125 179.539062 C 668.976562 174.546875 676.015625 169.710938 683.226562 165.136719 C 696.199219 156.90625 709.71875 149.242188 724.660156 145.277344 C 738.136719 141.316406 752.6875 143.113281 764.839844 150.105469 C 768.429688 152.148438 772.5 153.058594 776.617188 152.742188 C 783.640625 152.511719 790.660156 153.296875 797.546875 155.175781 C 803.886719 156.480469 810.335938 156.800781 816.742188 156.320312 C 839.070312 155.019531 861.292969 152.679688 883.007812 146.066406 C 906.285156 139.015625 929.160156 130.746094 951.894531 122.109375 C 964.789062 117.234375 977.804688 112.835938 990.722656 107.855469 C 995.761719 105.945312 1000.488281 103.402344 1005.382812 101.125 C 1011.671875 98.144531 1018.589844 96.878906 1025.46875 97.292969 C 1040.152344 97.992188 1051.960938 109.523438 1053.199219 124.085938 C 1053.589844 134.40625 1052.539062 144.632812 1049.664062 154.453125 Z M 778.160156 155.898438 C 773.339844 156.84375 768.367188 155.957031 764.179688 153.558594 C 752.015625 146.109375 737.203125 144.484375 723.582031 149.085938 C 714.128906 152.144531 705.015625 156.179688 696.464844 161.238281 C 684.027344 168.578125 672.148438 176.945312 660.105469 185.046875 C 658.355469 186.34375 656.660156 187.878906 655.351562 189.71875 C 644.523438 202.933594 634.753906 216.945312 626.066406 231.648438 C 619.707031 242.488281 616.035156 254.375 613.003906 266.410156 C 610.058594 276.550781 607.839844 286.964844 606.265625 297.523438 C 604.492188 311.972656 604.160156 326.523438 603.136719 341.140625 C 601.5625 366.773438 606.566406 392.640625 617.871094 415.980469 C 624 429.277344 632.851562 440.480469 646.714844 446.84375 C 657.429688 451.71875 668.800781 455.164062 680.535156 457 C 696.144531 459.59375 711.984375 459.652344 727.882812 459.945312 C 739.257812 460.355469 750.664062 457.621094 760.480469 451.945312 C 773.34375 444.699219 787.15625 439.242188 801.527344 435.820312 C 817.433594 432.066406 832.640625 425.910156 846.625 417.679688 C 848.671875 416.5625 850.722656 415.445312 852.851562 414.460938 C 865.859375 408.597656 879.265625 403.949219 893.097656 400.40625 C 905.898438 396.972656 918.117188 391.605469 929.171875 384.40625 C 939.941406 377.480469 950.851562 370.925781 961.8125 364.152344 C 974.035156 356.765625 985.367188 347.828125 995.414062 337.589844 C 1005.175781 327.625 1009.742188 315.261719 1012.667969 302.191406 C 1015.402344 289.980469 1017.597656 277.648438 1020.222656 265.414062 C 1023.964844 248.703125 1028 232.167969 1031.527344 215.410156 C 1035.601562 196.1875 1040.109375 177.0625 1045.707031 158.066406 C 1048.808594 147.738281 1050.21875 136.914062 1049.949219 126.058594 C 1049.535156 109.316406 1035.898438 101.425781 1024.273438 100.625 C 1016.75 100.066406 1009.976562 102.714844 1003.128906 105.679688 C 992.910156 110.144531 982.738281 114.390625 972.402344 118.378906 C 958.03125 123.824219 943.683594 129.160156 929.167969 134.234375 C 899.636719 144.613281 870.175781 155.679688 838.445312 157.804688 C 826.007812 158.621094 813.726562 159.246094 801.382812 159.632812 C 794.492188 159.777344 787.769531 159.175781 780.925781 159.105469 C 778.582031 159.03125 778 158.113281 778.160156 155.898438 Z M 744.984375 175.023438 C 754.300781 177.105469 762.503906 181.640625 770.960938 185.558594 C 802.652344 200.1875 835.863281 209.53125 870.875 209.832031 C 882.882812 209.929688 894.820312 208.328125 905.496094 201.828125 C 908.222656 200.191406 910.808594 198.183594 913.179688 196.125 C 920.007812 190.230469 927.65625 185.191406 935.734375 181.261719 C 942.652344 177.972656 950.390625 176.554688 958.148438 177.054688 C 961.636719 177.046875 965.046875 178.375 967.664062 180.757812 C 970.515625 183.085938 972.949219 185.765625 975.207031 188.746094 C 990.785156 210.566406 999.886719 236.226562 1001.53125 263.03125 C 1001.980469 272.578125 1000.277344 282.207031 996.394531 291.011719 C 992.046875 301.402344 988.398438 312.171875 981.351562 321.054688 C 972.0625 332.925781 962.203125 344.328125 949.167969 352.324219 C 933.0625 361.992188 914.871094 367.933594 896.148438 369.707031 C 871.246094 372.457031 846.355469 375.660156 821.492188 378.757812 C 808.683594 380.726562 796.429688 385.746094 785.945312 393.414062 C 775.078125 400.769531 763.929688 407.382812 752.839844 414.238281 C 745.261719 418.953125 737.746094 423.910156 729.917969 428.230469 C 725.085938 430.75 720.046875 432.660156 714.867188 434.199219 C 709.140625 436.179688 702.835938 435.21875 698.007812 431.664062 C 694.894531 429.503906 691.730469 427.558594 688.925781 425.019531 C 680.011719 417.625 671.207031 410.257812 662.601562 402.480469 C 647.355469 388.71875 638.683594 371.707031 637.503906 350.855469 C 636.59375 331.304688 636.433594 311.921875 639.976562 292.582031 C 643.9375 271.867188 653.011719 252.414062 666.34375 236.050781 C 676.980469 222.683594 688.019531 209.519531 698.957031 196.328125 C 703.914062 190.238281 709.71875 184.902344 716.210938 180.507812 C 717.941406 179.316406 719.144531 177.449219 721.0625 176.417969 C 722.945312 175.039062 725.183594 174.078125 727.492188 173.808594 C 733.265625 173.636719 739 174.132812 744.832031 174.199219 Z M 643.65625 290.703125 C 639.601562 310.832031 639.414062 332.273438 641.070312 354.015625 C 642.113281 369.4375 648.648438 383.949219 659.566406 394.941406 C 671.308594 406.792969 684.035156 417.738281 697.457031 427.605469 C 703.183594 432.148438 710.847656 433.074219 717.457031 430.167969 C 725.554688 427.144531 733.390625 423.273438 740.644531 418.484375 C 749.320312 412.886719 758.097656 407.316406 766.878906 401.746094 C 772.25 398.335938 777.871094 395.320312 782.863281 391.597656 C 794.625 382.757812 808.59375 377.109375 823.1875 375.199219 C 848.613281 372.117188 874.121094 369.164062 899.460938 365.949219 C 919.019531 363.460938 937.402344 357.679688 953.179688 345.460938 C 970.0625 332.816406 983.109375 315.710938 990.984375 296.101562 C 995.714844 284 999.519531 272.027344 998.074219 258.882812 C 996.15625 239.328125 990.175781 220.332031 980.410156 203.183594 C 976.824219 197.09375 972.824219 191.363281 968.453125 185.773438 C 966.21875 182.6875 962.734375 180.667969 959 180.28125 C 952.730469 179.667969 946.46875 180.515625 940.585938 182.6875 C 931.441406 186.375 923.054688 191.699219 915.734375 198.273438 C 908.574219 204.65625 899.84375 209 890.414062 210.941406 C 875.960938 214.230469 861.195312 213.402344 846.796875 211.417969 C 819.183594 207.710938 792.441406 199.589844 767.410156 187.351562 C 758.515625 182.886719 749.621094 178.421875 739.664062 177.203125 C 732.535156 176.398438 725.050781 175.171875 719.875 182.226562 C 719.566406 182.605469 719.042969 182.9375 718.648438 183.1875 C 712.179688 187.476562 706.53125 192.625 701.59375 198.605469 C 690.839844 211.5 680.082031 224.390625 669.601562 237.566406 C 656.914062 253.0625 648.019531 271.207031 643.65625 290.703125 Z M 790 164.285156 C 790.121094 163.75 789.488281 163.046875 789.074219 162.390625 C 788.417969 162.804688 787.464844 163.042969 787.132812 163.53125 C 786.773438 164.125 787.640625 164.769531 788.070312 165.878906 C 788.878906 165.273438 789.878906 164.820312 790 164.285156 Z M 963.792969 286.980469 C 959.375 302.191406 952.785156 315.5625 939.941406 324.726562 C 935.046875 328.015625 929.757812 330.546875 924.1875 332.335938 C 911.695312 336.402344 898.816406 338.695312 885.652344 339.234375 C 864.574219 340.480469 843.550781 343.988281 823.167969 349.660156 C 818.726562 350.917969 814.15625 352.257812 809.597656 353.035156 C 794.644531 355.539062 781.28125 361.996094 768.15625 369.410156 C 759.152344 374.480469 749.8125 379.027344 740.417969 383.335938 C 732.605469 387.101562 723.726562 387.589844 715.566406 384.863281 C 705.632812 381.515625 697.167969 376.132812 691.984375 366.648438 C 685.410156 354.828125 679.894531 342.796875 679.179688 328.914062 C 678.910156 319.066406 680.746094 309.351562 684.460938 300.285156 C 690.363281 284.957031 698.527344 270.585938 708.640625 257.550781 C 712.300781 252.746094 715.476562 247.609375 719.351562 242.851562 C 724.15625 236.953125 729.449219 231.386719 734.660156 225.691406 C 735.980469 224.300781 737.519531 222.957031 738.84375 221.566406 C 740.082031 220.042969 740.609375 217.6875 743.273438 219.859375 C 743.484375 219.90625 744.25 219.515625 744.640625 219.265625 C 750.539062 215.523438 757.585938 214.175781 764.378906 215.46875 C 770.660156 216.539062 777.230469 216.320312 783.609375 216.960938 C 795.089844 218.40625 806.261719 221.242188 817.035156 225.339844 C 825.171875 228.175781 832.949219 231.601562 841.109375 234.328125 C 845.296875 235.714844 849.554688 236.78125 853.800781 237.394531 C 855.730469 237.824219 857.777344 237.71875 859.597656 237.117188 C 873.125 230.917969 887.730469 230.476562 901.859375 228.125 C 908.988281 226.910156 916.15625 226.039062 923.414062 225.75 C 934.792969 225.148438 945.675781 230.28125 952.371094 239.542969 C 963.558594 253.855469 966.066406 270.277344 963.613281 287.277344 Z M 794.535156 221.882812 C 791.941406 221.414062 788.753906 220.585938 785.421875 220.402344 C 777.925781 219.738281 770.320312 220.0625 762.910156 218.515625 C 753.703125 216.453125 746.578125 221.160156 740.214844 225.472656 C 733.414062 230.25 728.238281 237.304688 722.730469 243.832031 C 718.589844 248.753906 715.082031 254.382812 711.21875 259.589844 C 701.285156 272.328125 693.277344 286.511719 687.421875 301.625 C 684.113281 309.882812 682.386719 318.605469 682.417969 327.5 C 682.894531 341.441406 688.328125 353.34375 694.925781 365.058594 C 699.742188 373.671875 707.421875 378.539062 716.390625 381.671875 C 725.359375 384.804688 733.574219 383.269531 741.648438 379.339844 C 750.960938 374.898438 760.003906 370.171875 768.984375 365.207031 C 781.191406 358.378906 793.613281 352.609375 807.445312 350.082031 C 811.792969 349.253906 816.210938 348.105469 820.410156 346.90625 C 841.769531 340.890625 863.851562 337.167969 885.96875 335.820312 C 897.714844 335.074219 909.378906 333.183594 920.773438 329.996094 C 934.476562 326.539062 946.070312 317.433594 952.707031 304.859375 C 963.519531 285.683594 964.457031 266.429688 953.644531 246.914062 C 945.789062 232.78125 933.769531 226.71875 917.664062 228.851562 C 910.34375 229.910156 902.9375 230.839844 895.59375 232.011719 C 883.605469 233.828125 871.527344 235.0625 860.199219 239.949219 C 857.984375 240.804688 855.59375 240.945312 853.34375 240.441406 C 847.515625 239.359375 841.886719 237.878906 836.273438 235.832031 C 822.585938 230.183594 808.574219 225.472656 794.238281 221.703125 Z M 819.109375 246.726562 C 827.671875 249.65625 836.34375 252.609375 845.226562 255.609375 C 846.703125 256.050781 848.179688 256.496094 849.570312 256.804688 C 849.996094 256.902344 850.746094 257.070312 850.878906 256.988281 C 852.808594 254.382812 854.914062 256.539062 856.890625 256.757812 C 860.816406 257.296875 864.847656 257.863281 868.847656 258.082031 C 875.453125 258.210938 882.007812 259.566406 888.191406 262.074219 C 898.667969 267.007812 904.742188 278.039062 903.402344 289.550781 C 901.523438 303.980469 889.285156 314.964844 874.730469 315.191406 C 861.292969 315.449219 848.09375 317.667969 834.832031 319.652344 C 826.105469 320.960938 817.414062 322.613281 808.714844 323.816406 C 792.765625 325.757812 777.617188 332.15625 765.117188 342.292969 C 759.457031 346.988281 752.882812 350.242188 745.84375 352.042969 C 736.476562 354.222656 729.566406 351.4375 724.546875 343.226562 C 722.992188 340.628906 721.828125 337.78125 721.25 334.839844 C 718.96875 325.441406 720.363281 316.195312 722.105469 306.910156 C 725.175781 292.1875 731.433594 278.289062 740.53125 266.265625 C 744.394531 261.054688 749.675781 257.0625 755.710938 254.699219 C 762.273438 252.007812 768.726562 249.289062 775.433594 246.964844 C 784.113281 243.84375 793.191406 243.964844 802.175781 244.511719 C 807.722656 244.855469 813.230469 245.863281 819.238281 246.644531 Z M 818.390625 249.941406 C 812.488281 249.183594 807.167969 248.332031 801.863281 247.929688 C 793.542969 247.417969 785.128906 247.335938 777.210938 250.0625 C 770.140625 252.53125 763.183594 255.472656 756.253906 258.308594 C 750.5625 260.632812 745.734375 264.617188 742.265625 269.578125 C 731.339844 284.230469 724.851562 301.675781 723.355469 319.902344 C 722.550781 326.019531 723.183594 332.234375 725.351562 338.121094 C 729.476562 347.816406 736.113281 351.328125 745.921875 348.6875 C 747.933594 348.234375 749.886719 347.546875 751.671875 346.597656 C 756.140625 344.222656 760.464844 341.480469 764.597656 338.578125 C 775.277344 330.058594 787.886719 324.441406 801.351562 322.058594 C 807.765625 321.019531 814.21875 320.324219 820.683594 319.070312 C 839.550781 315.644531 858.441406 312.109375 877.734375 311.816406 C 883.03125 311.765625 888.054688 309.402344 891.441406 305.324219 C 893.695312 302.789062 895.652344 300.078125 897.523438 297.234375 C 903.464844 287.765625 899.152344 269.363281 886.851562 265.039062 C 880.894531 263.027344 874.765625 261.769531 868.554688 261.394531 C 864.238281 261.101562 859.90625 260.355469 855.550781 259.71875 C 853.8125 259.445312 852.101562 258.046875 850.550781 259.949219 C 850.375 260.25 849.410156 260.03125 848.765625 259.890625 C 847.160156 259.53125 845.449219 259.144531 843.914062 258.464844 C 835.136719 255.488281 826.488281 252.429688 818.328125 249.703125 Z M 818.390625 249.941406 " fill-opacity="1" fill-rule="nonzero"/></g></g></g></svg>