<?xml version="1.0" encoding="UTF-8"?><svg xmlns="http://www.w3.org/2000/svg" xmlns:xlink="http://www.w3.org/1999/xlink" width="1200" zoomAndPan="magnify" viewBox="0 0 1200 299.999988" height="299.999988" preserveAspectRatio="xMidYMid meet" version="1.0"><defs><clipPath id="clip-0"><path d="M 33 0 L 527 0 L 527 180 L 33 180 Z M 33 0 " clip-rule="nonzero"/></clipPath><clipPath id="clip-1"><path d="M 38.40625 -276.453125 L 571.289062 -216.445312 L 523.871094 204.640625 L -9.011719 144.636719 Z M 38.40625 -276.453125 " clip-rule="nonzero"/></clipPath><clipPath id="clip-2"><path d="M 38.40625 -276.453125 L 571.289062 -216.445312 L 523.871094 204.640625 L -9.011719 144.636719 Z M 38.40625 -276.453125 " clip-rule="nonzero"/></clipPath><clipPath id="clip-3"><path d="M 878 99 L 1200 99 L 1200 300 L 878 300 Z M 878 99 " clip-rule="nonzero"/></clipPath><clipPath id="clip-4"><path d="M 882.980469 42.273438 L 1415.863281 102.28125 L 1368.445312 523.367188 L 835.5625 463.363281 Z M 882.980469 42.273438 " clip-rule="nonzero"/></clipPath><clipPath id="clip-5"><path d="M 882.980469 42.273438 L 1415.863281 102.28125 L 1368.445312 523.367188 L 835.5625 463.363281 Z M 882.980469 42.273438 " clip-rule="nonzero"/></clipPath><clipPath id="clip-6"><path d="M 211 0 L 743 0 L 743 178 L 211 178 Z M 211 0 " clip-rule="nonzero"/></clipPath><clipPath id="clip-7"><path d="M 786.929688 36.46875 L 446.21875 303.28125 L 196.054688 -16.167969 L 536.761719 -282.984375 Z M 786.929688 36.46875 " clip-rule="nonzero"/></clipPath><clipPath id="clip-8"><path d="M 786.929688 36.46875 L 446.21875 303.28125 L 196.054688 -16.167969 L 536.761719 -282.984375 Z M 786.929688 36.46875 " clip-rule="nonzero"/></clipPath><clipPath id="clip-9"><path d="M 364 151 L 1107 151 L 1107 300 L 364 300 Z M 364 151 " clip-rule="nonzero"/></clipPath><clipPath id="clip-10"><path d="M 1169.996094 239.097656 L 904.164062 834.171875 L 346.070312 584.855469 L 611.902344 -10.214844 Z M 1169.996094 239.097656 " clip-rule="nonzero"/></clipPath><clipPath id="clip-11"><path d="M 1169.996094 239.097656 L 904.164062 834.171875 L 346.070312 584.855469 L 611.902344 -10.214844 Z M 1169.996094 239.097656 " clip-rule="nonzero"/></clipPath></defs><rect x="-120" width="1440" fill="rgb(100%, 100%, 100%)" y="-29.999999" height="359.999986" fill-opacity="1"/><rect x="-120" width="1440" fill="rgb(96.469116%, 94.509888%, 92.939758%)" y="-29.999999" height="359.999986" fill-opacity="1"/><g clip-path="url(#clip-0)"><g clip-path="url(#clip-1)"><g clip-path="url(#clip-2)"><path fill="rgb(77.648926%, 74.508667%, 68.629456%)" d="M 91.890625 -151.390625 C 36.433594 -95.617188 7.015625 7.628906 65.425781 83.613281 C 123.839844 159.597656 236.625 145.035156 312.726562 165.988281 C 388.832031 186.941406 484.371094 197.699219 516.042969 92.210938 C 547.808594 -13.265625 504.253906 -45.433594 380.449219 -136.273438 C 256.640625 -227.109375 198.300781 -258.445312 91.890625 -151.390625 Z M 91.890625 -151.390625 " fill-opacity="1" fill-rule="nonzero"/></g></g></g><g clip-path="url(#clip-3)"><g clip-path="url(#clip-4)"><g clip-path="url(#clip-5)"><path fill="rgb(77.648926%, 74.508667%, 68.629456%)" d="M 936.464844 167.335938 C 881.007812 223.109375 851.589844 326.355469 910 402.339844 C 968.414062 478.324219 1081.199219 463.761719 1157.300781 484.714844 C 1233.40625 505.664062 1328.949219 516.425781 1360.617188 410.9375 C 1392.382812 305.460938 1348.828125 273.292969 1225.023438 182.453125 C 1101.214844 91.617188 1042.875 60.28125 936.464844 167.335938 Z M 936.464844 167.335938 " fill-opacity="1" fill-rule="nonzero"/></g></g></g><g clip-path="url(#clip-6)"><g clip-path="url(#clip-7)"><g clip-path="url(#clip-8)"><path fill="rgb(100%, 100%, 100%)" d="M 238.175781 -48.324219 C 250.785156 -57.640625 263.613281 -66.851562 276.085938 -76.339844 C 287.972656 -85.511719 299.453125 -95.199219 311.273438 -104.453125 C 318.867188 -110.398438 327 -115.65625 334.273438 -122.183594 C 344.324219 -131.03125 354.9375 -139.34375 365.933594 -146.980469 C 375.160156 -153.507812 385.792969 -157.523438 396.945312 -158.746094 C 414.089844 -160.488281 431.3125 -159.648438 448.148438 -156.28125 C 456.089844 -154.847656 464.152344 -153.792969 472.273438 -153.195312 C 486.125 -152.21875 499.691406 -148.933594 512.382812 -143.570312 C 522.550781 -139.292969 532.808594 -135.085938 543.207031 -131.40625 C 549.632812 -129.066406 556.285156 -127.320312 563.082031 -126.105469 C 579.359375 -123.273438 595.199219 -118.152344 610.097656 -111.039062 C 622.25 -105.117188 635.3125 -100.878906 648.617188 -98.640625 C 663.429688 -96.609375 675.5 -89.371094 686.261719 -79.714844 C 695.058594 -71.859375 703.875 -64.15625 712.289062 -55.722656 C 723.074219 -44.972656 731.855469 -32.515625 738.121094 -18.648438 C 742.71875 -8.335938 744.070312 2.988281 741.929688 14.121094 C 737.316406 42.351562 724.664062 68.675781 705.445312 89.984375 C 694.96875 101.667969 684.578125 113.28125 673.425781 124.101562 C 665.511719 131.414062 657.039062 138.1875 648.175781 144.292969 C 637.035156 152.460938 625.386719 160.332031 612.011719 164.40625 C 597.007812 169.0625 581.859375 172.996094 566.574219 176.761719 C 562.25 177.640625 557.695312 177.871094 553.304688 177.414062 C 544.855469 176.9375 536.359375 176.21875 527.902344 175.191406 C 512.675781 173.34375 497.390625 170.710938 483.34375 164.324219 C 470.429688 158.855469 460.328125 148.265625 455.371094 135.179688 C 453.886719 131.332031 451.320312 128.054688 447.941406 125.695312 C 442.375 121.429688 437.449219 116.386719 433.320312 110.578125 C 429.25 105.558594 424.472656 101.234375 419.222656 97.554688 C 401.15625 84.4375 382.519531 72.1875 361.5625 63.558594 C 339.128906 54.285156 316.234375 46.199219 293.21875 38.492188 C 280.175781 34.101562 267.34375 29.265625 254.214844 24.941406 C 249.117188 23.230469 243.855469 22.203125 238.636719 20.867188 C 231.894531 19.191406 225.753906 15.792969 220.703125 11.121094 C 209.808594 1.296875 207.980469 -15.078125 216.238281 -27.109375 C 222.46875 -35.324219 229.75 -42.558594 238.175781 -48.324219 Z M 448.75 122.28125 C 453.070312 124.601562 456.347656 128.429688 458.0625 132.929688 C 462.746094 146.375 473.152344 157 486.582031 162.0625 C 495.820312 165.679688 505.40625 168.328125 515.210938 169.828125 C 529.457031 172.023438 543.921875 173.078125 558.351562 174.4375 C 560.523438 174.542969 562.796875 174.429688 564.976562 173.835938 C 581.695312 170.480469 598.105469 165.839844 614.113281 159.980469 C 625.882812 155.632812 636.238281 148.773438 646.1875 141.398438 C 654.875 135.429688 663.179688 128.789062 671.074219 121.632812 C 681.585938 111.59375 691.042969 100.566406 701.082031 89.925781 C 718.511719 71.128906 731.011719 47.984375 737.046875 22.8125 C 740.722656 8.667969 740.976562 -5.582031 734.296875 -19.265625 C 729.105469 -29.808594 722.503906 -39.660156 714.605469 -48.5 C 704.195312 -60.375 692 -70.4375 679.910156 -80.71875 C 671.382812 -88.230469 660.84375 -93.332031 649.675781 -95.15625 C 635.15625 -97.699219 621.039062 -102.21875 607.777344 -108.667969 C 593.121094 -115.828125 577.484375 -120.691406 561.476562 -123.179688 C 559.1875 -123.613281 556.902344 -124.046875 554.632812 -124.632812 C 540.878906 -128.332031 527.585938 -133.222656 514.664062 -139.238281 C 502.605469 -144.679688 489.777344 -148.265625 476.6875 -149.695312 C 463.988281 -151.160156 451.414062 -152.996094 438.667969 -154.699219 C 424.558594 -156.722656 410.152344 -156.988281 395.917969 -155.4375 C 382.074219 -153.917969 370.730469 -147.257812 360.203125 -139.015625 C 350.367188 -131.3125 340.871094 -123.179688 331.101562 -115.390625 C 317.644531 -104.851562 304.066406 -94.636719 290.746094 -83.925781 C 275.4375 -71.660156 259.859375 -59.738281 243.519531 -48.613281 C 234.589844 -42.59375 226.65625 -35.128906 219.996094 -26.574219 C 209.726562 -13.382812 215.265625 1.332031 223.734375 9.304688 C 229.191406 14.492188 236.097656 16.734375 243.261719 18.773438 C 253.972656 21.792969 264.515625 24.941406 275.019531 28.402344 C 289.5625 33.289062 304.019531 38.242188 318.4375 43.5 C 347.804688 54.164062 377.554688 64.25 403.402344 82.679688 C 413.519531 89.917969 423.402344 97.203125 433.175781 104.707031 C 438.589844 108.953125 443.398438 113.671875 448.640625 118.054688 C 450.402344 119.59375 450.273438 120.671875 448.75 122.28125 Z M 486.460938 128.496094 C 480.589844 120.996094 477.121094 112.300781 473.070312 103.929688 C 457.851562 72.589844 438.117188 44.367188 411.269531 21.992188 C 402.0625 14.320312 391.828125 8.007812 379.476562 6.273438 C 376.332031 5.8125 373.0625 5.730469 369.933594 5.816406 C 360.929688 6.050781 351.835938 5.105469 343.117188 3.03125 C 335.691406 1.195312 328.820312 -2.601562 323.144531 -7.894531 C 320.445312 -10.09375 318.648438 -13.277344 318.140625 -16.773438 C 317.410156 -20.375 317.222656 -23.984375 317.367188 -27.714844 C 319.140625 -54.417969 328.347656 -79.988281 344.027344 -101.726562 C 349.722656 -109.386719 357.132812 -115.746094 365.699219 -120.089844 C 375.628906 -125.363281 385.257812 -131.371094 396.320312 -133.773438 C 411 -137.066406 425.828125 -139.636719 440.949219 -137.566406 C 459.503906 -134.847656 477.308594 -127.929688 492.886719 -117.457031 C 513.855469 -103.832031 535.105469 -90.5625 556.265625 -77.226562 C 567.402344 -70.648438 580.039062 -66.773438 592.984375 -66.0625 C 606.027344 -64.871094 618.820312 -62.929688 631.722656 -61.207031 C 640.554688 -60.058594 649.496094 -59.128906 658.273438 -57.519531 C 663.597656 -56.402344 668.695312 -54.691406 673.671875 -52.605469 C 679.347656 -50.511719 683.609375 -45.78125 685.085938 -39.984375 C 686.125 -36.347656 687.335938 -32.84375 687.894531 -29.109375 C 690.101562 -17.761719 692.238281 -6.5 693.964844 4.945312 C 697.035156 25.214844 692.96875 43.839844 680.691406 60.6875 C 669.023438 76.359375 656.886719 91.429688 641.917969 104.125 C 625.757812 117.617188 606.441406 126.898438 585.796875 131.105469 C 569.125 134.699219 552.273438 137.882812 535.484375 141.152344 C 527.804688 142.71875 519.945312 143.167969 512.152344 142.457031 C 510.066406 142.285156 507.953125 142.964844 505.820312 142.546875 C 503.492188 142.421875 501.15625 141.75 499.203125 140.496094 C 494.636719 136.976562 490.519531 132.96875 486.0625 129.226562 Z M 637.886719 103.246094 C 653.75 90.269531 667.460938 73.828125 679.9375 55.992188 C 688.882812 43.421875 693.015625 28.082031 691.539062 12.6875 C 689.96875 -3.890625 687.066406 -20.394531 682.945312 -36.5 C 681.394531 -43.632812 676.0625 -49.195312 669.121094 -51.128906 C 660.953125 -53.914062 652.453125 -55.882812 643.824219 -56.773438 C 633.585938 -57.9375 623.28125 -59.1875 612.976562 -60.4375 C 606.671875 -61.203125 600.421875 -62.429688 594.214844 -62.714844 C 579.539062 -63.324219 565.179688 -67.796875 552.703125 -75.554688 C 531.121094 -89.253906 509.554688 -103.105469 487.953125 -116.648438 C 471.277344 -127.101562 453.421875 -134.261719 433.511719 -134.804688 C 412.476562 -135.714844 391.582031 -130.761719 373.097656 -120.597656 C 361.785156 -114.242188 351.277344 -107.402344 344.074219 -96.339844 C 333.1875 -80.023438 325.789062 -61.570312 322.484375 -42.152344 C 321.398438 -35.183594 320.863281 -28.226562 320.703125 -21.144531 C 320.472656 -17.347656 321.886719 -13.585938 324.527344 -10.925781 C 328.980469 -6.484375 334.351562 -3.179688 340.269531 -1.136719 C 349.664062 1.800781 359.507812 2.992188 369.316406 2.542969 C 378.886719 2.144531 388.375 4.308594 396.882812 8.777344 C 410.125 15.375 421.003906 25.359375 430.867188 35.996094 C 449.847656 56.324219 465.359375 79.507812 476.945312 104.789062 C 480.988281 113.863281 485.035156 122.9375 491.953125 130.175781 C 496.945312 135.308594 501.949219 140.988281 510.410156 138.8125 C 510.890625 138.714844 511.503906 138.789062 511.964844 138.847656 C 519.675781 139.625 527.292969 139.222656 534.890625 137.726562 C 551.347656 134.574219 567.808594 131.421875 584.238281 127.875 C 603.839844 123.929688 622.183594 115.542969 637.886719 103.246094 Z M 444.910156 108.316406 C 444.480469 108.65625 444.519531 109.597656 444.425781 110.363281 C 445.195312 110.457031 446.082031 110.878906 446.648438 110.710938 C 447.300781 110.480469 447.039062 109.433594 447.410156 108.308594 C 446.398438 108.261719 445.34375 107.980469 444.910156 108.316406 Z M 388.320312 -96.355469 C 401.351562 -105.308594 414.902344 -111.46875 430.617188 -110.417969 C 436.480469 -109.863281 442.160156 -108.472656 447.597656 -106.328125 C 459.816406 -101.570312 471.210938 -95.195312 481.71875 -87.285156 C 498.78125 -74.917969 517.234375 -64.328125 536.5625 -55.820312 C 540.789062 -53.980469 545.164062 -52.121094 549.179688 -49.839844 C 562.308594 -42.316406 576.710938 -38.855469 591.535156 -36.273438 C 601.699219 -34.496094 611.785156 -32.101562 621.765625 -29.484375 C 630.179688 -27.449219 637.34375 -22.210938 641.921875 -14.945312 C 647.472656 -6.078125 650.605469 3.429688 648.609375 14.035156 C 646.210938 27.320312 642.855469 40.101562 634.625 51.273438 C 628.605469 59.050781 621.042969 65.390625 612.4375 70.039062 C 598.183594 78.144531 582.789062 84.078125 566.734375 87.75 C 560.871094 89.144531 555.167969 91.105469 549.164062 92.328125 C 541.722656 93.84375 534.117188 94.792969 526.492188 95.898438 C 524.589844 96.136719 522.550781 96.199219 520.648438 96.4375 C 518.730469 96.828125 516.832031 98.316406 516.148438 94.953125 C 516.011719 94.78125 515.175781 94.601562 514.714844 94.546875 C 507.792969 93.707031 501.5 90.289062 497.074219 84.992188 C 492.898438 80.195312 487.6875 76.207031 483.167969 71.679688 C 475.214844 63.300781 468.382812 54.046875 462.65625 44.066406 C 458.167969 36.734375 454.328125 29.167969 449.753906 21.902344 C 447.398438 18.179688 444.78125 14.664062 441.890625 11.503906 C 440.675781 9.953125 439.027344 8.738281 437.238281 8.054688 C 422.871094 4.28125 411.3125 -4.609375 398.917969 -11.734375 C 392.640625 -15.304688 386.558594 -19.164062 380.769531 -23.53125 C 371.601562 -30.261719 366.445312 -41.109375 367.132812 -52.496094 C 367.550781 -70.628906 376 -84.898438 388.648438 -96.472656 Z M 477.839844 60.96875 C 479.546875 62.96875 481.488281 65.625 483.945312 67.871094 C 489.3125 73.128906 495.390625 77.6875 500.132812 83.570312 C 505.941406 90.984375 514.417969 91.859375 522.058594 92.550781 C 530.335938 93.164062 538.792969 90.992188 547.175781 89.433594 C 553.488281 88.25 559.753906 86.121094 566.035156 84.542969 C 581.761719 80.988281 596.917969 75.101562 611 67.136719 C 618.777344 62.851562 625.632812 57.207031 631.230469 50.316406 C 639.683594 39.246094 643.019531 26.621094 645.332031 13.402344 C 647.0625 3.703125 644.210938 -4.914062 639.265625 -13.003906 C 634.320312 -21.097656 627.007812 -25.105469 618.285156 -27.175781 C 608.285156 -29.640625 598.316406 -31.707031 588.238281 -33.554688 C 574.492188 -36 561.25 -39.402344 548.96875 -46.199219 C 545.089844 -48.308594 540.953125 -50.214844 536.949219 -51.949219 C 516.648438 -60.808594 497.242188 -71.902344 479.3125 -84.847656 C 469.769531 -91.703125 459.566406 -97.621094 448.753906 -102.367188 C 435.984375 -108.363281 421.273438 -108.664062 408.191406 -103.152344 C 387.710938 -95.179688 374.8125 -80.90625 370.8125 -58.996094 C 367.941406 -43.113281 373.386719 -30.828125 387.171875 -22.289062 C 393.496094 -18.476562 399.800781 -14.511719 406.210938 -10.769531 C 416.617188 -4.589844 426.726562 2.097656 438.566406 5.484375 C 440.816406 6.226562 442.753906 7.628906 444.171875 9.441406 C 447.988281 13.960938 451.394531 18.667969 454.4375 23.796875 C 461.433594 36.816406 469.273438 49.316406 477.957031 61.292969 Z M 474.585938 26.238281 C 469.824219 18.5625 464.996094 10.796875 460.035156 2.859375 C 459.175781 1.585938 458.316406 0.3125 457.4375 -0.808594 C 457.167969 -1.15625 456.695312 -1.757812 456.542969 -1.777344 C 453.402344 -0.988281 453.144531 -3.984375 451.753906 -5.402344 C 449.066406 -8.300781 446.308594 -11.289062 443.359375 -13.988281 C 438.339844 -18.265625 434.136719 -23.457031 430.945312 -29.304688 C 425.976562 -39.742188 428.265625 -52.105469 436.582031 -60.144531 C 447.160156 -70.097656 463.558594 -70.839844 474.945312 -61.8125 C 485.480469 -53.511719 497.078125 -46.875 508.574219 -40.019531 C 516.140625 -35.511719 523.894531 -31.292969 531.375 -26.71875 C 544.921875 -18.132812 560.664062 -13.488281 576.730469 -13.414062 C 584.070312 -13.460938 591.207031 -11.8125 597.777344 -8.753906 C 606.390625 -4.507812 609.964844 2.011719 608.648438 11.527344 C 608.207031 14.515625 607.304688 17.449219 605.890625 20.085938 C 601.707031 28.789062 594.777344 35.046875 587.5625 41.117188 C 575.875 50.546875 562.253906 57.320312 547.621094 60.851562 C 541.339844 62.429688 534.738281 62.175781 528.582031 60.179688 C 521.8125 58.109375 515.109375 56.125 508.460938 53.679688 C 499.785156 50.597656 492.847656 44.765625 486.257812 38.660156 C 482.191406 34.886719 478.574219 30.625 474.429688 26.222656 Z M 477.171875 24.214844 C 481.25 28.53125 484.816406 32.554688 488.664062 36.21875 C 494.761719 41.875 501.207031 47.261719 509.046875 50.164062 C 516.070312 52.730469 523.300781 54.855469 530.445312 57.050781 C 536.3125 58.855469 542.558594 58.832031 548.378906 57.195312 C 566.082031 52.789062 582.128906 43.421875 594.8125 30.292969 C 599.304688 26.078125 602.75 20.875 604.796875 14.960938 C 607.746094 4.863281 604.84375 -2.042969 595.59375 -6.210938 C 593.757812 -7.132812 591.8125 -7.839844 589.832031 -8.234375 C 584.882812 -9.226562 579.808594 -9.839844 574.78125 -10.21875 C 561.144531 -10.386719 547.855469 -14.03125 535.949219 -20.703125 C 530.335938 -23.957031 524.917969 -27.503906 519.132812 -30.625 C 502.394531 -39.910156 485.570312 -49.128906 470.488281 -61.105469 C 466.363281 -64.414062 460.988281 -65.769531 455.792969 -64.761719 C 452.453125 -64.230469 449.226562 -63.371094 445.980469 -62.359375 C 435.402344 -58.804688 427.09375 -41.867188 433.855469 -30.746094 C 437.183594 -25.425781 441.121094 -20.582031 445.679688 -16.359375 C 448.828125 -13.402344 451.703125 -10.089844 454.664062 -6.84375 C 455.828125 -5.53125 456.269531 -3.371094 458.667969 -3.859375 C 458.996094 -3.976562 459.601562 -3.199219 460.007812 -2.683594 C 461.019531 -1.390625 462.101562 -0.0117188 462.855469 1.484375 C 467.75 9.335938 472.492188 17.167969 477.066406 24.433594 Z M 477.171875 24.214844 " fill-opacity="1" fill-rule="nonzero"/></g></g></g><g clip-path="url(#clip-9)"><g clip-path="url(#clip-10)"><g clip-path="url(#clip-11)"><path fill="rgb(100%, 100%, 100%)" d="M 379.523438 512.394531 C 389.75 491.117188 400.347656 469.820312 410.277344 448.410156 C 419.648438 427.832031 428.117188 406.851562 437.339844 386.207031 C 443.261719 372.949219 450.390625 360.226562 455.480469 346.410156 C 462.636719 327.558594 470.917969 309.023438 480.183594 291.109375 C 487.871094 275.925781 499.203125 263.09375 513.195312 253.617188 C 534.800781 239.230469 558.324219 228.230469 583.117188 220.867188 C 594.699219 217.183594 606.183594 212.914062 617.417969 207.992188 C 636.546875 199.546875 656.929688 194.371094 677.605469 192.582031 C 694.160156 191.121094 710.78125 189.507812 727.21875 187.089844 C 737.425781 185.683594 747.515625 183.324219 757.421875 180.15625 C 781.089844 172.476562 805.792969 168.144531 830.636719 167.132812 C 850.992188 166.464844 871.371094 162.917969 890.664062 156.53125 C 911.824219 148.8125 932.996094 149.957031 954.125 155.238281 C 971.371094 159.507812 988.535156 163.558594 1005.675781 168.867188 C 1027.609375 175.59375 1048.074219 186 1066.191406 200.058594 C 1079.570312 210.554688 1089.339844 224.679688 1094.335938 241.007812 C 1108.070312 281.851562 1109.757812 325.804688 1099.167969 367.710938 C 1093.445312 390.640625 1087.785156 413.417969 1080.554688 435.671875 C 1075.164062 450.976562 1068.648438 465.964844 1061.148438 480.328125 C 1052.066406 499.042969 1042.09375 517.726562 1027.152344 532.5625 C 1010.449219 549.320312 993.046875 565.226562 975.339844 580.996094 C 970.207031 585.207031 964.300781 588.71875 958.132812 591.203125 C 946.546875 596.511719 934.726562 601.53125 922.738281 606.121094 C 901.160156 614.375 878.949219 621.625 855.746094 623.007812 C 834.703125 624.8125 813.792969 617.824219 797.972656 603.886719 C 793.289062 599.808594 787.566406 597.25 781.402344 596.484375 C 770.988281 594.726562 760.875 591.472656 751.285156 586.648438 C 742.332031 582.828125 732.921875 580.429688 723.34375 579.226562 C 690.046875 574.472656 656.601562 571.28125 622.621094 574.539062 C 586.210938 577.976562 550.03125 583.324219 513.953125 589.257812 C 493.492188 592.589844 473 595.183594 452.472656 598.667969 C 444.476562 599.976562 436.75 602.308594 428.855469 604.207031 C 418.699219 606.71875 408.128906 606.515625 398.117188 603.847656 C 376.683594 598.433594 362.722656 577.914062 365.246094 556.085938 C 367.753906 540.757812 372.359375 526.003906 379.523438 512.394531 Z M 780.074219 591.371094 C 787.460938 591.417969 794.523438 594.214844 799.976562 599 C 815.675781 613.605469 837.023438 620.429688 858.46875 617.71875 C 873.316406 616.035156 887.949219 612.8125 902.0625 607.910156 C 922.582031 600.808594 942.585938 592.03125 962.753906 583.6875 C 965.722656 582.300781 968.675781 580.546875 971.160156 578.222656 C 991.058594 561.988281 1009.640625 544.261719 1026.832031 525.1875 C 1039.441406 511.117188 1048.40625 494.699219 1056.464844 477.871094 C 1063.828125 463.808594 1070.207031 449.125 1075.683594 434.039062 C 1082.609375 413.273438 1087.445312 391.933594 1093.316406 370.699219 C 1103.292969 333.402344 1103.640625 293.789062 1093.953125 256.023438 C 1088.886719 234.597656 1079.191406 215.445312 1060.65625 201.925781 C 1046.324219 191.542969 1030.59375 183.070312 1013.851562 176.859375 C 991.625 168.375 968.296875 163.558594 944.957031 158.371094 C 928.3125 154.371094 910.6875 154.992188 894.527344 160.425781 C 873.40625 167.261719 851.417969 171.175781 829.222656 171.921875 C 804.660156 172.699219 780.410156 177.230469 757.34375 185.183594 C 753.992188 186.21875 750.640625 187.25 747.203125 188.066406 C 726.285156 192.820312 705.140625 195.664062 683.695312 196.75 C 663.808594 197.988281 644.199219 202.242188 625.757812 209.546875 C 607.816406 216.539062 589.78125 222.941406 571.605469 229.644531 C 551.390625 236.878906 532.019531 246.664062 514.15625 258.746094 C 496.792969 270.511719 486.371094 287.367188 478.160156 305.75 C 470.484375 322.929688 463.566406 340.445312 456.042969 357.6875 C 445.542969 381.195312 434.65625 404.351562 424.457031 427.992188 C 412.707031 455.097656 400.355469 481.9375 386.433594 508.253906 C 378.78125 522.546875 373.472656 538.070312 370.625 554.152344 C 366.238281 578.945312 383.980469 594.640625 400.875 599.296875 C 411.789062 602.367188 422.566406 600.492188 433.542969 598.164062 C 449.933594 594.640625 466.1875 591.417969 482.613281 588.632812 C 505.417969 584.902344 528.160156 581.324219 551.066406 578.183594 C 597.683594 571.714844 644.402344 564.207031 691.796875 570.554688 C 710.371094 573.070312 728.660156 575.816406 746.964844 578.929688 C 757.160156 580.777344 766.890625 583.675781 776.953125 585.820312 C 780.386719 586.632812 780.96875 588.15625 780.074219 591.371094 Z M 834.671875 573.105469 C 821.566406 567.25 810.832031 558.117188 799.539062 549.820312 C 757.203125 518.796875 711.050781 495.105469 659.542969 484.207031 C 641.875 480.472656 623.800781 479.265625 606.132812 485.652344 C 601.625 487.253906 597.214844 489.441406 593.105469 491.761719 C 581.28125 498.410156 568.503906 503.546875 555.429688 506.925781 C 544.253906 509.703125 532.425781 509.484375 521.140625 506.429688 C 516 505.398438 511.367188 502.425781 508.226562 498.128906 C 504.714844 493.851562 501.925781 489.171875 499.492188 484.105469 C 483.050781 447.296875 477.300781 406.773438 482.878906 366.785156 C 485.066406 352.578125 490.457031 338.898438 498.804688 327.085938 C 508.316406 313.078125 516.90625 298.296875 529.945312 287.3125 C 547.179688 272.597656 565.113281 258.738281 586.707031 250.851562 C 613.328125 241.414062 641.914062 238.097656 670.035156 241.078125 C 707.554688 244.460938 745.191406 247.175781 782.757812 250.042969 C 802.222656 250.964844 821.78125 247.226562 839.519531 239.066406 C 857.730469 231.472656 876.136719 225.054688 894.527344 218.269531 C 907.101562 213.582031 919.660156 208.527344 932.480469 204.496094 C 940.359375 202.230469 948.355469 200.921875 956.445312 200.199219 C 965.476562 198.992188 974.484375 202.292969 980.535156 208.972656 C 984.480469 213.082031 988.558594 216.894531 991.933594 221.472656 C 1002.863281 235.03125 1013.640625 248.523438 1024 262.550781 C 1042.359375 287.382812 1050.058594 315.042969 1045.574219 346.117188 C 1041.074219 375.199219 1035.523438 403.808594 1024.527344 431.25 C 1012.507812 460.585938 993.324219 486.539062 968.789062 506.671875 C 949.125 523.191406 928.921875 539.292969 908.871094 555.457031 C 899.742188 562.949219 889.59375 569.082031 878.710938 573.617188 C 875.8125 574.855469 873.480469 577.246094 870.34375 578.195312 C 867.160156 579.664062 863.570312 580.410156 860.089844 580.121094 C 851.53125 578.648438 843.226562 576.203125 834.652344 574.363281 Z M 1018.542969 432.914062 C 1030.527344 404.46875 1037.210938 372.929688 1041.261719 340.394531 C 1044.324219 317.363281 1039.027344 294.027344 1026.21875 274.566406 C 1012.457031 253.597656 996.96875 233.664062 980.136719 215.121094 C 973.050781 206.710938 962.035156 203.058594 951.425781 205.367188 C 938.589844 207.40625 925.886719 210.769531 913.765625 215.65625 C 899.3125 221.308594 884.710938 226.898438 870.105469 232.484375 C 861.171875 235.902344 851.984375 238.667969 843.519531 242.660156 C 823.546875 252.175781 801.273438 256.324219 779.199219 254.777344 C 740.808594 251.726562 702.335938 248.457031 664.03125 245.625 C 634.464844 243.445312 605.644531 246.476562 578.75 259.765625 C 550.09375 273.355469 525.757812 294.660156 508.300781 321.203125 C 497.710938 337.621094 488.53125 354.128906 486.734375 373.929688 C 483.722656 403.3125 486.863281 433.09375 496.136719 461.277344 C 499.601562 471.320312 503.785156 480.964844 508.558594 490.507812 C 510.925781 495.722656 515.457031 499.734375 520.847656 501.417969 C 529.90625 504.199219 539.386719 504.820312 548.703125 503.378906 C 563.285156 500.671875 577.234375 495.335938 589.980469 487.835938 C 602.441406 480.570312 616.605469 476.773438 631.078125 476.730469 C 653.359375 476.203125 674.875 481.835938 695.5 489.0625 C 735.089844 502.769531 772.070312 522.726562 805.304688 548.238281 C 817.082031 557.472656 828.855469 566.710938 843.167969 571.476562 C 853.429688 574.796875 864.09375 578.835938 873.828125 569.992188 C 874.398438 569.523438 875.269531 569.1875 875.925781 568.9375 C 886.738281 564.550781 896.601562 558.652344 905.660156 551.3125 C 925.359375 535.53125 945.058594 519.75 964.441406 503.460938 C 987.765625 484.417969 1006.292969 460.339844 1018.542969 432.914062 Z M 765.128906 575.476562 C 764.792969 576.230469 765.511719 577.457031 765.925781 578.546875 C 767.015625 578.128906 768.492188 578.066406 769.128906 577.445312 C 769.835938 576.675781 768.75 575.46875 768.449219 573.707031 C 767.074219 574.359375 765.464844 574.726562 765.128906 575.476562 Z M 545.644531 342.765625 C 556.695312 321.675781 570.402344 303.9375 592.0625 294.273438 C 600.261719 290.886719 608.8125 288.742188 617.558594 287.769531 C 637.179688 285.507812 656.84375 285.976562 676.40625 289.113281 C 707.839844 293.574219 739.867188 294.6875 771.601562 292.414062 C 778.519531 291.890625 785.65625 291.28125 792.609375 291.496094 C 815.390625 292.273438 837.011719 286.75 858.570312 279.75 C 873.355469 274.96875 888.472656 271.054688 903.609375 267.515625 C 916.246094 264.304688 929.476562 266.238281 940.6875 272.691406 C 954.324219 280.589844 965.191406 291.046875 970 306.574219 C 976.160156 325.953125 980.695312 345.332031 977.601562 366.003906 C 975.0625 380.59375 969.453125 394.355469 961.269531 406.609375 C 947.996094 427.429688 931.671875 446.167969 912.878906 462.351562 C 906.046875 468.339844 899.835938 474.964844 892.703125 480.816406 C 883.863281 488.070312 874.398438 494.691406 865.023438 501.527344 C 862.65625 503.183594 859.988281 504.703125 857.625 506.355469 C 855.34375 508.230469 853.863281 511.542969 850.585938 507.550781 C 850.285156 507.414062 849.042969 507.765625 848.390625 508.015625 C 838.582031 511.769531 827.792969 511.648438 818.171875 507.710938 C 809.230469 504.261719 799.484375 502.617188 790.277344 499.769531 C 773.789062 494.210938 758.171875 486.691406 743.515625 477.433594 C 732.375 470.828125 721.933594 463.457031 710.722656 457 C 704.96875 453.707031 699.011719 450.863281 692.933594 448.691406 C 690.222656 447.480469 687.175781 447.023438 684.308594 447.371094 C 662.519531 452.457031 640.867188 448.75 619.34375 447.992188 C 608.472656 447.652344 597.652344 446.796875 586.867188 445.050781 C 569.917969 442.542969 555.417969 431.726562 548.3125 416.078125 C 536.097656 391.644531 537.304688 366.695312 546 342.382812 Z M 775.640625 489.253906 C 779.324219 490.71875 783.773438 492.886719 788.628906 494.152344 C 799.480469 497.371094 810.78125 499.167969 821.246094 503.660156 C 834.199219 509.449219 846.101562 504.644531 856.765625 500.1875 C 868.21875 495.183594 877.953125 486.335938 888.019531 478.359375 C 895.585938 472.34375 902.4375 465.097656 909.6875 458.578125 C 928.128906 442.773438 944.164062 424.269531 957.308594 403.75 C 964.648438 392.570312 969.800781 380.230469 972.40625 367.117188 C 975.867188 346.429688 971.417969 327.269531 965.191406 308.039062 C 960.660156 293.90625 950.796875 284.4375 938.515625 277.144531 C 926.234375 269.851562 913.671875 269.660156 900.597656 273.039062 C 885.546875 276.796875 870.8125 281.0625 856.09375 285.695312 C 836.0625 292.109375 816.035156 296.898438 794.894531 296.492188 C 788.242188 296.414062 781.390625 296.789062 774.839844 297.296875 C 741.566406 299.785156 707.914062 298.667969 674.921875 294.050781 C 657.386719 291.640625 639.628906 290.941406 621.886719 292.234375 C 600.660156 293.234375 580.855469 303.183594 567.320312 319.734375 C 545.660156 344.761719 538.53125 372.847656 548.636719 404.835938 C 555.992188 428.007812 571.898438 440.535156 596.269531 442.203125 C 607.375 442.828125 618.566406 443.667969 629.738281 444.140625 C 647.945312 445.042969 666.117188 446.835938 684.269531 443.011719 C 687.785156 442.417969 691.355469 442.925781 694.515625 444.339844 C 702.785156 447.671875 710.636719 451.539062 718.296875 456.226562 C 736.785156 468.640625 756.027344 479.769531 776.023438 489.605469 Z M 746.847656 445.300781 C 735.101562 438.429688 723.207031 431.488281 711.007812 424.410156 C 708.964844 423.316406 706.925781 422.226562 704.96875 421.351562 C 704.363281 421.082031 703.308594 420.609375 703.09375 420.695312 C 699.46875 423.953125 697.011719 420.148438 694.167969 419.238281 C 688.542969 417.265625 682.765625 415.230469 676.9375 413.710938 C 667.246094 411.546875 657.988281 407.59375 649.625 402.050781 C 635.65625 391.652344 629.996094 373.582031 635.410156 357.019531 C 642.488281 336.320312 663.804688 323.792969 685.320312 327.800781 C 705.199219 331.4375 725.316406 332.109375 745.453125 333.152344 C 758.699219 333.828125 772 333.988281 785.183594 334.8125 C 809.269531 336.71875 833.503906 331.816406 854.953125 320.613281 C 864.695312 315.382812 875.355469 312.554688 886.261719 312.003906 C 900.71875 311.59375 910.074219 317.761719 915.019531 331.359375 C 916.535156 335.648438 917.398438 340.191406 917.371094 344.699219 C 917.929688 359.226562 913.109375 372.441406 907.773438 385.601562 C 898.851562 406.378906 885.480469 424.988281 868.480469 439.988281 C 861.230469 446.511719 852.257812 450.816406 842.65625 452.492188 C 832.183594 454.5 821.859375 456.578125 811.285156 458 C 797.5625 460.003906 784.214844 457.113281 771.140625 453.621094 C 763.070312 451.464844 755.253906 448.332031 746.632812 445.386719 Z M 748.867188 440.78125 C 757.339844 443.660156 764.921875 446.507812 772.625 448.683594 C 784.730469 451.921875 797.101562 454.558594 809.585938 452.902344 C 820.746094 451.382812 831.875 449.121094 842.9375 447.015625 C 852.019531 445.289062 860.320312 440.863281 866.917969 434.589844 C 887.390625 416.261719 902.164062 392.496094 909.808594 366.085938 C 912.824219 357.308594 913.746094 347.960938 912.308594 338.640625 C 909.125 323.121094 900.394531 315.96875 885.148438 316.929688 C 882.046875 316.988281 878.964844 317.421875 876.046875 318.285156 C 868.757812 320.453125 861.5625 323.203125 854.605469 326.242188 C 836.328125 335.609375 816.066406 340.113281 795.511719 339.609375 C 785.746094 339.222656 776.03125 338.316406 766.128906 338.230469 C 737.300781 337.644531 708.40625 337.207031 679.886719 331.878906 C 672.066406 330.375 663.953125 332.355469 657.746094 337.351562 C 653.667969 340.410156 649.976562 343.824219 646.367188 347.453125 C 634.785156 359.632812 635.648438 388.035156 652.480469 398.085938 C 660.660156 402.824219 669.316406 406.507812 678.355469 408.921875 C 684.636719 410.640625 690.792969 413.03125 697.023438 415.269531 C 699.5 416.195312 701.605469 418.765625 704.457031 416.421875 C 704.808594 416.039062 706.164062 416.644531 707.070312 417.046875 C 709.328125 418.058594 711.738281 419.132812 713.796875 420.59375 C 725.84375 427.605469 737.671875 434.695312 748.882812 441.148438 Z M 748.867188 440.78125 " fill-opacity="1" fill-rule="nonzero"/></g></g></g></svg>