<svg xmlns="http://www.w3.org/2000/svg" viewBox="0 0 71.65 71.65">
  <g id="OBJECTS">
    <g fill="#fff">
      <path d="M14.94,22.94V48.71a3.64,3.64,0,0,0,3.63,3.64h34.5a3.64,3.64,0,0,0,3.64-3.64V22.94a3.64,3.64,0,0,0-3.64-3.64H18.57A3.64,3.64,0,0,0,14.94,22.94Zm34.86.25-14,15.94-14-15.94Zm-31,25.27V25.65L34.15,43.12a2.22,2.22,0,0,0,3.34,0L52.82,25.65V48.46Z"/>
      <rect x="2" y="2" width="67.65" height="67.65" rx="12.61" fill="none" stroke="#fff" stroke-linecap="round" stroke-linejoin="round" stroke-width="4"/>
    </g>
  </g>
</svg>
