<?xml version="1.0" encoding="UTF-8"?><svg xmlns="http://www.w3.org/2000/svg" xmlns:xlink="http://www.w3.org/1999/xlink" width="1200" zoomAndPan="magnify" viewBox="0 0 1200 299.999988" height="299.999988" preserveAspectRatio="xMidYMid meet" version="1.0"><defs><clipPath id="clip-0"><path d="M 0 0 L 259 0 L 259 239 L 0 239 Z M 0 0 " clip-rule="nonzero"/></clipPath><clipPath id="clip-1"><path d="M 263.496094 -236.582031 L 332.003906 215.757812 L -26.164062 270 L -94.667969 -182.339844 Z M 263.496094 -236.582031 " clip-rule="nonzero"/></clipPath><clipPath id="clip-2"><path d="M 263.496094 -236.582031 L 332.003906 215.757812 L -26.164062 270 L -94.667969 -182.339844 Z M 263.496094 -236.582031 " clip-rule="nonzero"/></clipPath><clipPath id="clip-3"><path d="M 685 185 L 1200 185 L 1200 300 L 685 300 Z M 685 185 " clip-rule="nonzero"/></clipPath><clipPath id="clip-4"><path d="M 1385.71875 525.648438 L 833.648438 801.71875 L 615.273438 365.027344 L 1167.347656 88.957031 Z M 1385.71875 525.648438 " clip-rule="nonzero"/></clipPath><clipPath id="clip-5"><path d="M 1385.71875 525.648438 L 833.648438 801.71875 L 615.273438 365.027344 L 1167.347656 88.957031 Z M 1385.71875 525.648438 " clip-rule="nonzero"/></clipPath><clipPath id="clip-6"><path d="M 75 0 L 729 0 L 729 193 L 75 193 Z M 75 0 " clip-rule="nonzero"/></clipPath><clipPath id="clip-7"><path d="M 788.441406 -42.863281 L 442.265625 367.660156 L 56.96875 42.757812 L 403.148438 -367.765625 Z M 788.441406 -42.863281 " clip-rule="nonzero"/></clipPath><clipPath id="clip-8"><path d="M 788.441406 -42.863281 L 442.265625 367.660156 L 56.96875 42.757812 L 403.148438 -367.765625 Z M 788.441406 -42.863281 " clip-rule="nonzero"/></clipPath><clipPath id="clip-9"><path d="M 511 217 L 1033 217 L 1033 300 L 511 300 Z M 511 217 " clip-rule="nonzero"/></clipPath><clipPath id="clip-10"><path d="M 1080.789062 339.339844 L 804.234375 667.300781 L 496.339844 407.667969 L 772.894531 79.707031 Z M 1080.789062 339.339844 " clip-rule="nonzero"/></clipPath><clipPath id="clip-11"><path d="M 1080.789062 339.339844 L 804.234375 667.300781 L 496.339844 407.667969 L 772.894531 79.707031 Z M 1080.789062 339.339844 " clip-rule="nonzero"/></clipPath></defs><rect x="-120" width="1440" fill="rgb(100%, 100%, 100%)" y="-29.999999" height="359.999986" fill-opacity="1"/><rect x="-120" width="1440" fill="rgb(100%, 100%, 100%)" y="-29.999999" height="359.999986" fill-opacity="1"/><g clip-path="url(#clip-0)"><g clip-path="url(#clip-1)"><g clip-path="url(#clip-2)"><path fill="rgb(96.469116%, 94.509888%, 92.939758%)" d="M 172.089844 -164.808594 C 113.757812 -198.140625 22 -199.5 -27.796875 -134.535156 C -77.589844 -69.570312 -40.582031 20.128906 -41.023438 87.472656 C -41.460938 154.820312 -29.179688 235.921875 64.929688 238.640625 C 159.050781 241.441406 175.960938 198.425781 223.53125 76.292969 C 271.105469 -45.84375 284.050781 -100.855469 172.089844 -164.808594 Z M 172.089844 -164.808594 " fill-opacity="1" fill-rule="nonzero"/></g></g></g><g clip-path="url(#clip-3)"><g clip-path="url(#clip-4)"><g clip-path="url(#clip-5)"><path fill="rgb(96.469116%, 94.509888%, 92.939758%)" d="M 1255.636719 438.308594 C 1274.1875 349.640625 1237.824219 231.417969 1133.769531 194.597656 C 1029.714844 157.78125 929.964844 242.5625 843.355469 270.019531 C 756.742188 297.480469 657.757812 346.976562 693.359375 468.78125 C 728.855469 590.636719 791.082031 594.421875 967.585938 604.597656 C 1144.089844 614.773438 1220.070312 608.484375 1255.636719 438.308594 Z M 1255.636719 438.308594 " fill-opacity="1" fill-rule="nonzero"/></g></g></g><g clip-path="url(#clip-6)"><g clip-path="url(#clip-7)"><g clip-path="url(#clip-8)"><path fill="rgb(17.649841%, 15.689087%, 12.548828%)" d="M 99.980469 -6.984375 C 112.933594 -21.5 126.179688 -35.941406 138.921875 -50.632812 C 151.035156 -64.785156 162.527344 -79.464844 174.535156 -93.707031 C 182.25 -102.855469 190.796875 -111.300781 197.972656 -121.078125 C 207.941406 -134.375 218.722656 -147.164062 230.144531 -159.230469 C 239.691406 -169.5 251.59375 -177.074219 264.835938 -181.378906 C 285.230469 -187.839844 306.375 -191.179688 327.691406 -191.347656 C 337.707031 -191.617188 347.777344 -192.375 357.796875 -193.707031 C 374.875 -196.023438 392.199219 -195.46875 408.988281 -192.164062 C 422.433594 -189.539062 435.96875 -187.019531 449.542969 -185.179688 C 457.945312 -183.960938 466.476562 -183.527344 475.046875 -183.773438 C 495.546875 -184.449219 516.101562 -182.238281 536.011719 -177.363281 C 552.289062 -173.242188 569.242188 -171.398438 585.980469 -172.046875 C 604.5 -173.328125 621.011719 -167.585938 636.546875 -158.578125 C 649.234375 -151.257812 661.90625 -144.128906 674.277344 -136.007812 C 690.121094 -125.675781 703.960938 -112.757812 715.109375 -97.488281 C 723.316406 -86.121094 727.835938 -72.703125 728.070312 -58.628906 C 729.648438 -23.148438 720.96875 12.042969 703.03125 42.808594 C 693.273438 59.660156 683.601562 76.402344 672.800781 92.378906 C 665.039062 103.265625 656.464844 113.644531 647.253906 123.304688 C 635.792969 136.054688 623.632812 148.570312 608.417969 156.90625 C 591.371094 166.363281 573.957031 174.984375 556.339844 183.425781 C 551.3125 185.589844 545.835938 187.019531 540.382812 187.582031 C 529.992188 189.136719 519.484375 190.414062 508.945312 191.308594 C 489.972656 192.917969 470.722656 193.585938 452.027344 189.382812 C 434.945312 186.003906 419.972656 175.695312 410.617188 161.042969 C 407.839844 156.746094 403.886719 153.410156 399.179688 151.398438 C 391.328125 147.625 384.058594 142.738281 377.5625 136.726562 C 371.339844 131.65625 364.429688 127.609375 357.117188 124.46875 C 331.824219 113.101562 306.058594 102.933594 278.398438 97.75 C 248.769531 92.15625 218.894531 88.128906 188.960938 84.589844 C 171.992188 82.554688 155.167969 79.925781 138.113281 77.996094 C 131.480469 77.207031 124.828125 77.289062 118.140625 76.988281 C 109.523438 76.65625 101.195312 74.082031 93.871094 69.683594 C 78.128906 60.5 71.742188 41.0625 78.714844 24.351562 C 84.199219 12.789062 91.207031 2.15625 99.980469 -6.984375 Z M 399.289062 147.046875 C 405.132812 148.769531 410.089844 152.597656 413.320312 157.628906 C 422.429688 172.78125 437.78125 183.0625 455.390625 185.816406 C 467.535156 187.875 479.859375 188.660156 492.160156 188.003906 C 510.03125 187.066406 527.878906 184.683594 545.753906 182.683594 C 548.421875 182.265625 551.160156 181.550781 553.65625 180.277344 C 573.121094 171.964844 591.878906 162.171875 609.847656 150.996094 C 623.039062 142.734375 633.882812 131.777344 644.101562 120.292969 C 653.140625 110.839844 661.539062 100.667969 669.3125 89.96875 C 679.53125 75.109375 688.222656 59.316406 697.714844 43.839844 C 714.117188 16.582031 723.417969 -14.707031 724.347656 -46.828125 C 725.214844 -64.953125 721.902344 -82.332031 710.300781 -97.273438 C 701.308594 -108.769531 690.78125 -119.070312 678.933594 -127.8125 C 663.257812 -139.609375 645.878906 -148.753906 628.566406 -158.191406 C 616.296875 -165.160156 602.191406 -168.691406 588.152344 -168.082031 C 569.863281 -167.496094 551.554688 -169.414062 533.800781 -173.894531 C 514.167969 -178.886719 493.925781 -180.835938 473.839844 -179.808594 C 470.949219 -179.757812 468.058594 -179.703125 465.148438 -179.84375 C 447.496094 -180.855469 430.097656 -183.433594 412.859375 -187.472656 C 396.824219 -191.035156 380.320312 -192.144531 364.046875 -190.570312 C 348.246094 -189.132812 332.496094 -188.183594 316.574219 -187.023438 C 298.910156 -185.914062 281.335938 -182.585938 264.429688 -177.101562 C 247.996094 -171.75 235.898438 -160.78125 225.207031 -148.097656 C 215.210938 -136.246094 205.738281 -123.957031 195.851562 -112.019531 C 182.175781 -95.804688 168.277344 -79.953125 154.808594 -63.5625 C 139.324219 -44.777344 123.425781 -26.347656 106.402344 -8.6875 C 97.082031 0.886719 89.339844 11.964844 83.421875 24.050781 C 74.292969 42.679688 84.773438 59.164062 97.09375 66.710938 C 105.042969 71.632812 114.003906 72.609375 123.230469 73.273438 C 137.019531 74.226562 150.628906 75.390625 164.273438 76.933594 C 183.191406 79.191406 202.019531 81.550781 220.882812 84.292969 C 259.285156 89.816406 298.007812 94.542969 334.105469 110.398438 C 348.246094 116.628906 362.105469 122.984375 375.894531 129.628906 C 383.554688 133.421875 390.597656 137.9375 398.082031 141.9375 C 400.617188 143.363281 400.730469 144.703125 399.289062 147.046875 Z M 446.703125 145.050781 C 437.65625 137.421875 431.234375 127.734375 424.179688 118.585938 C 397.710938 84.347656 366.546875 55.042969 328.226562 34.648438 C 315.085938 27.65625 301.042969 22.574219 285.589844 23.597656 C 281.652344 23.832031 277.660156 24.558594 273.875 25.457031 C 262.996094 28.023438 251.703125 29.171875 240.578125 28.863281 C 231.089844 28.507812 221.769531 25.632812 213.527344 20.636719 C 209.6875 18.648438 206.695312 15.234375 205.1875 11.113281 C 203.382812 6.925781 202.238281 2.582031 201.464844 -1.984375 C 196.824219 -34.890625 201.507812 -68.296875 215.035156 -98.6875 C 220.007812 -109.4375 227.390625 -119.039062 236.699219 -126.488281 C 247.425781 -135.410156 257.597656 -145.152344 270.429688 -150.875 C 287.433594 -158.589844 304.800781 -165.46875 323.703125 -166.78125 C 346.941406 -168.175781 370.34375 -164.273438 391.941406 -155.488281 C 420.890625 -144.238281 450.085938 -133.492188 479.195312 -122.644531 C 494.402344 -117.46875 510.746094 -115.957031 526.660156 -118.371094 C 542.8125 -120.222656 558.855469 -121.101562 574.972656 -122.277344 C 586 -123.113281 597.101562 -124.25 608.175781 -124.515625 C 614.933594 -124.507812 621.566406 -123.71875 628.140625 -122.441406 C 635.570312 -121.335938 641.953125 -116.664062 645.222656 -109.996094 C 647.410156 -105.835938 649.777344 -101.886719 651.40625 -97.488281 C 656.972656 -84.257812 662.4375 -71.109375 667.445312 -57.636719 C 676.332031 -33.78125 676.128906 -10.117188 665.496094 13.46875 C 655.304688 35.46875 644.386719 56.855469 629.425781 76.078125 C 613.21875 96.5625 592.105469 112.734375 568.085938 123.074219 C 548.742188 131.664062 529.070312 139.800781 509.503906 148.023438 C 500.5625 151.871094 491.128906 154.40625 481.472656 155.515625 C 478.894531 155.832031 476.5 157.191406 473.800781 157.226562 C 470.945312 157.664062 467.933594 157.4375 465.238281 156.410156 C 458.796875 153.289062 452.773438 149.457031 446.402344 146.039062 Z M 624.304688 76.03125 C 640.28125 56.238281 652.761719 32.789062 663.382812 7.953125 C 671.058594 -9.589844 672.179688 -29.277344 666.464844 -47.613281 C 660.34375 -67.363281 652.617188 -86.683594 643.507812 -105.214844 C 639.808594 -113.492188 631.917969 -118.902344 622.988281 -119.496094 C 612.355469 -120.8125 601.523438 -121.054688 590.808594 -119.953125 C 578.070312 -118.773438 565.230469 -117.683594 552.386719 -116.59375 C 544.53125 -115.929688 536.625 -115.835938 529.007812 -114.613281 C 511.019531 -111.636719 492.429688 -113.4375 475.292969 -119.707031 C 445.578125 -130.890625 415.84375 -142.265625 386.144531 -153.257812 C 363.222656 -161.738281 339.703125 -165.917969 315.367188 -161.539062 C 289.570312 -157.324219 265.4375 -146.011719 245.558594 -128.976562 C 233.433594 -118.394531 222.398438 -107.421875 216.460938 -92.148438 C 207.382812 -69.566406 203.082031 -45.265625 204.007812 -20.828125 C 204.464844 -12.085938 205.582031 -3.492188 207.1875 5.152344 C 207.875 9.824219 210.550781 14.039062 214.4375 16.601562 C 220.980469 20.875 228.347656 23.53125 236.058594 24.515625 C 248.222656 25.703125 260.488281 24.664062 272.296875 21.636719 C 283.824219 18.726562 295.90625 18.957031 307.382812 22.230469 C 325.152344 26.898438 340.914062 36.277344 355.605469 46.707031 C 383.84375 66.605469 408.59375 90.855469 429.109375 118.648438 C 436.332031 128.652344 443.554688 138.65625 453.804688 145.703125 C 461.179688 150.675781 468.707031 156.308594 478.433594 151.527344 C 478.992188 151.285156 479.757812 151.222656 480.332031 151.171875 C 489.898438 150.167969 499.054688 147.75 507.90625 144.007812 C 527.105469 136.007812 546.308594 128.007812 565.371094 119.539062 C 588.1875 109.785156 608.351562 94.949219 624.304688 76.03125 Z M 391.074219 131.046875 C 390.636719 131.566406 390.925781 132.699219 391.007812 133.65625 C 391.964844 133.574219 393.148438 133.863281 393.792969 133.515625 C 394.527344 133.070312 393.941406 131.863281 394.109375 130.402344 C 392.871094 130.601562 391.511719 130.527344 391.074219 131.046875 Z M 270.230469 -103.371094 C 283.789062 -117.550781 298.6875 -128.464844 318.050781 -131.171875 C 325.320312 -131.980469 332.578125 -131.726562 339.730469 -130.5 C 355.789062 -127.808594 371.257812 -122.945312 386.039062 -115.996094 C 409.925781 -105.28125 435.042969 -97.085938 460.699219 -91.636719 C 466.300781 -90.472656 472.09375 -89.320312 477.550781 -87.566406 C 495.421875 -81.746094 513.808594 -81.183594 532.480469 -81.800781 C 545.28125 -82.210938 558.148438 -81.855469 570.945312 -81.203125 C 581.6875 -80.859375 591.726562 -76.308594 599.136719 -68.636719 C 608.140625 -59.265625 614.367188 -48.5 614.640625 -35.109375 C 615.101562 -18.355469 614.277344 -1.972656 607.121094 13.691406 C 601.78125 24.664062 594.203125 34.28125 584.929688 42.113281 C 569.667969 55.570312 552.46875 66.683594 533.894531 75.207031 C 527.117188 78.386719 520.6875 82.214844 513.703125 85.21875 C 505.046875 88.945312 496.042969 92.027344 487.054688 95.296875 C 484.804688 96.070312 482.347656 96.664062 480.09375 97.433594 C 477.859375 98.394531 475.933594 100.683594 474.246094 96.769531 C 474.039062 96.597656 472.976562 96.589844 472.402344 96.636719 C 463.777344 97.371094 455.257812 94.8125 448.53125 89.496094 C 442.238281 84.71875 434.890625 81.191406 428.246094 76.835938 C 416.449219 68.667969 405.792969 59.148438 396.292969 48.46875 C 388.972656 40.691406 382.382812 32.46875 374.972656 24.796875 C 371.164062 20.871094 367.089844 17.261719 362.773438 14.152344 C 360.898438 12.574219 358.589844 11.515625 356.242188 11.136719 C 337.820312 10.1875 321.515625 2.308594 304.636719 -3.210938 C 296.101562 -5.960938 287.722656 -9.109375 279.578125 -12.957031 C 266.722656 -18.816406 257.699219 -30.691406 255.636719 -44.707031 C 251.53125 -66.84375 258.171875 -86.324219 270.597656 -103.59375 Z M 419.046875 65.164062 C 421.628906 67.164062 424.664062 69.898438 428.222656 72.011719 C 436.082031 77.039062 444.628906 81.042969 451.890625 86.988281 C 460.832031 94.53125 471.359375 93.445312 480.820312 92.351562 C 491.03125 91.003906 500.761719 86.222656 510.550781 82.207031 C 517.917969 79.167969 524.996094 74.996094 532.222656 71.488281 C 550.433594 63.1875 567.355469 52.195312 582.441406 38.949219 C 590.804688 31.773438 597.695312 23.175781 602.75 13.386719 C 610.203125 -2.207031 611.042969 -18.394531 610.496094 -35.046875 C 610.128906 -47.273438 604.472656 -57.023438 596.402344 -65.605469 C 588.335938 -74.1875 578.429688 -77.207031 567.300781 -77.515625 C 554.523438 -77.976562 541.878906 -77.964844 529.164062 -77.660156 C 511.832031 -77.15625 494.875 -77.9375 478.222656 -83.085938 C 472.972656 -84.667969 467.457031 -85.9375 462.152344 -87.03125 C 435.226562 -92.660156 408.824219 -101.230469 383.738281 -112.421875 C 370.398438 -118.335938 356.492188 -122.945312 342.140625 -125.976562 C 325.097656 -130.03125 307.140625 -126.675781 292.648438 -116.660156 C 269.789062 -101.789062 257.742188 -81.175781 258.457031 -53.535156 C 259.003906 -33.507812 268.75 -19.953125 287.675781 -13.0625 C 296.332031 -10.035156 305.003906 -6.8125 313.746094 -3.886719 C 327.964844 0.988281 341.953125 6.558594 357.199219 7.675781 C 360.125 8.007812 362.835938 9.226562 365.019531 11.066406 C 370.808594 15.59375 376.144531 20.449219 381.148438 25.914062 C 392.964844 39.96875 405.671875 53.171875 419.273438 65.53125 Z M 406.253906 23.78125 C 398.515625 15.65625 390.671875 7.441406 382.621094 -0.949219 C 381.253906 -2.277344 379.886719 -3.609375 378.535156 -4.75 C 378.117188 -5.101562 377.390625 -5.714844 377.199219 -5.699219 C 373.585938 -3.945312 372.507812 -7.519531 370.460938 -8.890625 C 366.453125 -11.738281 362.34375 -14.667969 358.074219 -17.203125 C 350.886719 -21.128906 344.453125 -26.375 339.089844 -32.675781 C 330.394531 -44.097656 330.03125 -59.703125 338.089844 -71.582031 C 348.414062 -86.355469 368.15625 -91.410156 384.289062 -83.320312 C 399.207031 -75.898438 414.988281 -70.773438 430.703125 -65.347656 C 441.042969 -61.785156 451.542969 -58.625 461.796875 -54.957031 C 480.445312 -47.949219 500.757812 -46.292969 520.300781 -50.269531 C 529.210938 -52.183594 538.300781 -51.988281 547.066406 -49.933594 C 558.613281 -46.957031 564.617188 -39.9375 565.4375 -28.039062 C 565.660156 -24.292969 565.308594 -20.5 564.261719 -16.9375 C 561.390625 -5.304688 554.5625 4.058594 547.335938 13.261719 C 535.535156 27.679688 520.703125 39.359375 503.816406 47.355469 C 496.589844 50.863281 488.5 52.226562 480.511719 51.359375 C 471.757812 50.558594 463.105469 49.84375 454.40625 48.554688 C 443.078125 47.007812 433.164062 41.671875 423.601562 35.921875 C 417.699219 32.367188 412.21875 28.101562 406.0625 23.800781 Z M 408.882812 20.664062 C 414.9375 24.878906 420.296875 28.863281 425.902344 32.347656 C 434.753906 37.675781 443.957031 42.589844 454.222656 44.132812 C 463.410156 45.476562 472.738281 46.226562 481.980469 47.085938 C 489.570312 47.792969 497.15625 46.183594 503.808594 42.722656 C 524.203125 32.886719 541.324219 17.4375 553.394531 -1.730469 C 557.785156 -7.988281 560.644531 -15.183594 561.628906 -22.890625 C 562.644531 -35.910156 557.359375 -43.570312 545.0625 -46.289062 C 542.59375 -46.949219 540.050781 -47.3125 537.542969 -47.292969 C 531.273438 -47.242188 524.949219 -46.707031 518.746094 -45.890625 C 502.132812 -42.648438 485.054688 -43.707031 468.886719 -48.800781 C 461.238281 -51.339844 453.75 -54.273438 445.925781 -56.601562 C 423.222656 -63.652344 400.429688 -70.597656 379.054688 -81.332031 C 373.203125 -84.308594 366.324219 -84.59375 360.265625 -82.054688 C 356.339844 -80.5625 352.636719 -78.703125 348.953125 -76.65625 C 337 -69.65625 331.214844 -46.96875 342.257812 -35.164062 C 347.660156 -29.542969 353.675781 -24.648438 360.285156 -20.671875 C 364.867188 -17.875 369.203125 -14.574219 373.625 -11.378906 C 375.378906 -10.082031 376.460938 -7.566406 379.253906 -8.769531 C 379.621094 -8.992188 380.554688 -8.203125 381.179688 -7.675781 C 382.742188 -6.363281 384.40625 -4.960938 385.703125 -3.332031 C 393.648438 4.96875 401.402344 13.289062 408.8125 20.960938 Z M 408.882812 20.664062 " fill-opacity="1" fill-rule="nonzero"/></g></g></g><g clip-path="url(#clip-9)"><g clip-path="url(#clip-10)"><g clip-path="url(#clip-11)"><path fill="rgb(17.649841%, 15.689087%, 12.548828%)" d="M 530.703125 367.929688 C 541.050781 356.335938 551.632812 344.796875 561.8125 333.0625 C 571.488281 321.753906 580.667969 310.027344 590.261719 298.648438 C 596.425781 291.339844 603.253906 284.59375 608.988281 276.78125 C 616.949219 266.160156 625.5625 255.945312 634.6875 246.304688 C 642.316406 238.101562 651.824219 232.050781 662.40625 228.609375 C 678.699219 223.453125 695.59375 220.789062 712.625 220.65625 C 720.625 220.441406 728.671875 219.835938 736.679688 218.773438 C 750.324219 216.921875 764.167969 217.371094 777.582031 220.011719 C 788.324219 222.109375 799.140625 224.125 809.984375 225.597656 C 816.699219 226.570312 823.515625 226.917969 830.363281 226.722656 C 846.742188 226.183594 863.167969 227.957031 879.078125 231.851562 C 892.082031 235.144531 905.628906 236.621094 919.003906 236.105469 C 933.800781 235.082031 946.992188 239.671875 959.40625 246.871094 C 969.546875 252.722656 979.671875 258.417969 989.558594 264.90625 C 1002.214844 273.167969 1013.277344 283.488281 1022.183594 295.6875 C 1028.746094 304.773438 1032.359375 315.496094 1032.546875 326.738281 C 1033.8125 355.085938 1026.878906 383.203125 1012.554688 407.78125 C 1004.757812 421.242188 997.03125 434.621094 988.402344 447.382812 C 982.203125 456.082031 975.355469 464.371094 967.992188 472.089844 C 958.835938 482.273438 949.125 492.273438 936.96875 498.933594 C 923.347656 506.488281 909.4375 513.371094 895.359375 520.117188 C 891.34375 521.84375 886.96875 522.984375 882.609375 523.433594 C 874.308594 524.675781 865.914062 525.695312 857.492188 526.40625 C 842.332031 527.691406 826.953125 528.222656 812.011719 524.859375 C 798.363281 522.160156 786.402344 513.921875 778.925781 502.214844 C 776.703125 498.78125 773.542969 496.117188 769.78125 494.507812 C 763.511719 491.492188 757.703125 487.585938 752.507812 482.785156 C 747.535156 478.730469 742.015625 475.5 736.171875 472.984375 C 715.960938 463.902344 695.371094 455.773438 673.269531 451.632812 C 649.597656 447.160156 625.726562 443.9375 601.808594 441.105469 C 588.25 439.476562 574.804688 437.375 561.179688 435.832031 C 555.878906 435.199219 550.566406 435.265625 545.222656 435.023438 C 538.335938 434.757812 531.683594 432.699219 525.832031 429.1875 C 513.25 421.84375 508.144531 406.316406 513.714844 392.964844 C 518.09375 383.726562 523.691406 375.230469 530.703125 367.929688 Z M 769.871094 491.03125 C 774.539062 492.40625 778.5 495.464844 781.082031 499.488281 C 788.363281 511.59375 800.632812 519.808594 814.699219 522.011719 C 824.402344 523.65625 834.253906 524.289062 844.078125 523.765625 C 858.359375 523.019531 872.617188 521.117188 886.902344 519.519531 C 889.035156 519.1875 891.222656 518.613281 893.21875 517.597656 C 908.769531 510.960938 923.753906 503.136719 938.109375 494.207031 C 948.648438 487.609375 957.3125 478.855469 965.472656 469.683594 C 972.695312 462.128906 979.40625 454.003906 985.617188 445.457031 C 993.78125 433.585938 1000.722656 420.96875 1008.304688 408.605469 C 1021.40625 386.828125 1028.835938 361.832031 1029.574219 336.164062 C 1030.265625 321.6875 1027.613281 307.800781 1018.34375 295.859375 C 1011.160156 286.675781 1002.746094 278.441406 993.277344 271.457031 C 980.753906 262.027344 966.863281 254.722656 953.03125 247.179688 C 943.226562 241.609375 931.957031 238.785156 920.738281 239.273438 C 906.125 239.738281 891.496094 238.203125 877.308594 234.625 C 861.621094 230.632812 845.449219 229.070312 829.398438 229.890625 C 827.089844 229.929688 824.78125 229.972656 822.457031 229.859375 C 808.351562 229.050781 794.449219 226.988281 780.675781 223.761719 C 767.863281 220.914062 754.675781 220.023438 741.675781 221.28125 C 729.046875 222.425781 716.464844 223.183594 703.742188 224.105469 C 689.628906 224.992188 675.585938 227.648438 662.078125 232.03125 C 648.949219 236.304688 639.285156 245.066406 630.742188 255.199219 C 622.757812 264.664062 615.191406 274.484375 607.289062 284.019531 C 596.367188 296.976562 585.261719 309.636719 574.503906 322.730469 C 562.136719 337.738281 549.433594 352.460938 535.832031 366.570312 C 528.386719 374.21875 522.203125 383.070312 517.472656 392.722656 C 510.183594 407.609375 518.558594 420.777344 528.402344 426.808594 C 534.753906 430.742188 541.917969 431.523438 549.289062 432.058594 C 560.304688 432.820312 571.179688 433.75 582.082031 434.984375 C 597.199219 436.789062 612.242188 438.679688 627.3125 440.871094 C 658 445.289062 688.9375 449.070312 717.785156 461.742188 C 729.082031 466.722656 740.160156 471.800781 751.175781 477.113281 C 757.296875 480.140625 762.925781 483.753906 768.90625 486.945312 C 770.929688 488.085938 771.023438 489.160156 769.871094 491.03125 Z M 807.753906 489.441406 C 800.527344 483.34375 795.390625 475.605469 789.753906 468.292969 C 768.601562 440.933594 743.699219 417.519531 713.078125 401.21875 C 702.578125 395.632812 691.355469 391.570312 679.007812 392.382812 C 675.863281 392.574219 672.671875 393.152344 669.648438 393.871094 C 660.957031 395.917969 651.933594 396.835938 643.042969 396.585938 C 635.460938 396.304688 628.015625 394.003906 621.429688 390.011719 C 618.363281 388.421875 615.972656 385.691406 614.765625 382.402344 C 613.320312 379.054688 612.410156 375.585938 611.789062 371.933594 C 608.078125 345.644531 611.816406 318.953125 622.621094 294.675781 C 626.59375 286.085938 632.492188 278.414062 639.929688 272.464844 C 648.496094 265.339844 656.625 257.554688 666.875 252.984375 C 680.460938 246.824219 694.339844 241.328125 709.441406 240.28125 C 728.007812 239.171875 746.707031 242.292969 763.964844 249.3125 C 787.097656 258.304688 810.425781 266.890625 833.683594 275.5625 C 845.835938 279.703125 858.894531 280.910156 871.609375 278.984375 C 884.519531 277.503906 897.335938 276.804688 910.214844 275.867188 C 919.023438 275.199219 927.894531 274.292969 936.742188 274.085938 C 942.144531 274.089844 947.441406 274.722656 952.695312 275.742188 C 958.632812 276.625 963.730469 280.359375 966.347656 285.691406 C 968.09375 289.011719 969.984375 292.167969 971.285156 295.683594 C 975.738281 306.253906 980.105469 316.757812 984.105469 327.523438 C 991.210938 346.585938 991.050781 365.492188 982.558594 384.335938 C 974.417969 401.910156 965.695312 419 953.742188 434.355469 C 940.796875 450.71875 923.929688 463.636719 904.738281 471.894531 C 889.285156 478.757812 873.566406 485.253906 857.933594 491.824219 C 850.789062 494.894531 843.253906 496.921875 835.539062 497.804688 C 833.476562 498.058594 831.566406 499.144531 829.410156 499.171875 C 827.125 499.519531 824.71875 499.339844 822.566406 498.519531 C 817.417969 496.023438 812.605469 492.960938 807.515625 490.230469 Z M 949.652344 434.316406 C 962.414062 418.503906 972.382812 399.769531 980.871094 379.925781 C 987 365.914062 987.894531 350.183594 983.324219 335.53125 C 978.429688 319.753906 972.253906 304.3125 964.976562 289.507812 C 962.019531 282.894531 955.710938 278.570312 948.578125 278.09375 C 940.082031 277.039062 931.425781 276.847656 922.863281 277.726562 C 912.6875 278.667969 902.429688 279.535156 892.167969 280.40625 C 885.890625 280.9375 879.574219 281.007812 873.488281 281.988281 C 859.113281 284.359375 844.261719 282.921875 830.570312 277.910156 C 806.824219 268.972656 783.066406 259.878906 759.335938 251.09375 C 741.019531 244.316406 722.226562 240.972656 702.78125 244.46875 C 682.167969 247.835938 662.890625 256.871094 647.007812 270.476562 C 637.320312 278.933594 628.503906 287.699219 623.761719 299.898438 C 616.511719 317.941406 613.078125 337.355469 613.820312 356.878906 C 614.183594 363.867188 615.078125 370.730469 616.363281 377.640625 C 616.914062 381.371094 619.050781 384.738281 622.15625 386.789062 C 627.382812 390.203125 633.273438 392.324219 639.433594 393.113281 C 649.152344 394.0625 658.953125 393.234375 668.386719 390.816406 C 677.597656 388.492188 687.253906 388.679688 696.421875 391.292969 C 710.621094 395.027344 723.214844 402.519531 734.957031 410.855469 C 757.519531 426.757812 777.296875 446.136719 793.691406 468.34375 C 799.464844 476.339844 805.238281 484.332031 813.429688 489.960938 C 819.320312 493.9375 825.335938 498.4375 833.105469 494.621094 C 833.554688 494.425781 834.164062 494.375 834.625 494.335938 C 842.269531 493.535156 849.585938 491.605469 856.65625 488.613281 C 871.996094 482.226562 887.335938 475.835938 902.570312 469.070312 C 920.796875 461.28125 936.90625 449.429688 949.652344 434.316406 Z M 763.304688 478.246094 C 762.953125 478.660156 763.1875 479.566406 763.25 480.332031 C 764.015625 480.265625 764.960938 480.496094 765.476562 480.21875 C 766.066406 479.863281 765.597656 478.898438 765.726562 477.730469 C 764.738281 477.890625 763.65625 477.828125 763.304688 478.246094 Z M 666.722656 290.9375 C 677.554688 279.609375 689.457031 270.890625 704.929688 268.734375 C 710.734375 268.085938 716.535156 268.289062 722.25 269.269531 C 735.082031 271.421875 747.445312 275.3125 759.253906 280.867188 C 778.339844 289.429688 798.410156 295.980469 818.910156 300.335938 C 823.386719 301.269531 828.015625 302.1875 832.375 303.589844 C 846.65625 308.242188 861.34375 308.695312 876.265625 308.203125 C 886.492188 307.875 896.773438 308.160156 907 308.683594 C 915.582031 308.960938 923.605469 312.597656 929.527344 318.726562 C 936.722656 326.214844 941.699219 334.816406 941.917969 345.515625 C 942.289062 358.902344 941.632812 371.992188 935.914062 384.507812 C 931.648438 393.273438 925.597656 400.957031 918.1875 407.214844 C 905.996094 417.964844 892.253906 426.839844 877.410156 433.648438 C 872 436.1875 866.863281 439.246094 861.28125 441.644531 C 854.363281 444.621094 847.171875 447.082031 839.992188 449.695312 C 838.191406 450.308594 836.226562 450.785156 834.429688 451.398438 C 832.644531 452.167969 831.105469 453.996094 829.757812 450.871094 C 829.589844 450.730469 828.742188 450.726562 828.285156 450.765625 C 821.390625 451.347656 814.585938 449.300781 809.210938 445.054688 C 804.179688 441.238281 798.308594 438.417969 793 434.9375 C 783.574219 428.410156 775.058594 420.800781 767.464844 412.269531 C 761.613281 406.054688 756.347656 399.484375 750.425781 393.351562 C 747.382812 390.21875 744.128906 387.332031 740.679688 384.847656 C 739.183594 383.585938 737.335938 382.738281 735.460938 382.4375 C 720.742188 381.675781 707.710938 375.378906 694.222656 370.96875 C 687.402344 368.769531 680.710938 366.253906 674.203125 363.179688 C 663.929688 358.496094 656.71875 349.003906 655.070312 337.808594 C 651.785156 320.121094 657.089844 304.554688 667.015625 290.761719 Z M 785.648438 425.609375 C 787.710938 427.210938 790.136719 429.394531 792.980469 431.082031 C 799.261719 435.101562 806.089844 438.300781 811.890625 443.050781 C 819.039062 449.078125 827.449219 448.210938 835.007812 447.339844 C 843.167969 446.265625 850.941406 442.445312 858.765625 439.238281 C 864.648438 436.8125 870.300781 433.480469 876.078125 430.675781 C 890.628906 424.046875 904.144531 415.265625 916.199219 404.683594 C 922.878906 398.949219 928.386719 392.085938 932.421875 384.261719 C 938.378906 371.804688 939.046875 358.871094 938.605469 345.566406 C 938.3125 335.796875 933.789062 328.007812 927.34375 321.148438 C 920.898438 314.292969 912.980469 311.878906 904.089844 311.628906 C 893.878906 311.261719 883.777344 311.265625 873.617188 311.511719 C 859.769531 311.914062 846.21875 311.285156 832.914062 307.167969 C 828.71875 305.90625 824.3125 304.890625 820.074219 304.015625 C 798.558594 299.515625 777.460938 292.664062 757.417969 283.71875 C 746.753906 278.992188 735.644531 275.308594 724.179688 272.886719 C 710.558594 269.644531 696.214844 272.324219 684.632812 280.324219 C 666.367188 292.203125 656.746094 308.671875 657.320312 330.753906 C 657.761719 346.757812 665.550781 357.589844 680.671875 363.09375 C 687.589844 365.515625 694.519531 368.089844 701.503906 370.429688 C 712.863281 374.324219 724.042969 378.777344 736.226562 379.671875 C 738.5625 379.9375 740.726562 380.910156 742.472656 382.382812 C 747.101562 386 751.363281 389.878906 755.363281 394.246094 C 764.804688 405.476562 774.957031 416.027344 785.828125 425.90625 Z M 775.421875 392.546875 C 769.238281 386.054688 762.96875 379.488281 756.535156 372.785156 C 755.445312 371.722656 754.351562 370.65625 753.269531 369.746094 C 752.9375 369.464844 752.355469 368.976562 752.203125 368.988281 C 749.316406 370.390625 748.453125 367.53125 746.816406 366.4375 C 743.617188 364.164062 740.332031 361.820312 736.917969 359.796875 C 731.175781 356.65625 726.035156 352.464844 721.75 347.429688 C 714.800781 338.300781 714.507812 325.835938 720.949219 316.34375 C 729.195312 304.542969 744.96875 300.507812 757.859375 306.972656 C 769.777344 312.902344 782.390625 317 794.945312 321.335938 C 803.210938 324.183594 811.597656 326.710938 819.792969 329.640625 C 834.691406 335.242188 850.921875 336.566406 866.539062 333.394531 C 873.65625 331.867188 880.921875 332.023438 887.925781 333.664062 C 897.152344 336.046875 901.949219 341.652344 902.605469 351.160156 C 902.785156 354.152344 902.503906 357.183594 901.667969 360.03125 C 899.375 369.324219 893.921875 376.804688 888.148438 384.15625 C 878.71875 395.671875 866.871094 405.003906 853.378906 411.390625 C 847.601562 414.195312 841.140625 415.28125 834.757812 414.589844 C 827.761719 413.945312 820.847656 413.375 813.898438 412.34375 C 804.847656 411.105469 796.925781 406.84375 789.28125 402.246094 C 784.566406 399.40625 780.1875 396 775.269531 392.558594 Z M 777.523438 390.054688 C 782.359375 393.425781 786.640625 396.609375 791.121094 399.390625 C 798.195312 403.648438 805.546875 407.578125 813.75 408.808594 C 821.089844 409.886719 828.546875 410.488281 835.929688 411.171875 C 841.996094 411.738281 848.054688 410.453125 853.371094 407.691406 C 869.667969 399.832031 883.34375 387.492188 892.984375 372.179688 C 896.492188 367.179688 898.777344 361.433594 899.5625 355.273438 C 900.371094 344.871094 896.148438 338.753906 886.320312 336.578125 C 884.347656 336.050781 882.320312 335.757812 880.316406 335.773438 C 875.304688 335.8125 870.253906 336.242188 865.296875 336.890625 C 852.019531 339.480469 838.375 338.632812 825.457031 334.558594 C 819.347656 332.53125 813.363281 330.1875 807.109375 328.324219 C 788.96875 322.691406 770.757812 317.136719 753.675781 308.558594 C 749 306.179688 743.503906 305.949219 738.664062 307.980469 C 735.527344 309.171875 732.570312 310.65625 729.625 312.292969 C 720.078125 317.882812 715.453125 336.011719 724.28125 345.441406 C 728.597656 349.933594 733.402344 353.847656 738.6875 357.023438 C 742.347656 359.257812 745.8125 361.894531 749.347656 364.449219 C 750.746094 365.488281 751.613281 367.496094 753.84375 366.535156 C 754.136719 366.355469 754.886719 366.988281 755.382812 367.40625 C 756.628906 368.457031 757.960938 369.582031 758.996094 370.878906 C 765.347656 377.515625 771.542969 384.160156 777.464844 390.292969 Z M 777.523438 390.054688 " fill-opacity="1" fill-rule="nonzero"/></g></g></g></svg>